<mxfile host="app.diagrams.net" modified="2020-11-07T11:57:20.554Z" agent="5.0 (Windows NT 10.0; Win64; x64) AppleWebKit/537.36 (KHTML, like Gecko) Chrome/86.0.4240.183 Safari/537.36 Edg/86.0.622.63" etag="fZnTOyuvin4sVzT8No_O" version="13.9.2" type="github">
  <diagram name="Page-1" id="bfe91b75-5d2c-26a0-9c1d-138518896778">
    <mxGraphModel dx="1673" dy="961" grid="1" gridSize="10" guides="1" tooltips="1" connect="1" arrows="1" fold="1" page="1" pageScale="1" pageWidth="1100" pageHeight="850" background="#ffffff" math="0" shadow="0">
      <root>
        <mxCell id="0" />
        <mxCell id="1" parent="0" />
        <mxCell id="GsIWdPKWRebKrd8d-r1N-12" value="" style="endArrow=none;html=1;strokeColor=#004C99;strokeWidth=2;" parent="1" edge="1">
          <mxGeometry width="50" height="50" relative="1" as="geometry">
            <mxPoint x="313.92" y="357.65999999999997" as="sourcePoint" />
            <mxPoint x="445.42" y="357.21000000000004" as="targetPoint" />
          </mxGeometry>
        </mxCell>
        <mxCell id="GsIWdPKWRebKrd8d-r1N-3" value="" style="rounded=1;whiteSpace=wrap;html=1;glass=1;shadow=1;sketch=0;opacity=60;strokeColor=none;" parent="1" vertex="1">
          <mxGeometry x="445.42" y="284.7" width="210" height="448.87" as="geometry" />
        </mxCell>
        <mxCell id="CjMjSR9vqsGcoCLZpo86-3" value="" style="shape=image;verticalLabelPosition=bottom;verticalAlign=top;imageAspect=0;aspect=fixed;image=data:image/png,iVBORw0KGgoAAAANSUhEUgAAAS4AAADGCAYAAAEbJ12OAAAAAXNSR0IArs4c6QAAAARnQU1BAACxjwv8YQUAAAAJcEhZcwAAFxEAABcRAcom8z8AAEAnSURBVHhe7X17lCRFlTcNwzCyiCiiCKiIrAsLgi988hCfK+p09XOe0Di4LdPdVdX16npXZrNHV5RhnBVXR/zERRyGYQbm1TPT0z3it9+uuvt5VnZhVHQfnlXPqqsu7lkf31/z3V9kRHVUVlRlZmXWO37n3O6qjBuPjLh548aNm1Gn9QxG7z35wNi9J0/VI87aOlQ1YvvTr+FJp41uO/ltezpPah4Gt3/7vHKF204+wS/XRMsa10glTW+cn8LLjZOGPDD4aRjgN38VRIF+C5XLURFnc8botqf/reHMCqzb/t1LpbK2j99zMiR9LxNnV8M1Y4BwrNORocmoWXc7GyVQ1YZOaBTgqmGTk5Nn3pH91NyW9PY0vg/OnzgVTuRvxX/GwBFJFf5wYsJYg88izTCM02NzuTeKaxvyX7ken6dTqYsEz1jpsbtPnTo1gM8yKtqCD6P3Pv04+8IRTRuXjs/vu45/LVc6NjZ2htw49t1c/i0aM5PIvX9ycueZG4sP3RwOh89C+rB59BnBH0mnXzaTzL4tFos9Z7S095N1G4YGlVtoA/XGLaJQuTH4jIagUeJ7PJ5/KV1bHTKP/0DwxuPGC6emjHPGjX1foq8DaNiEYaxBumPD6M/2Wg0DphL5l29JpZ4rKkNjNhQevnvKMM6ZTKefh2ujpYMLIh3/5c/hZP490/Hce0Pm4pOiYfi/rrj3PldDSVbDf7EvHJFE5joUPGwe+xG+iwrDicIoY5AQNoxzh8wj38fnMWP/3tnZ3EvY59Lj+/AfYHnn5i5Bw/Cdeva/3TVMfGkzOrJhyna0u3Gj256aVbZBNo35pZahZqMERCIIDeWXmwq5Tn6pNmTmVhGv2h1UBQRNvKoehuquZbLPuU1HVQPIBOdJdvOZEU9qLrxUKIwCRs1Ytgl4aZSMRvJ4gp8KmtY4vwWL/JBBfsk/RKF+GgbI5aiIsznDnhELVJ7UEOxljWx7ypSvCeLsarhmDBCOdYpE+ML4pZahZuPa2SiBug3jX9uGinbUahQWD1i+hcylH2CVNJPM3TZSOvB1XOcsDOL7R2K5i4fNw/fL17DYkPnxGQtp8ZldlOC6YfzjaVimiaXasLnwTfpXXt0IPvyXP1v/l385E89eMTExUV6p23lkCF8vLNqaDYtGo+eFzOXfD5pLX5MbFotlLscSDOtL9Mh0yrhoamrqHFEprkfnCleCl1de7jX830pp4bBxrrhmR7k9tRomgALkhonK8J2vEVnFU9TgWC538Yjx+MfQOAxZNFUIYcErGiH/F5/tcGyYyIy7FytxGsaT4fDcJZylDKRxd4HUO8u/IiFjQw73ARbFIu3OROJFVNY38FnG2D1P3462sCmsVsPagaq2dErjajZMtkpbjapGCaw0rjXrSRmibrtjp4wyAxG/1FRQPcwF5qpOmbFV5GmOVhUQODVzseIFkCFlA2sQz9YfoBuukOuAaDsvvneguEmLXGxY21EvLICzdC9acVOtqKPpaMdNtKPOQGBvtF9Pghe0zU/YKOyNDdTJ5AH2drihkU8+9XaevXlQVSwTZ2s5VG1phHhx/qAqWBBbvncI0B6vHir7/cjEWdxDVQimeJ7ccxA+HDvx5NqAreQ5U4/Bfv81+6CKsdZSuA+gCmzjSRbskuW0z2gYxir4twRxf1jZz1omc/npsbE9LK0WhoxjfwJe/pUBITlyuQIob3B++QT/yjBoHL8XvPaAElFGyFyc4JcYUN9ac/nn/GtNqB5TnlQtXfyyEnAIoiFRw2BKlhq2ZjqTOR+f4fFE2h2x2AvQqYgxisTz1+PasHnsM+CxQ+SB+5ZfQsf8dsg8+hNc55dOmzSMs+18wn07VjqwxHnLnYaQIVxjROXxy6chvgnX7B2sgrJfhKez4mIdINprpHTwb0Rj0DE8qXzzwnUsEE3mXsOuc6++HdFk8S28rNMnJ62OCc8Zl+A/grvAg88jpUNfpY/sRiF9uDY1O3cV2oTPQ+bCTqQBosOiUcPyt9NnXPfSYYDcN0xN2R9HzucI3FwiYbzo1sz9H0UD0Bm1OmzIPPZNXKc8q/FfEF1nC3KE4+H7qPH4LP6Pl/buYNfj+bfiu6pcfFcRNhmQLjoMPn60bbh08K/x3VeHoX+qlhgOzjMS7+8MmksPo8PEKINw0+LGQuZCdq25GLN0jpV+J3UuL0KJmbhxheBNpVLPxTXcrLgGKWSMhLHSoxtwTXQOx8DG/P+aw3W0Te4wJOLa5vwXC6K8BiXM8rhUXCRiF2sAnYSbR1QptpHS1qizytEI3Cw6DhsfiUTiD+yKuw4GEOaIx4t/Z0DkKsrEDfNLTJ+JiFYZ4KGBOxd1YrJBeXS5omPQJnsdtVCzX7C2qpnYp6A+qHSA2v15FQE4nHhS38HeD3X7ws6IYA2e1PNQuYxcuazsmQTx5J6D6l5BPNk9HF+165TtKA+otdAWFNjOrBxf3GvUUrVTKyCtQ6n3tuk0CF4f536amctQdYRX4kX1LlQ37Zd40b0DuinHGIpaj5jLR7U3FLXixsrkdQcHUJUjiLN0J1Q3BOLJvqAqF8STuwuqGwk6XlF+8U8mntwdUHkxmhVDgaWWvS7mFu4WVDX+nqdv50lNQdf65eyNbtUoqx5JntSZqLsX1wLY625l+JRn2BvbiGngF/Y28Mudh05oqL0NbqhlbwJTZUrrvF2LXlUsgxdqyusYKvNAJs7WFqja0wjx4vxBVbCdOGtboGoPJAbrTGZmIJRBEYalIl6kdzgtajlb28HaY9/vcwDlqbnY9/xo1nrsmvKMtxEqA1cQZ6mPWrs7PLknobpfEE9Wo9aWEU/uaaj0GlQRT66GnRnEk/oCqqeKJ1XCzlSTscfhqh8cGfoIdfvCntiyJUGHoq6ToGZCDQyayz8UUXaDd51ATCiDiDZeoSUsg+pF4bGIaHtcKqKY7VHICGQDrxz0huA6q57j9/JLZaAMpNmiABm/mwA8ZZ9U9aKDT4pu4heoMJzMDc7MFYbxGQG2SLMafuLUTDK7+dbc5+8W38VRj3bQjbOw8pC59GN+qdwpIKTzy6fhPEFck6P6ppLJCyXecifKZaw1T/yCXy6HZk5NJS/kl2rCHsTM3lCRL4A4rxKiEQikxYjhezibvUDclGggQhjp2mrc4HDpwN/iGnhZITasL+xmgb4iXUQ2g7ZmMs9nTAR8D5nHfyaXg2sfyuxgwb1yEC94cG19YddD+C8GS3SWOODRCVV9U3WhDkQjQDbxZhBp/CuDkAh0Kr9UgZlE/hVIj8W2MYkR4d+gIfPYMq6JesPxwmvxHRCR0B+Jpi+1+Jd/yZNWBrX46KesNKtNLe0sIBxPv1Y0IDS/jDVZudPkhglQw1nY96i5/6P8UgXEywObjC+z9wnxQsBoad8DmzNfSvKyBvCyAj6L+HlgaP7IPbjGjmpJZN6Ez0IXic5CuPdMLH0tPiMwt+WdhYbMzhWuui17/ydQMQjXkCa+M0YO3ACuoeH0dcCKNB7DY8ry4H/IXGQThrjJeDzzKiFxkCARR0/pQocxRT2byt6AL9PTmfOtfFZninJQJ31ePWQs/jv7zl9EaFlnCWCUZlO5N6ByutklXMNnEGPgEI8LztKJpI2VV0qISCrYxCCkFSHe+I/XUugmmcThxvAfuo0VSICU4JqKkC53Fr7HMpnL8V2U5bqzaLKr6Bv5C7vgAUJqqLP+Bd/xGcQSOYbMxX24hveBxNsaLI7e6hBLqZNEgGdqtnAV/vMJgiTu+M8GzaXf4RokjRVIoDLZ4Vg4EhgnJYEiydwIrqEOe2ft2bPnjLHSvv24BmqJZFEj2FSP/2jQcPHgB/EdkoF00Ri8gUEduF18j8Sz7wY/K0QBUS5oQ+mRP+OXcaTx68V16DZcQzn4Ppssvo0xceBFLVzHGxqCR3QWgBeqRFkt6SxM66PFx5mxJyiayA7jkUT6qHFgt7geml/69ebCg5+bTWbfRo1fzQqog4n8fezs8IQkQZhBcW20tP+o6GzxqEYi2RczJg6kD5uH/w6SyDrLXHp2Q/4rW3kyM2AxaKq8tVDVN3bXhNOWFjXk7ChN19FU4Y8wzcvWN14hEY8ZbqqWMarCGOwy6dEEcIMoRwwGgEcf11SmCwxWIYH4T2VVDBJ9X0VtqqijHuR+AdW+2OeAV1juk/KxDvJFELvY56jZJ66dXn0CldeUJ1mom9hncOwL+ypbydQHsPdBzRMO7YwgntQX8Hz/njP0CBq+b1XGZkf0tQu1tv+c7M0KqAoA8eSegOr+QJ46SkBVUJk8xhd0CqjtdV9q4GyNQfVDaD1JQcbDKivoEeK3GDxU1m1XUqvj59lM0iWdx9RJF77f3VJgQBENY/ciuCXk68sXRTVWwIKXbXsMraC6YVwa3YlOnV56Lfq2L1Br5dvp1NCCU6M18LNODdpWcnqpwol4MRrtRCNaql1GdyMCp7VZG+BVqNr1cwC14LX9WshaBA8rva44oAaaVNF2JfEsGkFDdTSmijr6iII6UJ5+oiDt0ggYjieAWtQTR2m5ss1avWXQq3CzCuSsPQXVfdqJs2o0AkcHaI8/wf36YDUdjoZun0wNjnudvB+wouTn8mzHQ1lLMHEdbymjf1vyQ3WdAtysW2coz9IXUN1/S6ib4xcbjUDg2fsKqn5oB3Waz7CMekcLuaV+PXiC7t3x4OpWEzuWoJ1w67+pR+xcLx2QptReLI7Mp+0Ee82lu6cmtdT/Vuugt7pEhqje6qiNVvdNozMNzx48vAqVFqbugVftxrP5h6ddfz3FdT3gAlGOrY2w+udZGoOqUBVxdo0egltt5nmGcruZzNk1ehhu3EquV5dupsF2BeZptA8qOaggp50V1QERdtKGev9CJQ8VVEvAIDTKDBJxVj9gx36K8wNBqiOiNDoXTtt4yilSxSgTZ2sIJFDs9Mx6FDKPfwvCxrOUz2h0RebSSZxJxrO6BvLE4/mXinKG5hdytc40EyeJCspYZ9cqH4wt/CA6UKh07ADOc+NJFcA5a3KZIHH0ay2IQ+5kQtsoqaotOFNueP5wSfClrTN0fT/MKvmQibNZcFoZ+IgCHdi6NfN8cXOjxceXplO5100ljQtjMeMFsVzu4mgy95poPPdeHAoqDrQDcLCeyAfCkY44iG8mnr1iivLMpLI30OfQWPGxJ2Q+Eg7H0woFIEg4hlGcugriA1ABCOGQcaR8OiIjc+lX8qnRAhjQkHH0oODDAabIz5PLYHzm4pPgGSod/Yngp2v/WOse0N5IOl0+DHW0tP/vxef1xUffZJ8FcJggjpwUPDhmMqiZQiUnMnG25mktaKLZjHGZuLnh0sJR1YDghu03bRcufOdJZaB8HKg6M5u9QeZV1VEL0JDymcrDpaMP24UBJ2yL9HAqt0V8npszLsGAczZgAO0R6RsLuz9aQ1hPx5mjgi88l3tzNJF+u/g+WjoQlrW4gF241pd271xXePiL5Xz5x8bk9jRZuOruiTLb3Mnt4Cd2HTeCc0bXFR/5nLhBRubS1/gA1rxRN8IlgKlic+HBmOC9Nf9X71INTg0M4FTf0dLBBZEfWhXXkYh2Cq2FU36nZ3OvGzaPPiN4cRwy+ADiXR2aX/yGSMNJwIp2DMjCOk1ChXsLh7MXjBn794rr9ICU2yBgF66x4r57UMfm7BcL4trI/NG/FALWTOECVPIiiAUiOAXv8XIaBm4U9gmezi2Ze9lp6HYKGce/IDpEwItw4YjneMZ4leAdLe77hHy+rBOo7lUzceMKkT9kHjtB1zA1VQhCJJG5Du3AVC6ujZr7o1yABsRBwKBwPP9WKqM8zQvIdtaweeRJDDjuHcdKh5P5V4bM5d+LdLsGBl/ltLj3k7Ft254DwcTx1eL6oHl8EeW1U7hAjnuGvBzfwE2FwzvOgiaLpQvXRudy78OpzuUOIeICxG7ei3DddJOxatx8PCF4yX573cTExBq7ES7TWnP5OxAqXgSrT/z4BIj/kMXqodKRQ/geMhZ/mCRbEQMMTTdSOvTVMm/YOBfT65B57J8YL9lwsOXAy4tnQH3DxpFdIh9O7EefQDhB0IIzsdwbRTqVsyS3EeXZhYs/ROwhmEmk37GSd+l7WFj0hXDZgY7CoEAbiJunJ+6fy6dUexAu+woqkci/HIMCYYjE89eLA+kFzSby75jJZq+QtRsGV/x0AgiCgsEQ3yGwEATwwhiHoS7SRoyFL4gfAgHBhqs64RsmQjb7YsHjlmSBqCNcAD28xrk4gn0l//IvR0v7tonvLRcuJ8cpL6dh4GZq3RA6a2PxoZvFzePXUqamprCsdiVcEIhB4/gewYMpBVNWraW/EyDY0WTxLaK8odLCEvtvHvkefkNIvo9oNHreeOmRT6/Uffw/8J+M8QVoNmKpuGcMvOAdNha+OZNIvGIy/XF23LxM0ahxHlbF7FccOD/yogwH4WJg2m9uRfvJ1HLhcmLys9WDwRoyF/9OdaN22pL79J0fieUuRgeyvNTRKj4VDZsLJyOpzC3RdPrSycmdFb/W5QWo2+6aAKk0Eew82EgyHwi2G5VTsdpEXvww1gpP9gr5dw3sAL9s10ED4Zob4QKIbw3aLNtvoBYLl/W+qSKhghhTA4BmYTYWPUmRVOED04ns+kgyuzmcyN9KBu8m/G4KluBwV1CHYDos3zg6E4MQiWffCWNVEKa1mWTmXfBzYQDwIziYFlEXz+oLkzt3nonpMZzK3oRf1sBPm0CbUFLVoMDgxvSINjJKZK/eLK0eOQamDOOcmVjh2nAse3M4kf1jF64S9vNP1FfXoFwICu4RwoXFEUwJ6rcb8SMctYQUDxkEMRJPX4/+Qlnc2RoInDz1nI2EwCFkmS0rfcP6xTcIAZ56/Md3SgjsSdJoDRxD3LfZzqx2ChLrq3fhNOpCJR8ycbZKqBgrSEea9j2UciFR3agZVQaZdCxXf8JN1Iyr2U2V0U6cVaMP4OblHE8v1aoKqCK74abRU3A03Dlxdm/gB2AoC5TJdQy1RlfArVAFolyUBdcgnkWjC+Fm+hPEswQHVSX1iGfT6GB4PTSm6e9QOPnEalHHnqTSJ4BgdM0JRK7nZgeCOoaLQwufP0B4mJ1MtlCjCkCmjjkEOChB09Rm6oaD4dy8A6mp/dQzTnE253tYkWgKkDBV6u07DY0uAbcFcRJyQwYuHMQ6IkSDAcLU6HLbDbFpXU8v/QM//htfpPdWexfsbM8A/DlBkJ+XhzU6CI0eGNsS6uYfEOhnYPrrFE3lRLzJGt0AGrCO+zEAJ9KhSB2OoLQV27+k6RTl8aLrAjaU09FSbokXqdFJ8GVbBeyR5kJe/6f86pA2+DsINCDep0FouBb4oBoWeu26aD887z+SULUrXEfZnjoEfxzPqtFqeBasDvCWow3KttUiehh4Vo1WwZNgdeAU42UB4PvnTTTco1d+Y8iTFtM2WPPhZUDcuhLaDVXblaQ9+s2FstPt1IV2ivI+FNQtD0zXAUKj6vAK6mID2NX9EXF2jaDg1s7i7F0L1T1Vkba/goWyk23EWbseqnuzk361LiDgSVV1cAV18KrQK9j2keoebcTZNRqFy462DmztIbgxA/QepE84HdYK4qw9B9W92omzajQCVYdWUA9Nhyoo71mmHr//psFxi6cP9t3cvEzCWTW8QNWRMvWLQ1F17zJxNv6q3FOz2LdkQqnym+EaLZDY3uY9T9/el6tOx22ePtBaAm7szqCopw9Jpht0FfiHIDyepefh1jURNMEs4U3oXrBoTZdbH4J41r6Bqg9aSt22ad5oCHA/RmgG9QJIANTZPkVHe8qB+mlKFGjX1FiLOuYkQRlBGKe8qL6Dqi/aTR2xYm/4LRgF8SL7Dqq+UBLZr9xHuB22EraJBGE1aLkqgluBojzexNYDfhVVo1wTOovUcL/4tWqhjkN1u9++gRB6XVTZiRfVOjTcYBLIfhcmO6B5eN+wh41fDhx+ZpmWOGUbNUA70lDsYzSySm3qgqsRwdJC1dnwbKM1wy/mVbDaagxqeIZqDGtS0AKmrKQGaZuqO+HpheSgQoKUhStIn4HQ/fDiCOdZGoeHObnnQpL7GYrxVRJn9w4Y46oC7aSN9t6EaqyraFsDIVJuDXj9Y+q9DdWY28nzCyUunaR6KuxxuFUynN0ZZY9xHYItxtk1ehxuPPuu5UGV2U6cVaNPgG07lRzIxFlrAzaUKmMFBeXj0OgqKGVBJifjXplJJpJgzqrRZ3Bjf3HWarixtTirRp/Cye9Z05HuYoXof3V46tSAYRinj42NnQHCZ7o6YCVqdAMUclFBnK0SKkaZOFtDgBCtNRdjg/MnTlWRufyb0bsWXk2SVyFklGfVoHnif2rkefqD5tLDQ8bi1VxAGwIEfKWO5RP1ypqcnDxT1D9kHPsTulTroRiQeXEf/HoVkLbWXP45+PC/Hq+AXHZo/sS/1cuD+xPlO7TZNRx3bewb207eeD/vumHABs2lr4kOqUWJROIPiJ3dPPKEw9kLVHwqGjaO3HKKtCLyesBAKpV6LgnVL0U5k4ZxNk+rwJ49e84YNo98tlynufQjauNqnlwBDPZQ6diXBW84m71A1Tbc47C5kC2XSRSaP/pxCARnqQIr21zcJ+ehtnwX1zmLjIF0Ov08wTc8f7gEweRpDcPR9rIb9komiXxEOgxMyjdoLpwMJ7LjM4nc+8OJ3Acjiez6YfPwSaSFw3OXoMORaWxszxmxWOZykS+SyH8onMjfOpPMbsb/DcWHvxwyF/9TpINC5vEdIr9boG0jxce+KMqYSiYvVAlCLBZ7Dg3ir+T6qK5zeXIFJieNs0mz/hY8ofnl38ViuYtV7ZowjDWCTybUxVmqQOWsGTKOHLHn2ZrJPJ+SK9qN+5iaSl4oeMZKj92NOnmyL6hkRCbOZkHFIBNn8ww8KSQES+IGI/Hsu2dnM5dNZzLn44mOZTKXRxPpG3E9PGdUCFc0VfgjkS+ayL99a7RwJa5NzRWuiiSK14WTmfdEktmNggc0etfRD3sRMAwkyhL5R8zD91P+Ki2AwZPrAU2njIsUdQ3EYsYLBM+YcWCPauAJA9PTmfMF36bCA2UBj8eNFyLdYqsE1Xf2kLFwTPCWiYSU0io0KYRrdjb3EsEzWtr7yaCEyymStRwW7aTm/EyJmGYGzeP/LG4Q2mjnzp1Qzeg8GPeroD2gMeRpsUq45gpXjo0Zq3EdAkv51mAQSQv+cTiZGxR8Vh21n3w7UH8kVfjDcn7STvb8xHN6eG7uErkO0HDp6MPIz9kYwBuP518qeGbmcm9UtYdNs8aRz6/wFYbFZ7q+y16uAF2vEK4Nxa98RXweLz4+ImvdZgqXs8zwYFEne8tPcP4WsmlIc/2LuEFMEYpph60g8d/6qhAu+oxrPFlgAJ0F4Vhf3P0FwUuduI6X5wxqSySSfTEN6JPluqJGhQmAgaapaDfSyN75T5DgxRTI2RgmJ3eeSenLIh1tUwkKe+g4z1jp8X3TqdzraFr/mbjGH7Qq2IULpoX4DKL0svA0U7gAlazIxJicrH/G1CCmpqbOGTce/VS5A+oYwjJcChcDBiJGGkLwhsyl74fD4bN4siOmpoxzPpT9zGaRH1qK2lgWTtmGGi/u3bWu+PD9ghfak1jKDwXaItJoAfBkJJt9MQSYJwsMEN+LBF80kXkThGBL+r7bxbUa+aqEK5LIvH5jYdc28Z3ScqLtHSFcqgSZGFODwCBHk7nXiBsUNFQ8/H55AO3wIlxYXc0k8q+Qy58yjHN4siPGSNinY3OvFnlDxtGD8qpKtrdmZrM30KLibeL7xuJDN0v3MQB7SaRBYCG4PK0MlE3a7evgCZnLvw8n86+EAJP9eI3Ii3TVys4uXLOZzGVkM74e5YhrYsXbdOFy2G+0mBQJMjGmBoGOxw1GUplbxE3KNPJnS3S/1ULmRbgIA3dCE5hLzwp+GMs8zRGon9lJ5nI5v5iWkIaFhrgO2y+aSpXbFZpf/AbxME0MIR8rPFrWgLG5wqshuEiTAYETPOPGvi+hrcgLk2HYPPqMSINJwbOUQXVVCBfyMK2Xv+9PxbVBc3Efymu2cDntQzMmVUKZAthLROeHk8lXTsczHxg2Dv1DuRMEmcu/4YPg1eYqA4uCkHH8XwV/MmkoXQo1MADtNFrc9yWRf5Kv2NhqlzQZrg2Zx3+KFSKz0cyj3xa8QjvhPkPmsW+y6ySokXT6ZRBOpAngO02rN4i8ZGu9ga6xAQ+HjXOnE+m3i7Tx/EM3KvJXai4SHuSPJLJXD84v/Vpcp2vnIG9TNZdDvD1zX6kSBAX1ihimx63x+Esj8fz18HMNlw6WB0cQOomzexYuPOVyWehUCBc6GMS0ikS4RtnKwmd3SYzn92wCn2x4j5ce+TSckhCmLfnPbhLXEwnjRbCP5DZAUFUuCKp3NWnY7zM+c+nXmM5RD9IgyFOzc1eJMsh2/DH4WUYO+q4SrtPh2plJ5t+1kvf43yBvM4XLacXIXqJVJUgUWLQpOhFPJ+yEmVT2BgiZvPJaay7/QtgZjWguwQuCdoHLQ75mJ26bsMGngahwSUAD4YGQfVYwnicmjDV2G23YWLgX+SFkK7zF6xQuiAqH8sbiro/H4/EXju3ZIwR+FRzJw+aCpf2IotEoVq5lASWeKuHCQ4R+Qx9R3qdEGoR7OpW6SHwPWrgAhbyUyVG4mhAjz3xbELKpWObyaDz3XtkY3brVeto9CRd1LlZXgnfIPPoP6FjYTfT0/0Rct1OF5xxl2FwSEARMbeI72os2IA+ui3ajDtQ1YhwyBa/KBQEBGjUPhAWPGxo2DpeEZgNqCRclDcCFEk5lbyrnp5W53P5WCxeLrVclSNSsOHkSoLHVkUj6ZWPFvQ+JDoBhjcHzIlzofNkheXv2cxsx2NZUl716Jpl5F63I3rNCmfdEk5m3YIegLFwEu0silstdPFQ6egifQ8biD6WtIWajwfsueCGYNBX9AJ8hoPgOgbVKtjAxMbFG3sd0Rebyb2WBqCNcTPuyaba4f1Gky9Nsx2muZh/OigEdLe7fJTpgNmNcBmHxIlwQJMEHgkDBmw/BgYBBS0ILCQobpDWpXgwGL4LBPt2NGPs/Jj6Pl/buQDmcldlo8E+J9K3RuSvF5xouiAHKU55iNxYe/EwklrmlUugtwr7riHH4W4JX9qXVEy4ALpjwXO7NIn3t/NJ/ic+tNuiZ812VUKZG3kurRJX3XQYTDHPpd6IDoun0peB3KVwom7SBxQO6PfsXH8EUyev0BOSRXRKkif5DlDubyr0uHN5RdswS76podMUlMVI6xFaUIAio3QVh3+6BYMLekoVeELSePL0hH/KjHKq3rnDhwYQTeF1xd7kuQYELF87+UskMJ4tJkSATY2oM8ERbWsVc/k2ouPg+3DwGEQQjlATru+LmsQ2CjkVn2YVr1Nz/0bXzi3HEhLG4MHPpYZQp0kHjpX2HoLVgdPP6vaLKJSGINMorZeFGG+HuGDKPlP1SjMylZ8XUzlkZmJe/zLP8bCKRfzn6gidXQBjncrnCMeokXAB4sfiQ84OCFi6nzWvG5BSBypgaADpYdkDWI9ISP4fPhzqWdaJduJzojvSnElihwVVg72wvsOy0FZcEiAToe8LdwNkYEAt2a/avEjJvDRfEAOw7wbO+sOvPFTwy2PbQaOlAObQG33HdjXCh36dI8KHFBR8ocM3lRm7oQ90fIGBMDQA3iRXZHdkdW0l4/lu+UZk2FHc9iGlANrAhXIigkFeSMoXMYz8aKz72RDiV3wTbZXaucBUES+RvFJR/FVaFJFCWL4qI2VCK7SS4KmZi6WuF8zJE//GAQEA5CwM01Hhh921Wu5d/j+0wp71PasfZ4diK7TRm7o/ddNNNq7Zt2/acDcYjJaus4z9FvJbqYYL2hhZfV3q0vOgIx9OvDe9Ymdr9QiUrMjEmx/CJxs+CYNMiNFAknn3ndDI3EkkWNiLYD0Q3vx7GK+wZ7MlhYHk+S+uFsxewVR0ZudPx3HsFReay7w7Hsjej82fi2Suw9YPB8qOxJLAlPaYVFmNGQo8VGKIdeHoZaCOm8Wiy+Ba0aTaZfdtsLvcS+3QHewkanPn24vm3Ig/y8mQlrDxzLE80kb8xkjbg7V9FtBpTNNqFSArYaMRedd/oC2a/JbPXRFLZd7K6qTz41DiLb6hkpUzyzo6SQSLO1gDIfqIOgTMQWgwdg7256XjmVRi0O2m6wZOu6mx0JoQTqzvZ4GU+MtIkPN8q+3TlF2gLyhb12LemZJTbSLz4z9pTDUxnq+HBr8NTBdheWHVi+uWaDm0YwGeUBTuult0G4D4wDSI/ykF5PMk3nMK0Ks6PUDHIxNn8gK0a0RmC8D1owdBoDVQyIhNns0AX6tpd+pgkDRkqGZGJs1lwsrtAnFWjz+F0vKVyy1DFKFNf/kCkRhVUsiETZ6uEm0NIOKtGn8LJcVp3R0eZQSLPp8hp9BRUMiFT3dnNzXHRnFWjz+D4Gj8RZ60NVSaZXJ8ip9EzcHMCkqufb3GcV4n09Ng/cONJ8BQ9oyzARiwAX6PnoRp7O3mSBRhmqkLsxNk1ehROkQ+cvEcr1/mRyQri7Bo9BjcGPIize4eqMBVxdo0egVvB8m0aqQpVkfbg9wZcToXBLOq8/JJVE15F02gRvIwzUXBvhbn5FQWZeDaNLoEb95OgoN7Cr4BTgJiCmvXOo0ZA8Ko0KiJMg4YbT20VNeN3kTV8gbmaXNpWgpqisezwODfLpDVZm+FZU3FqebCoqhFuSRv+rQMEyq1rQUVt8wK4dbQ6EVSuq41PjbrArIIHN5Bx8bJf2Cz4mCY1dSh13DsTbmLBNHU2dXw4lZ/5XVObiKbAropyCcoe09RE6jahsqMB56umJlNPrta1oLWJSENBoPoqwBMefy/7WppcEAkSFld4kPtKmDRaBwgW3ETsAbZmjO1sRb/t5BOwh9nCiwSxTJJwgpDO7GbwQ1jhiyTth+08+CR1iJWGhoZrQCFBcZQd8bLS6RQiZUf/t+uXxDQ0+gywaALbJewg4vezXVtsGhpdDha5Rw9zR1pPrSOtzDQ0OhlW8J7ed61HrH90eLyGRvtQtqgUD6gmd4QNAm2RaWg0GdqqaiJhSa2tMQ2NYGApqw6M75bCG/hLDrD+tiNMgoVKkBKQCdewMcA2BxALxUIoOjRuXSsxDQ3vQHgCVwbqB6vJJHbp8PC2cymF0Id274Kyurc//RreJA0NDTuYpdLCXUBYPFAM3fZgMsXOLLvWWmzoK94EDY3+hmVdteA1ElKI3aik3AKWIbs/1b0HTLDCMG68ag2N/kHTl4PwQfXxrlkrJgRm8ellpEY/oKkKiznM9cuqKrBNgmYtw6lcHVah0bNoigXAlRWvQsMFmBJT9aVPwhKSV6Gh0f1gTneFoPuibSef0JaVf1BfBh7EiwmKF6+h0X1gy8Igt/Kx1NHxRU0B4uWUfe6HtP9Lo9sQqJVFCksf59IaQNmwCUI1Do0QWca8aA2NzgaEVSnEXkkrrLaBKTDVmDRCNI7aea/RsYBwBjhb699f6wAEuoTUy3yNTgMsI6WweiQd3NiZCCqEBeXwIjU02oug/Fl6WdjZYBa1Yty8kg6b0Gg7glBaiMDWVlb3IAgfJsacF6eh0VoEEciolw7diSDei9TKS6PlCMKnpU8b6G4EIQM6WFWjZQhi91Arrd5AELuOfl7ZgovBTjxJQ6MSfn0cWmn1FoJyGUCu2JsWQQbAuiTUD+uP+Wx1xH9vALMYZlYoHL+v8OilQW8i0DclOpSYctWxaJ0JpqQCUFAq0tvgvY2mnP7RHbQdEzvvBo1WAB3eDCWlIv3aR28Dk55q3PuU9JsfQaKVikom7dfqDwTh7+pR0orMC/gs2N6foqe6eXM0+gCt/hGPbiNmOOgNgGpAWXWSv0FbW/0FbXV5IBgU/ezwL1tWqs5pB2FAtp18AkoLbePN1OgTKGXCJcEiwQ4eZAeujWbID/ytCKBlG1FWKEb7ViSc+urHRzCwbel0STFps1fDDpKR2pNol8gOni2m2Nqx9KX+4c3oHbR8KUiCphWUhhewFQDJjYh96iWrGzFrLVNmUPLd/txZCiuYc5HqEml7mNG9JGwaGs0CFEtLDIlu84Xx2SuY45BVhJmRZhGtqDQ0/KPpbxF0ugJrpoUFB6g+uE9Do7mw4iabs6xE2byazgE1LPgdQqyX+3nrVUOjjWiKJUbPdEe8kYL1MlMwqkY2SrTM1MtADY3OAFtJBf32Sjt3IYNeFmInkBetoaHRgQjaqd/S5WPgVpZeDmpodBWCVGAwgHixzQOLj1JU3iDpFzk1NLoYWPIpnmvvRIZQ09xDQS0NsV7WPiwNjd4AnuXAVmBBBq8G5pyjm+vILVENDQ3fCGw1FoTryFJaAcR1tHMXQUNDoyUIyvpCKAYv0juCUlq+GqGhodF1CMSt1KjlBStJWaAH0ktDDY3+RCBLR6/Ky7fGhLnY7W+Ja2ho+AIUj1I/eCDXkfa+Q/1JabU5rH/AMIzTiVaFzMWJD5aWHh40l58m+s3g/IlTZWLXlr4amj9+79BHF68eG9tzxqlTpwZ4GU4QdZw+NjZ2BvLWJ/BYJPLxutzW1ywMoB0r97HSRqRZLA1BWWYA9xx0W23juFKmz3LtqGq3qMdnn1SNXwBlBgrfyov0CS+qNlhwqSqzB2rT8pANXjgcPmvQPH64QkF5IVJuw3ct3k5lrUKZVtEVQD2rEonEHxDvd5RleKTQXSe+utZcjKFc3APqsKpqLqz+2nHWiLnwp6p2pVKp505OTp552mmulflpeGDGDGP1UOHQWlWZNFE8EovFnoMHjNhdl4u2Eq0euuvoh6vLXP7O1JRxDvqPWN2WuTKO88v/WVWmVe5vGii3AqLda82jKWUdIMhc8eAHWV9bCscVUPbEhLFmeP7onL1MXEMaeDh7W0F6wde7zI5Bqn6XiO04wQGDA4UVumvxo/YBBIXml349Vnr8q7dl7//ETDJ3G2hLent6vLRn37B5+GRVHnP5mXg8/kIInF2QUNdmEvZI2nhZVb4giIR4aH7xU3j4myx07MGNRqPnRVKFPxwyj37L3pbQ/OLS1kzm+ZbycvXgoszV05nM+UPm4tft5QnamH/oRuI72/X90RhgfMPh7AVkQf+jvbz1xp5CLJa7OBbb9hyXZQ7gnnDvZG3/rb08mZC+daunPiiDW0Kr0e6h0tFDqvJlChlHPw6l7uYe5LJHzf1Vco9rSAMPt77aDt/R9rX8XVA6ygwuyVErNgEYZBKqs4fMY3fbBw8Ka0tmR5wezFtmUtkbIoni66djc6+OJLJXTyVzr4kmim+KpvNvn0nk3h9N5cfWF3c/QBbBs0OlhWNTifzLoaDsQoRl32Q6/bx4xniVvT7QDJUznSp8IJzM/8l0PPdeED5HYplbwoncByPJ3FA4URifSWY3byg+/OVh89iPVOWASHH8BR5YN4LcCGD1wKKYSeRfMZH/7CZVGzYWH7oZVombNrDyDOMcemiiqrIE0X19Ix43Xjg2RhODC2WAcmH9jRgHTHtZw8aRJ8Px9GsjkeyL0VduLBaUt4XKGzIXdlaVZx7+t6prxpHPh8PGuXv27IGV6BroM6Kz4/H8SyFT9nJJ1v6f/dqweeSz6G9ukdYElNGEYayZnc29ZLS095P2cnANaeDpFMXFQiUUesM11Voy+gp9oELRMF5US8AGb2JiDYQ2ZB7/gX3wyKL67Gwq97qtJDhpUjYYRMycIBKo1ZihcX0qmbyQlMsrY3OFV8/E0tfCAsGDFd6xo0ppCMUVTRX+yF4fKEoK8cNzc5ds3frnzwcfCHVkyHIJZ7MXTKdSF0XTxqXRucKVpEivm0lm3jWdzI2Ml/YeUZVHwv1dPLTUjoaXK3XAlnWTdK9Q6KOlgwv2+oWSQX+B38qmAI0FFEciYbyIJpF/spdjJyg3KE03DyjKrTXGH8p+ZjMUr5uyAIwnrJp1xYdvsJdFY3CUrPHbyVqsWjqOlR7dMDnpwUokgJfo7Eg6/bIho1pxbSh8ZTfd03/br4eMY4/hfuopym5UXIBv48geWgW/lIrRNTUac+EDENSpqSlmMdAS4l+qB2/fNsx2k/WXJTC5IWCruHWzhv9fpRpwR8VF15EOPp5FBqsL7Z6c3HkmZlYoBSjKcDz/1nAyN0iC/POqcs2lH3lcsrkG2oP+QT9Fk8W30FL1WXv9Y4VHNzspBqTBihk3Hp+1578t+7kd9mtQblByTlYS+hHWzrCxcK+9jJHSoa9ismHWm5NitcCWV+APmUs/lssaMo98H9YxydI7Nue/WJDTQODHxMPa63IM0LdENRXX+uKuB2bi+Q0hhdVNcvA3uG/Kr5ywulVxAb7ewrFbXX58W7DUeDEthXhYZjPGZcPm0f9jHzx64H+3rvDIRrdLHTfwqbiqwIV7DR6K2dm5qyLx7LsHaYlrL5eWK7tgudUSZB/Aw7wKinEmblwxWtz3JXvdUDJ3JhKWklHVTQ8G0lTW1ohx+Fu0fF6H//J1K+2QCWuyVl+xh3PCejhJcfxEzhsyl38PZQ+lQO13Ywmx+0QfhkpHDshlgW7P/OXEFPX/VCxzeSSRef1o6UCVBQyfX9QwznM7gaBNaFstxTVe3HNfOJW9KZrIvW/IWPx3ezrd8/cgS2g3FVdRXzcrLr9WV0WYFTSZkskdteWUBwjGirWQeQvNUj+zDyAoNH/iN4Pzx5LwqSAPZW14IINWXBxsyTY9nTk/nMj+sUp5kCX02zAtQT04oF0D5WH5NJ0yLsLylazXH9rrh3/JUjLVVlc9a4uWcndEE/kbw8nMe+xpUEZTSeNCKCfVw4UHFopmxDj4KXveMePAHiy3oXDBR+x1xxRtxAQ2ah4I28ui/n4QS+U7SfFGo8Z5kUj6ZeFY7s00GT5j5x0yjtwDK1/VD3agX4lqKi6sCNg9JLPXzJKlN2weqV5ik7WNNtmVZTcrLsCPW6p8bp/fZWIbY7bYLCp2xugBefto8fEl+yDaKTS//MSgceQW5IVwoRyrOGc0SXGVlcdHYrmLo4nMm1RljxoH70qnP/68m6wHNVCgL9Bu9OP6wu6qXSr4lyJZOMB3nFXxINDnWtbWsHn4G/AxTsczr4Lvb7R4oMqHNmIevl+yJMsQ/QFlSg/vr+Q8mKBm5nJvRJqrXTg85KQc4cvEBCCXRcriSbKwrhNlYQmPJVqMLK8P5T5zm8zLiPJDIVCdjqEGSCeqo7j2fhKTLvx3XH5vHC4d/Gs739r5E7+gtr1AVl7drrhIbzQcHoGlJivET8Bpu5aJEpjygrBF0+lL8dBj925dac9eLCfsA6oiKDJaijFF5jTIzVJcAATzDhJQWF1k9VTtbo0aj31c+IUCF0YqD+Wy3bl4+rXYrbPXT4poO+4N/cRz1bW2sFMJ/yOWwXh4YcWQEqr0oZEigLK2KyDUAUtjxFj4QgU/0UZSrHjQVQpPARb6EIsZL7CHaEA+oCzQxi1bLGsS/UplMj8Y27Aga0zOY+U7/iSsY6clI+6HqK7imp5OXYSdWPQr2jGbzL5tvLi3aimLflo//+ib0Da0EdTNisvvcpEV4ie+oh0hECpASGANYGZKkABMz+beEJnLvpuUwOhtuc/fPWwsuAsWNZe+htmZLwWqBryZigt1kvI4N5YxLqeH4z/sZTdbGFG/CI/Abp29fiztUD/1tWVtUBuEsoNFJvPC2orRgw8FgOU8YqFm4tkrRkuPPSDzgWj5tVte8qFsKLJYLndxlYXEwh8Kr7WsP+fwB+zMWc79I5+XywGtKzz6GUwSUGqyEhL1W0vnzHWwyux5qc27JOe5EiiHqK7iEuOJctD3QsGT8tpl5weNFx8fwX3jvrpZcfkOjYCfy2fQaUedYgphgRDCD4GZHg9hLF24djaVvQHxWiSo4x9Ob0+TSf5t+2BX0rGPQUBQHi+aoRWKC9aEquxNxS/Tase4kAsjHopVa82lg/Rw43UmD3R8G/IqBNoxPAIWEJbmyA9Ce+Fkt/NF4unrEQvHN0ZWrSgCtQ8tznd/0QcYPygyKDQ7n5fwB6qXZIHKLD26wV4OTWTfhBO+1sONsmGFoS5YZSrrfT1CJKjNqIdnqwCuE7lSXKgfdaK/4MtEP60r7q5StqAh41AO94W6u1VxAQpd4prY2zlj/k6B6NTjl9nMTbQKg4fZEZYBBDGSzF4zlUjfiCXllsyOpCpuBzRkHrubHqIKwWym4sIDGzOMF4wYh79oLzdkHP8p2g0LBvczSooAzmQ7nysyjz8zGY+/UKWY8X1lw0MRHkEWECwhPGBQRvAbVVlbpcMnZucKV1mWzE5myWAc0C9QyljqyfwgGoNlRNyjTag/PGdcgrpkntHSgQUoVChWF+EPzBrEbujg/PIv5XJA1J//SuU/Q/QdsrJP0n+Fgsf1pe/i/oh+ai8D5ZZDOhRtQV8SuVZcIg+UErf2Xq8KzQANGwcLUO54Y6BrFZePDUH2hk4vWVz1AKGAYxuDCasBDyf8OYjfGTYXnrIPPgQWyg5BrmLwm6W40DbsGGK2pYem4oEFjRoHdscymcth4QiLkpbEL8duKhQwQg5IsW2sRdFUfgOsTUTwT6dyb4DyqWEtMCVTNzyCLCEoUCimkdKBeXt6eM4KU6gon/oPDzhb4tXwoY2X9myCX4vFWRlHD1akm0vPQpFizGq0W4b1So9hnIcQhopyAib4zRBcjPpQr1W9BbSRyJPiAng+tpmATY0P5T49qbL4sPxF4PRYcd899rS+sLh6wcfVAJgTFj4xKJvx0iOftg8+glqtZcnK9neTFBdrC6wglXUwZC78o7XzlboIAg3BxoOC8AQsHdFGtnNHddcjtnMVTV8KKwFLLSqH+ZSsJqwA5Tst7RDvhHrV1tZchbVllYq+sxz5W2czl23K/1VczgciC/ebWF5iR8+eBgUKReom/AH1YMwQumAvZ8Q8+O1wPLcF76uGU/lN4Xh+k0rRC0I6Xs+i/p+g+72D7rcq0n3IPLxNOPd5ExjQj0SeFReA71D0bGMjkb06SpOrKr6PJrQHx41Hq8JFOl1xIRJBpU9cE3xcfg78Km9NdiEgWDDL8UrQsHns7+2DTw/h8dlM5jLs+jRLcXHhXhOaP3afqjyaVf8J71lCSbA4qsrXQNhyGG2zSHWcjkwrx54gr1WEGsRTNzxiyDzyv0dLj1UtUZi1FbFZWytgCpr5HmPpa+HAt+cfL+4poGz5GhQnFKgIWVCUWwbSwLOu+OUbqi3XpV/PJHLvw84zlAE2C2TFXou2RgtXkhK7JhLPX7+xsGtbZZkW4RUie9vwmaghxQXgGuVnL61jE2EmmX+XKlBVtXnQ6YorkBAsv1uTrX5HUYAP7Kq1xtKuQfPE/+A/gkzxcLoYLH5CgHHe0Pzxakc9W5rQMmzOuER+CKEA6iku9jDQEsUwnmDOb0FciBlhR4j+rw6ZS9trHqlCtL74yBfwsODNANRJeepaGoGC2syWdnXCI4Zsfp/R0sHDifIuXaW1JYD7h38My1zcm5wfpPIlQXFCgUp9UAvsQWdLTdUpEqVdf46AT+FLg9ugWrlXE+okWWGOcMSljRT3H7WXTfLyY9SL+tEONAb3StSw4uJgcoowGcjcTCL9DrLAq97ZtFOnK65AQrD8bk2240x5CAVegsbRHXA2qwaPZlxa4iwfIiHejvOuBIWM418IzS/9X2UeIggGWTjviGP5FY1WRC1DkOspLr8EXwbN3l+iB/UWOGfh88KyzuvJBEEAE0C98AiZWEwUKfo5KPr6LyOX46rwihOUnao8QVCYLk9/YJMYxobyVIUSDJsL35gmpeM2jMIO9AUULpQQXjUiBVv1lgZeJZJfy0IfEPlVXEB5ko2kUizQWhllL1HHKy4/rxjee/IBXgwNjI+dxXb4uSAUOHYGPpF1xUfM0Pzy71QD6IVo6XLyjsx9M5F0/nr4cFSvWgjFhWNtSHj/VVWOF8IDP2wc+odbc5+/GzFneFcRCiuRz78c9dN9NvtcrnoYgAW7Eh5RHfkuCAooSksqyQdVE7gfKDcoZWVQqkRbeBCrU/gDK5OUBEIUqsoxl59FYCesPLev6yjAFCMUEya0TbkHlAcD4pUiHgIiLOwgFBdgKebJ9PNggcNaHSvtfdhepqBRY98nOlVx+T2slO0oCvhdLrb8tR8aDBpI5tBmvgj2PlxuEA7VzYUHPzdWfOwJmmVPKt+8n1/6Na6PlA58nXg/G0lk10fimQ/MJotvgwMYszIeApWAQxjFQYLhudybUWc4ldkUTeZuiyTyE+KgQpnCifytIDh5p6l91g5gboSdz0WKir0snMxeg8BZWJAQfChM1MWrbRvQBux2wr+EZRJ8ROivmRjdG1GU7gXnjSEoFA+Kkw9KgHiYdYRdMUwUNIYhyxFO/QhnOPonlr0ZS29YZzQW9cIfytYWHPvs7LVkboiNK/1H6At2ZGVryMrmGUzmsCScnS1cFUll3zkTz49B5qKJwjBemMaSlk847HUyojVJHJtEViP6Dju7szRBwV8FP5vXw/5QLpQ4XBgYDzjtcZac1WfZzeE5KptWC9G5uSsR3Y+wkU5TXL6iGFRncvmJq2jT7iKfhYyzEf+EGRy7a+KQQAhwOFW8GUJCD8h7QIimJ2XxTggZFM9MunAthB0PHXuQwjvOglWFsq0qqsDqhHKBkxkWHzPfoTzrENoFocZsiZ09xN+Il3pZWbR8QblEeOg7StDQJrxNAGsKr+dgwwL3A8JnXEMaeHj73aCqHzEOop/QR1gestdhSIk7PXyoF32I/hRthFJEuYjl4laQbx8h2jG503qfES+IwxrE+KMuyB/rB1JWvB9YUCnboc1kzscmENo1O5u5DOPfQJ8xgJ9oNd3vuZhkYUlCMaPfmHVK7eJR/e201pUI4Gj46vAr3z8n1IYzucqwLDAMKDtXC8ICYcX2OwY4bBgW0YBidw6zFluuNK4wRH18V0/t2F0hsfMn/xADexg7SknVBe9j+V7E/Xj1GUmw9aO9j7yNCRSLXFaD5bhBVV/gO1ew9rqU7arB6wU1+w5pFktnwVewOxlWNTcCfZ2CStTmX/fR0NDoUPg1jMrH2ajg19elXINqaGj0NfzqFVfxon5/jaOLo+k1NDQCBouS9+E/B7leyfldMmrlpaGhEYTS8uQ7931eDmjbySd4cRoaGn0G9lqPT6VV169VC0xbKgrzRNrnpaHRd/DtKyfytWoLIO7CIrzNraGh0fOg593Xz+2DAnE1BWJ5EVW8Y6ShodFTCMSfZVFwZ/wF4vMC4ca09aWh0VPwHbzOqSGflhv4+hVambTjXkOj68FcScFYWdapps0EVeJ7DStR1xz9rKGhYQHLQr8hU4JQTsvO9AvK7yWoaSaihoZGYAhSYXFqj+EC77+iMY2TXkJqaHQcgojJqiAqC0qQF98ewMwLWAuzG2v6mldDQ6Mm+IZckG4hi9p5iowKfg/Ar0XYEGi7dtbQ6BMEbl2tUGf7s/0chO9EWolpaAQPWEFNUlbM/dMy53sQaKYCY4SO7jSzU0OjC8A317Y3TVmBuk1h2dGsJaSd4Gdrxy8OaWh0Ovgz2FxFtULbu1ph2WE58QMKYHVLpPWhzHqqIzU0agBy3mIlZRHVVfHrO72Kpi8jnYg6Gu9OsnboV5A0ughCOSH2kRkCrVRQNsIz1LdGAXVA8FuuAZO1DD35bcStrRApPk2afJElS1gZgJiMIbSojcrIkdBWPdlXIqiXNTVp0hQgaWXlHlgzBx7YqkmTJmeCK0X7hoMBOlIrMk2amkCkqLDa0TGSLQAclPATKAdCkyZNtUnvtncWsA63LLMWh11o0tSJZDn5t+O50EqqS2H5zEipWbs4nbtro0mTW4Icw3FOygkrEK2c+hxY67NfKrnn6duh7FjMjGIbW5OmYMiSKygga8Xw1CyTP7KUIItaIdlx2mn/H3J/1qkf5HlvAAAAAElFTkSuQmCC" parent="1" vertex="1">
          <mxGeometry x="469.96" y="579.13" width="160.92" height="105.5" as="geometry" />
        </mxCell>
        <mxCell id="GsIWdPKWRebKrd8d-r1N-5" style="edgeStyle=none;rounded=0;orthogonalLoop=1;jettySize=auto;html=1;exitX=1;exitY=0.5;exitDx=0;exitDy=0;endArrow=none;endFill=0;strokeColor=#004C99;strokeWidth=2;" parent="1" source="CjMjSR9vqsGcoCLZpo86-7" target="NfwQ1fAhElnoeN3uriOs-36" edge="1">
          <mxGeometry relative="1" as="geometry" />
        </mxCell>
        <mxCell id="CjMjSR9vqsGcoCLZpo86-7" value="" style="shape=image;verticalLabelPosition=bottom;verticalAlign=top;imageAspect=0;image=data:image/png,iVBORw0KGgoAAAANSUhEUgAAAEYAAAAhCAMAAAEkBh3CAAAAAXNSR0IArs4c6QAAAARnQU1BAACxjwv8YQUAAAAzUExURQAAAACA/wB4/wB6/wB8/wB5/wB6/wB7/wB6/wB7/wB7/wB8/wB7/wB7/wB7/wB7/wB7/1kyc90AAAAQdFJOUwAQIDBAUGBwgI+fr7/P3+8jGoKKAAAACXBIWXMAAA7DAAAOwwHHb6hkAAABdElEQVQ4T82V65KCMAyFUwpUYLV5/6fdk0sFsYAD/vAbJ1vr4bRNaJZoMnpiKjCNjG/2KfwZN4r+hM8DEQZ62Mhhiv4EUZ990km8NDaqUx2HFwZoBl/e0aVfeHfK1ZkWwnvQX3DauuYVzETfiQPF6Md0IHvwASIxx00gEt0uuWg0Zm4kRJkQJk6ICw3SpCHPCRu5R3xqdoDmfqQRk8Ozy9q9167KgGNQ4+pN7rKcHHAbRkJ49eatCTwRS832wGJf1STZvYZu3l/wMrkGR1wGY2Du8KdoOomtBZg5Zlk0e3xT80meefBbUyUyt5KFffScye9alcluAHrFJQZ1mWSYz6JG6FDoplq40yQYJHkTjkpxAHaEWv2sTZtKluZRk6RFrQldeja6lU2jadfWoKNRRtqWFv+xDEmrdAllZWNv4k2G+vA8erPpZTbXbWSrz512sXTeebQktm5SsTnHD9rIvayV9GNuMMDt1Kt5Dauk3M4LjIHoHwdOMKNavHbIAAAAAElFTkSuQmCC" parent="1" vertex="1">
          <mxGeometry x="187" y="489.13" width="70" height="33" as="geometry" />
        </mxCell>
        <mxCell id="NfwQ1fAhElnoeN3uriOs-8" style="edgeStyle=orthogonalEdgeStyle;rounded=0;orthogonalLoop=1;jettySize=auto;html=1;exitX=0.5;exitY=0;exitDx=0;exitDy=0;entryX=0;entryY=0.5;entryDx=0;entryDy=0;dashed=1;strokeWidth=2;strokeColor=#99CCFF;" parent="1" source="CjMjSR9vqsGcoCLZpo86-8" target="NfwQ1fAhElnoeN3uriOs-1" edge="1">
          <mxGeometry relative="1" as="geometry">
            <mxPoint x="362" y="185" as="targetPoint" />
          </mxGeometry>
        </mxCell>
        <mxCell id="GsIWdPKWRebKrd8d-r1N-6" style="edgeStyle=none;rounded=0;orthogonalLoop=1;jettySize=auto;html=1;exitX=1;exitY=0.5;exitDx=0;exitDy=0;endArrow=none;endFill=0;strokeColor=#004C99;strokeWidth=2;" parent="1" source="CjMjSR9vqsGcoCLZpo86-8" target="NfwQ1fAhElnoeN3uriOs-37" edge="1">
          <mxGeometry relative="1" as="geometry" />
        </mxCell>
        <mxCell id="CjMjSR9vqsGcoCLZpo86-8" value="" style="shape=image;verticalLabelPosition=bottom;verticalAlign=top;imageAspect=0;image=data:image/png,iVBORw0KGgoAAAANSUhEUgAAAEYAAAAhCAMAAAEkBh3CAAAAAXNSR0IArs4c6QAAAARnQU1BAACxjwv8YQUAAAAzUExURQAAAACA/wB4/wB6/wB8/wB5/wB6/wB7/wB6/wB7/wB7/wB8/wB7/wB7/wB7/wB7/wB7/1kyc90AAAAQdFJOUwAQIDBAUGBwgI+fr7/P3+8jGoKKAAAACXBIWXMAAA7DAAAOwwHHb6hkAAABdElEQVQ4T82V65KCMAyFUwpUYLV5/6fdk0sFsYAD/vAbJ1vr4bRNaJZoMnpiKjCNjG/2KfwZN4r+hM8DEQZ62Mhhiv4EUZ990km8NDaqUx2HFwZoBl/e0aVfeHfK1ZkWwnvQX3DauuYVzETfiQPF6Md0IHvwASIxx00gEt0uuWg0Zm4kRJkQJk6ICw3SpCHPCRu5R3xqdoDmfqQRk8Ozy9q9167KgGNQ4+pN7rKcHHAbRkJ49eatCTwRS832wGJf1STZvYZu3l/wMrkGR1wGY2Du8KdoOomtBZg5Zlk0e3xT80meefBbUyUyt5KFffScye9alcluAHrFJQZ1mWSYz6JG6FDoplq40yQYJHkTjkpxAHaEWv2sTZtKluZRk6RFrQldeja6lU2jadfWoKNRRtqWFv+xDEmrdAllZWNv4k2G+vA8erPpZTbXbWSrz512sXTeebQktm5SsTnHD9rIvayV9GNuMMDt1Kt5Dauk3M4LjIHoHwdOMKNavHbIAAAAAElFTkSuQmCC" parent="1" vertex="1">
          <mxGeometry x="187" y="642.63" width="70" height="33" as="geometry" />
        </mxCell>
        <mxCell id="GsIWdPKWRebKrd8d-r1N-4" style="edgeStyle=none;rounded=0;orthogonalLoop=1;jettySize=auto;html=1;exitX=1;exitY=0.5;exitDx=0;exitDy=0;endArrow=none;endFill=0;strokeColor=#004C99;strokeWidth=2;" parent="1" source="CjMjSR9vqsGcoCLZpo86-9" target="NfwQ1fAhElnoeN3uriOs-31" edge="1">
          <mxGeometry relative="1" as="geometry" />
        </mxCell>
        <mxCell id="CjMjSR9vqsGcoCLZpo86-9" value="" style="shape=image;verticalLabelPosition=bottom;verticalAlign=top;imageAspect=0;image=data:image/png,iVBORw0KGgoAAAANSUhEUgAAAEYAAAAhCAMAAAEkBh3CAAAAAXNSR0IArs4c6QAAAARnQU1BAACxjwv8YQUAAAAzUExURQAAAACA/wB4/wB6/wB8/wB5/wB6/wB7/wB6/wB7/wB7/wB8/wB7/wB7/wB7/wB7/wB7/1kyc90AAAAQdFJOUwAQIDBAUGBwgI+fr7/P3+8jGoKKAAAACXBIWXMAAA7DAAAOwwHHb6hkAAABdElEQVQ4T82V65KCMAyFUwpUYLV5/6fdk0sFsYAD/vAbJ1vr4bRNaJZoMnpiKjCNjG/2KfwZN4r+hM8DEQZ62Mhhiv4EUZ990km8NDaqUx2HFwZoBl/e0aVfeHfK1ZkWwnvQX3DauuYVzETfiQPF6Md0IHvwASIxx00gEt0uuWg0Zm4kRJkQJk6ICw3SpCHPCRu5R3xqdoDmfqQRk8Ozy9q9167KgGNQ4+pN7rKcHHAbRkJ49eatCTwRS832wGJf1STZvYZu3l/wMrkGR1wGY2Du8KdoOomtBZg5Zlk0e3xT80meefBbUyUyt5KFffScye9alcluAHrFJQZ1mWSYz6JG6FDoplq40yQYJHkTjkpxAHaEWv2sTZtKluZRk6RFrQldeja6lU2jadfWoKNRRtqWFv+xDEmrdAllZWNv4k2G+vA8erPpZTbXbWSrz512sXTeebQktm5SsTnHD9rIvayV9GNuMMDt1Kt5Dauk3M4LjIHoHwdOMKNavHbIAAAAAElFTkSuQmCC" parent="1" vertex="1">
          <mxGeometry x="187" y="341.13" width="70" height="33" as="geometry" />
        </mxCell>
        <mxCell id="NfwQ1fAhElnoeN3uriOs-1" value="" style="shape=image;verticalLabelPosition=bottom;verticalAlign=top;imageAspect=0;aspect=fixed;image=data:image/png,iVBORw0KGgoAAAANSUhEUgAAAi8AAAB+CAMAAAGsQDGbAAAAAXNSR0IArs4c6QAAAARnQU1BAACxjwv8YQUAAAIEUExURQAAAAAAAAAAAAAAAAAAAAAAAAAAAAAAAAAAAAAAAAAAAAAAAAAAAAAAAAAAAAAAAAAAAAAAAAAAAAAAAAAAAAAAAAAAAAAAAAAAAAAAAAAAAAAAAAAAAAAAAAAAAAAAAAAAAAAAAAAAAAAAAAAAAAAAAAAAAAAAAAAAAAAAAAAAAAAAAAAAAAAAAAAAAAAAAAAAAAAAAAAAAAAAAAAAAAAAAAAAAAAAAAAAAAAAAAAAAAAAAAAAAAAAAAAAAJycnOrq6ru7u/Hx8fHx8e/v7+7u7gAAABAQEBscGiEhISkqKDExMTc4N0NDQ0ZHRVNTU1RVU2JjYmRkZHBxcHFxcHR0dH9/foKAf4KBgIKCgoiGho2NjJCQkJiXlpqXlpqampucm5ybmpycnJ2dnZ6amZ6bmp6enqCenaCenqKfnqKioqOioqSioaWioaalpaelpaioqKmlpKmqqaqop6urq6ysrK2srK2tra6urq+vr7GxsbOysrOzs7Swr7W0tLa2tre0s7i4t7i4uLm5ubq6uru6uru7u729vb+8vMHBwcLAv8XFxcbGxsfHx8nIyMnJycvJyMvLy87My87MzNHPztLS0tTU1NbV1dnY2Nzc3N3c293d3d7e3t/e3t/f3+Dg4OLi4ePi4uPj4uPj4+Tk5Obm5urq6e7u7u/v7/Hx8fLy8v///53YoPwAAABGdFJOUwABAgMEBQYHCAkKCwwNDg8QERITFBUWFxgZGhscHR4gISIjJCUmKCkqKy0uLzA0NTY3OTo7PUBBQ0RFSEtMTWJjfODw8vPxvSQ0AAAACXBIWXMAABcRAAAXEQHKJvM/AAASZklEQVR4Xu2diWPjxnXGSYmijvVaktfHHk423qzaOonTuqnbxEnaNElBSTRXNl1ti1pt3Uu92zS1eqVp4qC100g9kpabpIfVrtPYgv7Jvu+9B3BwkSABEqQ0v10KMwNg+Oabh8EAHAxqtfpCcSgXvwRulpPNVj+b822DdzQxJ4lszmVRMJvz8zNeFssGeZyfpWTj7PuOQwvP83YQ2HFa/o5PASFuzevn5w+wDLOhLT2n06Fdsbd/6B/LzmEOTEKbe6/yImaN03MIhDyKIEAfBxEhkY1SQBuT8bMRzs81MBKTymY8Ssrmbq22eaM4a7WaNhlFqNdqj6hdhWjUHtNQIZr9bF5SB2Y0LS+JbPSQ0LS8xLPRVqtgNpSLZKRpdDTjeHZcbRictkdthhzrftvv8ZJIWiPmaJp/euS4Dv2nfbh52EGiZmMwTBv96mA/x3fpnxFVEtkompYXIxtpaBRNy4uRDfPuWO1EIpvRDWHi2YxJs7apoUIs1RrXtc0owJPUUixqjpWzXK/VS9GmDO4u1eqJ+hYvTmPEM+mIbDXTjDGPUD3chWqNYT00TFRpjBhimJM0xulR2yitMbWCwX9tEGnRQ5BbcvwTkHJE/b44g405ITt26YNOKZMwhjP2Xe79odWX7z1AMlL8bqsd2IBt2SLfP9KUGMOq6WUy5XUNEynVhNzFmFOHe80d32nJ97BtbB0vJIaQBngjg+EOHCGlmk4pZz1pkh1el60LjBF81+lQOieaazhokG5MJhU48K/pVyf5I91iMqQaY/B3ZMFXNDxxBhvzb78tfE/jE2aYMlMFxlx97pMvzgIvfKBRK+ceSRlQd6ZWnxFj2JYVrbLKWazVGjc1XDmP1GvNuxqunE0yZkvDlZNqjDT9aegGEyLdGD1HJ6jamPsnGgAVG/Om0c2r2piHcJRdjVRszBlsoZ6wRks0JrxlajLQGLKE6ogN0gTdoM9em/qQ9AHUveR7OfS/ownBB6n8CXqbxh3cPsOMub+9/doAY/Y7x46PD3Ac3L3hO9lsjEdf7Hme9MPZGA/mHmBT39edTAZXE5nx8it9W5LGdOnr6ZvVmB2yQb42VEZFIavYmB3X7XYlgeCNDIY4MBli2JJSTcgRxiBr+kLfx2XScWBMCyrQl4tFSCJlshlijOkwRIoDn0IGKSNU4F8K/BYbQ5dydFmH6yg2Ff8FThbjIgwzhqzRAEhWU5fUCH2m/y+sJv3gm3kjUcbFetnJZKgxEZLKRI8m/IN5B2wMiSYKsDGihBoj6XGKGlMq6cZkohtMiDk25n3dYEKkGmMAEzQ4eebJmLdgzG9qZOIMNuZ35br/9zU6aYZV01SZOWNm6SKu8YEX9J5EtXzyuav1Wn3tSf2JpVqub87a7RmyZrHRXLYENJsNEWZheUO92aJsLGPo1NL6Mxq3KM+sL1Ej03xsZs4Gs8LWZjOfMB76NCPy67rvPJJbmPPs3+WymPBvZJOlBGFe0WWCyy3Ml+mQ4cGTSS6zMG9KY2LeIe5zeYXhe8PM9rYxMCHgsgojsshvG3L7PMZkhdFbbzvOIS/9djtICtclOc5cE2dcYTCQBkjLe19j/V85QA5h+N6ip0stISD7Xc/FGo/XUwJuX8t9UwFF5N1AB0NkBKzg4mtcCPahXEic5NChBON7zAPRgsMSjDc0w4XhYT64/4oi7wQDbwjc0O90guJhgU0NYXoYrdpzOt09/5hcpUMCYlusCoSh3Hu+y79gcJTijut2MKbecU45ZQBF2pig5RWSp6ZcHoOfEqTI7CBKx+m6TkQYB79CpHgMhQ5RTpdAwUmtQBgsIIzG/Na+6+lXtPTGeTaFGl/+6Ukwf0YNyNXGUKlwKKkwkAEHBh1AVEBKPKCyOgdcRufIEIZ2o/Vym5831F1FFUih0QDaItgacCaDKCbM9vY9luU1jUUZLgz/isGloKKZh5KU7igoHsePRIAALZyHYwWIa0iqriP4UFLIByXAv7sNoagwaIazur55G1/Sg5dG44uicQOEIvQ/Q4XBL20IyzqiQmGyyXUojQt0ZDkFTdMFDj4hKkwfTcpmBGFGZ5LCTBorTAYTFebbuu88kluYH341FZVAY1G+/p7uO4/kFiadr6kwOfrYc0ZBYVSXSf/IXgEFhDl5+32VhXnrYnlNQY+5uFhhMrDCZCDCLG3c0bhF+IU7G/glcnH18dvPfuw5i/KxH/vQ46uLdTyNsthcWVm1KCvLTcgC6rPypM5MQGqIKguLS3Z4TJ/m0iIPj1lY+rw2ORbhC0sYHNO4olFLwCMNOiMtX9OYJeDa8kJtYfW6xiwB11dJl7WZeTpyZri1Bl1uacwScOuK1SWNp3Pq8p7ebRkF3XUuyanLN7SoIzHPN6xy6vKl5JiXYTw4f0t3nkesLulYXdIprEvmisutC9rX6JCygMusiw69u6fRCJdYl2BE4vnLmmByeXWRwVMgZUzv5dXFlGX3vib2uay6YFI64dXtl1LG3M2iLkNHrIaMrYuOb+YmlyWKj9GcsC46XCwcIObs80hXYA4lixIdsTeIcXXRMassiza/sTG9eXTxWs4+LTD+DcsAKSz/bfOsFZ7TClIDQl1kVOehcyC6eBjqSut4RHOA6tSVLCUymDF1wWM3QGIaeSgxJYcu+2w0CifLACqhqyOUJZ0HVJpbsC6yGwiyoNAAXeSRgRY0HsqYugRtrsQ0ItOyB+TQBXa2nGNdaqUSbjhcGeWlv6SLbBUgxcU8PZiqh1ZoQl8XUp3Hw/p+b08u7E91RHwuYcY9jvTY4dPQ6xKODevNqYvnYty3RhSPpwDitgBFZV2MZ0gIKjuGf/vOod+i8tIh0oOXEaEunIxPW2Qib9l3u51Oi7IcfiiN3e4GjcruPX2oIj7aOacu4TKIANGFioMJXI9Q2K76TwjWUtGP6XPAwil9f8H2wYejBuFw3yzG1iU8epTEIOgculAbwK0mW24WG7r08CTBnnPo7KHYhw7Xfx8q+4EMGUf191zX3SFFXLevS5cWtM++xPxuxz3SByl6w5++KaBLRJjktWMOXajYfKwHumito9BOBw/TIBFxKqxD22KXAGeHVknxtLmIHUdMdJ8RKKKLIUzKJXUeXfD0BFnO1tMfU5cuNb6ciDgVdh9ChPDZhlYJlKAhJ/AXcwg8AaE0CDiPgRTSJRQm7U5DPl3o7IBZrClgWkvO4e6FxWVdkCYrAaVSUXktIQnMbOiiwmgkSg5d8NwNnjdK6NLGYURxOocQx6KLzmvNkJZyrAR70RLHEadmHEdh2EzMoqAueAw09dnhXLrAQHQqsDT7L0GTSSU8olOSy7rE25fZ1mX7QYYseXThVoJ7+EATAfXq+bUb8khSi3XBI3sGabp40lWZCV0yydO+HIqXQBXz+oiOH+rs0fmZS0B/oEukOHisk3cTuGtI/oJN2hxXzH1kU0ZTBlCtLmNz0HczwDrIeZrbJA6Ay6bLxMmvy+hYXdKxuqRjdUnnEujyh1rUkfgX3XkeyanLf/+JlnUE/uCHuvM8klMX/1v6WGeU3xMFfkmjUb6ju84leXVJ5x9El69p9AJRTBeR5QI+/lmOLnM9wjCdQrqE8yOeaMLFoYguP1BVCE25OIyvyxv/qZowfznPnbgUxtflj2Wy8oA/1+QLQrF29+JidUnH6pKO1SUdq0s69vmjdPh5tdUbP6dRi/DzN6DL8uNbz/+0vqLC8uKnfub5rSdWFmr1pUdvbn1EJm2wEB/ZuvkoZvRYWL567Sl9i4jlxo2nrl1dXuT5GRrLdj6PPivL+vqSmXnLzKygE3oQPNPJosWSCvuK4SwLi43P2clOLNl84XONRW1fMF/Qip0DxjKYR1ZkHqV6fXFpbf0JTbVY0nlifbW5SC0MdXdXHn3ig5pqsaTzwSevruBCoL6wtLpxw86SaRnMnZsba0vsL821zVt2ulnLYLZubYb+8pj1F8sQtp7evNIs01/+6Y23J8+3w4ciLNOlZH85/i8dCzNp3nlXv9EyVUr2l79GXd7/xQnzkPzlH/UbLVOlZH/hZytGfvfYqDwgf7lgY/nmBesvllGYAX+5f5b26tBBWH+pjMr9RSbvepA+v2YG1l8qo1p/2Q3mNDs/fziCl1l/qYwq/WU3+p7vs9SpatOw/lIZ1fnLLtV6nJweY/2lMqryl3sP2UEipM1snIr1l8qoxl9ePmMHiYBJjXGGSkxunMT6S2VU4S/3TW85O3nt1fsnZ5ifNmhz3pTNsplrf3FkhkHh9Mjt7GhYOcZEuPudTmxW6Z7neTL9cn72nTYmDy2T6fuLTgounPSvo00vGnJD5uL4C+aDjc43fkoJezyrnyb4p+wpmNRS9ovMQh3ByJc4xWx1rVF9bAjT9hed11kxeyz9S2sw8IZMSf7SFZVlBl9jbrtW+kFp1CEqT38i5z0k6PNcsEcI0TJr1nlahXrFpjF4jz0KdN0d+ouZhDF7KHKVSVBH8pfDMOUUU/mW9IKu6frLS7F+i/lOk1c1LWBAP6YUf+lBz539bjjXN6Kui/pyWmkvX8DM9VrdqDzZhGtFHU78hU8vtEzzF51cmOiH+mAPtDcRkv5ikJrIHKNYgQkcKcdjpt2+vBS5LjJew7AbWcH9mUxK8RccpiwhmhmZI1wERv3E+hQMXKOHlR3solvIwa4VI06gb4kY7i+0hZwtYIbE4QDY0WjLUvwF4W4Q4ES4meHkxzgVtQ2nZ48xE8Zl+v2X6H0X9YvdyHnqLD7ffoxS/AWSRk7uFJc6RhOTMiALDZKHSfvbqE6uL2mkCMmInYAjCHBSEloV1Ds8tdVDXbb0+/oOFYJ3RsT8hXeEWwaJPKd16A2JNipEjC7C9P2FOGGvyGL4fd5S/IWrxuypUFTqGLWQNoCP6tVzHVoLf5G3MmBTVJ7UJLKkVojObmFeSYKtuQ0QA5CD00V95/QXTKEPEzURXmt2bNGY9Nmha60O9YS4+1u0ianEX+KdW5MHOfYuxV/k+oGO00BCCkf8Be+vCEG9Urtz0HEOdxyPKkR6A6g37ChnJ65Z6uYcDvWXox6ahBb3jcEh5Wge/IPPR7R924UBmnh62I2cazKc4iAyT/h4VOQv4UulYhjX1wMox18ID/UdtDIUiPhL5FjHGkqnCxePXIYSeEts0uXmgdsjqVm8PkP3SHIqHWQ6m3jOvvois6dNncT610dezF+wzEY96hBNShJZWYjK/GV7+xX2EJMv5xzVUJq/ENzKsJLBMvCXBFRxtIpW01/ZUjxFvEY2oBqjLk6X2oe02uETD9E5PE1UvG6vsRC8UAJ/sXluf8nYSFYWokJ/MV9zCHL/fFSqv0gl4sRAC6mzjP6u1GWb31OlFYOQgqjULDLM8BfPaaMzqrUKdJc+EtfzEUei/hIhNZFAevT7kcnc+8v29r3whkzyZaHZlOIvaPK5jxi4R6AxpE27npZa7Ij07E/wHPQkkQ6P08rHLdp0fwGyTYDu0kfipr8I1l8EvrwefLslQSn+wgq25f4cn01oOfB+XVg92ILjqFV0O9F3RfUElc99FOsvORjdX8hjTobcbklQzvlIr4/IO+RaR2MUN6+yTSA6NSxUmVwZaEekVlC95GJh5Yd9ohinHt/AoW2kM+u6OBmiiWLQ3MlqzpA+0pB59Ad3lxNvVhzkLy3t5ApcVl1bhBnwl9Ept/8yTbj1QpvEyzjiG/gZmtsXzz0UTw5uwBm3WIRB/pKCri2C9Zepgt+aNTiQ2HgGiu3xDZcYWf6C6+nozZZjNDIaLsIk/OX8bNLMrb/MPRPxlylg/aUarL9YRsH6i2UUrL9YRqFkf/nnMd5lOBZ/+n/6jZapUrK/vPetr/7qb+TmV7Tymfd/WVNz8Dt/9q/6hZbpUrK/EP/zvdx8RV1F+AtNHc5//K9+l2XalO8v+Tl5Rz1FeFuTLTNMlf7yN+ooAV/SdMvsUqG/HH9f/STgb3WFZXapzl9+8PfqJn1+S1dZZpaK/OXdb/yV+kiUt+w5abapwl/eeGcwuX7BtVRCFf7y798czHd1O8vsUWF/1zKHWH+xjIL1F8soWH+xjMLWLesvlvyY/rJ58+4XNdliSeOLd8P38S2trD91+9kff+HFT3/msz9rsUT57Gc+/akXfuLZ20+tr7K/1BvNK5vXP/QjH/3485/4KYslxid+8vmPf/RHb19/7MqyvIB6obG8tv749advP3PnwxZLnDvP3H76+rX1tSZeJ6wvuG+uXrm6vr6xsWmxRNnYWH/06pXVprzenqmTyzQaSxZLOo0GOUs9cBeGohZLJuwktdr/A2Nuz68C/x89AAAAAElFTkSuQmCC" parent="1" vertex="1">
          <mxGeometry x="350" y="140" width="399.29" height="90" as="geometry" />
        </mxCell>
        <mxCell id="NfwQ1fAhElnoeN3uriOs-9" value="" style="shape=image;verticalLabelPosition=bottom;verticalAlign=top;imageAspect=0;aspect=fixed;image=data:image/png,iVBORw0KGgoAAAANSUhEUgAAAEQAAAA2CAMAAAE+IP/cAAAAAXNSR0IArs4c6QAAAARnQU1BAACxjwv8YQUAAAAzUExURQAAAEBAQEA4OEA6Ojw4OD05OT06OD05OT46OD47OT86Oj86OT05OT46OT46OT46OT46OcWKWRoAAAAQdFJOUwAQIDBAUGBwgI+fr7/P3+8jGoKKAAAACXBIWXMAAA7DAAAOwwHHb6hkAAACNElEQVRIS9WXi3aDIAyGsd51Cu//tPv/ELkVV7uuZ9t3TiWEGEIMYg2ZOmmMcdpGyV2UjOknFeLNqaDiF4JxjTFjuIVgLA6bzQHRAAlZRNV4u5pm31PNB9oMGoFmmuIKSLfhEiYnlpdtENlj4XUoNCBqZALaHDPxIsLW4sdVaGSuh808zKWNaq7Y+IXSZqrbMIgMDgZWVWpyK6zhButuKhXYYLK5NC8JX5v0JDVZqIizzc6OA4jBw2QGe9AcQmqCDIDBMS/gP5l01upzydg+SCisSItKLos5o5H7iVRrDatP5ubcIsI9caAMIOBGFV41GRnsy16UikkjVZeasJ9sg1bSBZJYPHxLCMgU63JOvbAuF+dW3+/0iWcT5e2ke++BySxTj77l0NFGE/L6ROSBCdYHRphJPUkPw096Ia+bjDt4byxbfTfKZpSzpYfhA0LN3DOU3s+23zmT3plxutPrwIf176CA5vQJ8EYOSTzg++rkXKiDfPyYk4YbFPTUfdfJbVTwufK7y8m44KSZcWNKNScpekJFmtLicFLkJMdSHeDxY/0uE1hY1eUkBSg1nX5y8C0sIStXnIiX9Fxkn4F0i4f7l07a2ffnYzmTLo8R4Msjy8vhxHQe9iUS7bdPOVEuLeetTsZNUSeddleGT6VP0bLQ+DSSxsNxH4kqKNJJr0mi4u/nxB91qF78qjnZVcHKvB5JkZM26b9tOZN88XikfyuoOVmgh3j3F+p5rGkXf2R+n7X9BB3lSKTPJ9fSAAAAAElFTkSuQmCC" parent="1" vertex="1">
          <mxGeometry x="110" y="471.12" width="68" height="54.01" as="geometry" />
        </mxCell>
        <mxCell id="NfwQ1fAhElnoeN3uriOs-10" value="" style="shape=image;verticalLabelPosition=bottom;verticalAlign=top;imageAspect=0;aspect=fixed;image=data:image/png,iVBORw0KGgoAAAANSUhEUgAAAEMAAAA2CAMAAAHc/OSlAAAAAXNSR0IArs4c6QAAAARnQU1BAACxjwv8YQUAAAAzUExURQAAAEBAQEA4OEA6Ojw4OD05OT06OD05OT46OD47OT86Oj86OT05OT46OT46OT46OT46OcWKWRoAAAAQdFJOUwAQIDBAUGBwgI+fr7/P3+8jGoKKAAAACXBIWXMAAA7DAAAOwwHHb6hkAAACH0lEQVRIS9WWi5KDIAxFEfGJVv7/azc3CRQfWNd2d2fPTAXiNcQAscYY7+gCJm23vXCh5z03QAzEqsODcod/IyyRyYUgmki09IEQSyMWuqh2qsOysVhYrI2WEU/nkKb1fjW3CZ0x9EQGDzaWOEXkRBNnShpfPQeiQds89DZfuFXLVY28aEHDUWTwolU6IDA8IrA7UNSEtGc+LKkboANiK7Eh9C14pEdyiaBD8ziSPK/gUCLo8LaXibjhpdPplYWQK0MWyU49eEA7twAlSKnVsqENi9yhGbnd4ZN9CVZ7a5akmEKrvTXXFAize9OH8A1FxXst1sMUR58UyDYz8HDvYwkTb0aqUZLKnSLMPMK5k5qZK4RUi3QZYhzIB7xaUlDlw91MITwVyi2FUIoD+cjjWH4sjpmPzFkczlrrfiCOtNKCnDQ+cAQsHMEp4o0WelBDYjw+O2W8PrgiFeVL4Lu3qQ2as+tQBUm1KoLNcnzAjqHkfcpH5fistfzo3TjaTsCS/OG7rLibj+YkH24mVcaUypzwOh+b75Cw2lIv3wUutHRGcL/XPij5WGaFBOmoRsiWb2T1UfUjM+C/FnzgoAP6z8A+bBTAiM8jWiXGUTuh5MPo/RqCgo+cQx85F310/K1qmva6D6sZ9JgfPsZBQG2ADxcFWPxSHJWA7vG7ZIJfzMcNH7t85PyHfFT08SMfMzUrLvkgnfbegw5ep/voLr39AhS3Rbl9eu31AAAAAElFTkSuQmCC" parent="1" vertex="1">
          <mxGeometry x="110" y="624.63" width="67" height="54" as="geometry" />
        </mxCell>
        <mxCell id="NfwQ1fAhElnoeN3uriOs-11" value="" style="shape=image;verticalLabelPosition=bottom;verticalAlign=top;imageAspect=0;aspect=fixed;image=data:image/png,iVBORw0KGgoAAAANSUhEUgAAAEMAAAA2CAMAAAHc/OSlAAAAAXNSR0IArs4c6QAAAARnQU1BAACxjwv8YQUAAAAzUExURQAAAEBAQEA4OEA6Ojw4OD05OT06OD05OT46OD47OT86Oj86OT05OT46OT46OT46OT46OcWKWRoAAAAQdFJOUwAQIDBAUGBwgI+fr7/P3+8jGoKKAAAACXBIWXMAAA7DAAAOwwHHb6hkAAACH0lEQVRIS9WWi5KDIAxFEfGJVv7/azc3CRQfWNd2d2fPTAXiNcQAscYY7+gCJm23vXCh5z03QAzEqsODcod/IyyRyYUgmki09IEQSyMWuqh2qsOysVhYrI2WEU/nkKb1fjW3CZ0x9EQGDzaWOEXkRBNnShpfPQeiQds89DZfuFXLVY28aEHDUWTwolU6IDA8IrA7UNSEtGc+LKkboANiK7Eh9C14pEdyiaBD8ziSPK/gUCLo8LaXibjhpdPplYWQK0MWyU49eEA7twAlSKnVsqENi9yhGbnd4ZN9CVZ7a5akmEKrvTXXFAize9OH8A1FxXst1sMUR58UyDYz8HDvYwkTb0aqUZLKnSLMPMK5k5qZK4RUi3QZYhzIB7xaUlDlw91MITwVyi2FUIoD+cjjWH4sjpmPzFkczlrrfiCOtNKCnDQ+cAQsHMEp4o0WelBDYjw+O2W8PrgiFeVL4Lu3qQ2as+tQBUm1KoLNcnzAjqHkfcpH5fistfzo3TjaTsCS/OG7rLibj+YkH24mVcaUypzwOh+b75Cw2lIv3wUutHRGcL/XPij5WGaFBOmoRsiWb2T1UfUjM+C/FnzgoAP6z8A+bBTAiM8jWiXGUTuh5MPo/RqCgo+cQx85F310/K1qmva6D6sZ9JgfPsZBQG2ADxcFWPxSHJWA7vG7ZIJfzMcNH7t85PyHfFT08SMfMzUrLvkgnfbegw5ep/voLr39AhS3Rbl9eu31AAAAAElFTkSuQmCC" parent="1" vertex="1">
          <mxGeometry x="111" y="320.13" width="67" height="54" as="geometry" />
        </mxCell>
        <mxCell id="NfwQ1fAhElnoeN3uriOs-12" value="&lt;b&gt;&lt;font style=&quot;font-size: 15px&quot;&gt;广州&lt;/font&gt;&lt;/b&gt;" style="text;html=1;resizable=0;autosize=1;align=center;verticalAlign=middle;points=[];fillColor=none;strokeColor=none;rounded=0;" parent="1" vertex="1">
          <mxGeometry x="119" y="531.13" width="50" height="20" as="geometry" />
        </mxCell>
        <mxCell id="NfwQ1fAhElnoeN3uriOs-13" value="&lt;b&gt;&lt;font style=&quot;font-size: 15px&quot;&gt;上海&lt;/font&gt;&lt;/b&gt;" style="text;html=1;resizable=0;autosize=1;align=center;verticalAlign=middle;points=[];fillColor=none;strokeColor=none;rounded=0;" parent="1" vertex="1">
          <mxGeometry x="119.5" y="381.13" width="50" height="20" as="geometry" />
        </mxCell>
        <mxCell id="NfwQ1fAhElnoeN3uriOs-14" value="&lt;b&gt;&lt;font style=&quot;font-size: 15px&quot;&gt;新西兰&lt;/font&gt;&lt;/b&gt;" style="text;html=1;resizable=0;autosize=1;align=center;verticalAlign=middle;points=[];fillColor=none;strokeColor=none;rounded=0;" parent="1" vertex="1">
          <mxGeometry x="113.5" y="684.63" width="60" height="20" as="geometry" />
        </mxCell>
        <mxCell id="GsIWdPKWRebKrd8d-r1N-23" style="edgeStyle=orthogonalEdgeStyle;rounded=0;orthogonalLoop=1;jettySize=auto;html=1;entryX=0.5;entryY=1;entryDx=0;entryDy=0;endArrow=none;endFill=0;strokeColor=#007FFF;strokeWidth=2;" parent="1" source="NfwQ1fAhElnoeN3uriOs-15" target="pmPGEmAbYdkGIdwM05D3-4" edge="1">
          <mxGeometry relative="1" as="geometry">
            <mxPoint x="550.42" y="699.0000000000001" as="targetPoint" />
          </mxGeometry>
        </mxCell>
        <mxCell id="NfwQ1fAhElnoeN3uriOs-15" value="" style="pointerEvents=1;shadow=0;dashed=0;html=1;strokeColor=none;fillColor=#505050;labelPosition=center;verticalLabelPosition=bottom;verticalAlign=top;outlineConnect=0;align=center;shape=mxgraph.office.devices.cell_phone_android_proportional;" parent="1" vertex="1">
          <mxGeometry x="253" y="765.63" width="30" height="54.71" as="geometry" />
        </mxCell>
        <mxCell id="NfwQ1fAhElnoeN3uriOs-16" value="" style="pointerEvents=1;shadow=0;dashed=0;html=1;strokeColor=none;fillColor=#505050;labelPosition=center;verticalLabelPosition=bottom;verticalAlign=top;outlineConnect=0;align=center;shape=mxgraph.office.devices.laptop;" parent="1" vertex="1">
          <mxGeometry x="178" y="771" width="75" height="43.97" as="geometry" />
        </mxCell>
        <mxCell id="NfwQ1fAhElnoeN3uriOs-17" value="&lt;b&gt;&lt;font style=&quot;font-size: 15px&quot;&gt;移动终端&lt;/font&gt;&lt;/b&gt;" style="text;html=1;resizable=0;autosize=1;align=center;verticalAlign=middle;points=[];fillColor=none;strokeColor=none;rounded=0;" parent="1" vertex="1">
          <mxGeometry x="189.5" y="828" width="80" height="20" as="geometry" />
        </mxCell>
        <mxCell id="NfwQ1fAhElnoeN3uriOs-23" value="&lt;span style=&quot;font-size: 15px&quot;&gt;&lt;b&gt;SaaS应用系统&lt;/b&gt;&lt;/span&gt;" style="text;html=1;resizable=0;autosize=1;align=center;verticalAlign=middle;points=[];fillColor=none;strokeColor=none;rounded=0;" parent="1" vertex="1">
          <mxGeometry x="800" y="569.98" width="110" height="20" as="geometry" />
        </mxCell>
        <mxCell id="NfwQ1fAhElnoeN3uriOs-24" value="" style="rounded=1;whiteSpace=wrap;html=1;opacity=60;" parent="1" vertex="1">
          <mxGeometry x="140" y="880" width="760" height="140" as="geometry" />
        </mxCell>
        <mxCell id="NfwQ1fAhElnoeN3uriOs-27" value="" style="shape=image;verticalLabelPosition=bottom;verticalAlign=top;imageAspect=0;aspect=fixed;image=data:image/png,iVBORw0KGgoAAAANSUhEUgAAAWwAAADTCAMAAAHlrekJAAAAAXNSR0IArs4c6QAAAARnQU1BAACxjwv8YQUAAAJeUExURQAAAAAAACCPz89AEN8wIP/v7++UjAAAACCXz884GN8oKAUAACCVz886FdorJQQAACCTy888GNssJPv38+eDgPGsrPjX0wMAACCWzNI5FtwtJvz19e2bmOh0cfO8vPnd2wMAACCVzdI6GNwrJfz39OuMh+ZsZ/XLyOJIQ/ri4AUAACCUzdE7F90rJ/329vbT0d87NeFGQfvo5gQAACCTzdE6GNssJvv19d83Md9EPudybgQAACCWz9I7F90tJfrh3/349vGwr/XEw/zu7O2SkfK8uQMAACCVz9I7GN0rJvfPzP339+ZoYu6gnvbHxeuMifjX1PK5tgQAACCVz9I8F90sJv749u6al+diX+RTT+uHgvzy8eNPSe2VkffJxuZfWvvn5gQAACCWztI7GN4sJfKzsP739u+invbDwuA8N+duau2PjPri4fzz8vO/vOt9eeVcV/vr6gQAACCVztM7F94sJuhqZvCppv749uE8Ne6YlP308+l5dOJKRfXEwvGkofng3+VaVOyJhfvu7edoY/fOzAMAACCVztI7GN0rJu+gnfja2P339t0tKN86NPrn5eJIQ+NWUf3y8ffU0udtaehxbd42MeFGQfO1sgQAACCVztI7F90sJvvq6f349t0tJ985NPnb2vvq6f339eFHQvClov319N0uKORUT+ZhXfnZ1/3z8udua/zy8fS9uuuIhe6bmPzx8Pzw7/ri4OdpZPS7uPzu7fnh3gQAACCVztI7GN0sJt85M+FFQONSTeVfWudrZ+l4dOuFge2RjvGrqPO4tfXEwvne3Pvq6f339hSqiXoAAAC4dFJOUwAQEBAQEB8gICAgMDAwMEBAQEBASkpMUFBQUFBXWFhbYGBgYGBkZmZqanBwcHBwdHl5eYCAgICAh4iLj4+Pj4+PkpSWnZ2fn5+fn5+kpqeoq6yvr6+vr7CxsrK0ubm5vr6/v7+/v7/AwMPDw8PDx8jLy8/Pz8/Pz8/S0tLT1dXX19jY2Nvc39/f39/f3+Hh4ePl5efp6evt7e/v7+/v7/Dw8PDw8fHx8vLz8/P09PX29vf4+fr6+vuVJ2RWAAAACXBIWXMAAA7DAAAOwwHHb6hkAAAja0lEQVR4Xu2diX8cyVWAWyMRS5a0GjmANF4OSRuOWHaASPISLC0BgiwnJARJXu6ADrIGkniRxksgEDCbSDIs4QygGSEWliPhJlyaHu+RDYSd/4p3VXdVdfU10zOSj+9na7qrq6vfvKl+VfXq8hxMyGcGThRynsjwyckwH2W5Ye9kQ46A1PhjZoS0+CfX5EA4OUz6EnylAeAfCjjZiL8hiB1AwXDXGB+YRKNL/GVX+hOO6EH6/KnoQxExbK3hLTZGphteqVFrLKro3smyHBDh12k0Fr3rI5vX8dvimQQbyWsnIoNCQiGKfAInh3IASDRBAgGRlY74k5GIgAQozkm8MPaVZhP+uuISqxQziN5E4DMmNuZAz9uR6HcoNsCnTiCqiCRxETr3PF8+NSDuHEWXmAwG+J4P8YfwD1DZoo9LmDweQKR3HN+/e7XZ/NR7KD5Hhz9Lnl/3+it0G35ZkoaTVUDAZY7O9MN/PMOofZHoGMMJCULJ32s2QZLmjeYABrkRrYQ5LJEwFmaJdCQysidBsexIxAh9YpkyIEmdTMl5EhCNDy5l+O56lNToZgSVTWOwU+MvICcR6AK9RLuNxggGnLBiMdwGXxJvEGMrOByMDx8YUKDEE/a1KxYUJNHAchF0AS7tyQETiNdoTM968/ONxiCYvVKjRFdN9cB36eMjSHTW88perQF/1gYDM6DF1sTi54dIsHeyKgfGYySSQkJZUjniD0aiIRKi4PiaHPxauqISGDMsaNRrHBMZog4HglBcRM4dnDuR2BKToABva4E/dVyx71AIGi0+IFbwD8TG6Bip1frNn2q2mi+qxH2OseXV5RRjR+1VEBuMHLPircygjYOoQeIBFMNBqHGJmKQSkkKip3KoLBBmg3QknyISEo/ES2FZYhMSVgSSolTZxA7zSWfsOBMCc9px8iikpmCdTlOPTxmBq1b1MweaZGU0AWI+Q1D2EAnMRBgdEzZZ4wthKUm/QObkk5IOWJQoBKburC5HODlRDRZJx43EYbD2Locx9FHGC2Ptq2SMD4VEEpIS51QZDilRAg14gudhJb0x3dht7JcxaAQKMttuB/dZYIJai4nBpHXsAImmmHCmDQlr9fcASSIGKXk1UMA5OVZAkBxZSCoR9qHAdoBpMxKAQWYVQWdEUtOQKwmEqeuPEQaknOCCIqgP0VkmxjhR+ODzEEkYkZD8UOKm2JKkiVzLB6YLb4ucxaQMyGXgMrRVfGqFjI7Df3+Bi3cEaxGjfIhQuicnl+QUmxotprndgsOPtSDg9m//ULN5UaJgqpT2DBz0+9AaWoJKw/oQhPT73uh6+KgpUykk44e/B6odH/zWZvPCH7U++su3PvxnrWMMlihB2vCvCn8gbT4B+qFuAkdSC+Jkg8ShlRQLx0AgaRQ6BahZU/EBiUvqklAEvpoDNOpyGKbOPIEJSt2tDYYhOc2cY+onpv+hTaiqEUmIki+AoGqfieGJhFK/bdiNI2RpdGbmmiQaIhc6Bq0Zwj851xUKSp1Simn9dQgmE/UQYKhdbuUGE5FDA7BB8U6JbMQlDcCV9muaQELSdFGO2gEdrnLooqPEU26GWk5AXvXALcE7TiW8Xc/hZBW5XleIL0eTlDSgKkISTmnuSOsqsY1hAZHlyFGz4nCtisepy0kqYVRJL8q0RCByJA6mT2lQUnIhMZjMiYfxqB0Vh8RhsiYeRpuWZNxIJAZuytLzookgqSg25ZOROEKq4LaNllSocWInbSUOr7KrfSBIOwqRELofWpSlBqp+rVRb2/fmZ2v7jRLVmyWWEN4WQUtZRcL7B0uNXa9UK49g2xhbUfMNSLdEdX6OpQg9gTaUpGX06X5on0HtHkSfLUFAaRp7U8rUnqhJNEUgkwlWhCIX1jBtjUlIVkeiBbjTxp9QVZRDxG8ahy22O22sg8ihDjZPE5BYIZDKyeo5OVG4k2Z9x7EpcTRUbtCdBnDq/oHt/BywFm23AmFOkwAgPtMrV4FBRM8m1J2omu/Gc2yios/LlXgwZ4i0TrGPoG5/hQ/DrIie/0xA4lSFmXOIja0GhM8kZXg/MyO6cKhEUgb4nJOe5JNscKrRtC9IwogE5QaqwMOYtuGTuSKJasiVfJDIRu0l6KA0kIu5WOa0Q+uHucOBXGX6tT7FJE5OzsH/IAsGbhOLe3IdqPtbW5w4+vSrXn0djxH0HVArX0Bda7+lJOVAIlDjfZ3SrpDTAdMLGMW+0cBXgOmaab/aarX+Ef0QrVffgL8Q8KHbWuJB2pj8UKWyUFnHp1RR3qo3WlnAMwbThfdfzjDt98H/j/3qceuZuy9hys1m68UX8eM8xzDSBq2Me+soer2OfyFlDckokvhFTOSbbz0Df9/3hWbz+0DuW7fut1r4Cx9xlFAn8B/Sg7RDSVH1oJUhPqP8Z6YdwzMcBX8wTttbwE4ZBRwvoF5Gg55pMFjwV3xigKTjgiMgK75flcMkJFH4YLfBDUkoiqgkO0ExCZ/sKne/loG1zUGgC9SK+OEpKfSJIXiWW2ICElQNauofkmOCk24bIzmqYxblwSC3iBwTeJ6nTRQLOy/kRKCgopA0Q6j0LwJJz0LV7TugUL8T1ILnjMo75L+5An64LgJ1myRyDJnrGVHvnpOOHERFQ8PwhA3XkBzdd1OE+7gAQj1Hut9M0NfHZOvY7CbB65fttVMupw5dlR2ipMijPrkl5afpIip7yGlm5FU4pazCD2+rNOU7EzxCXUPKOdvBkBHpZ8HD4UvLy6sbq8vXptpMKw9c+Lv0Nb24u3Y9vRlO9zvJ132VC5baLjzEXSioZr7yZhluYByimkTBNQ6GX0bLsecaDWCFXZeoBNrxQ+O97DPK2sKNJPkM7eIuxa8nlOE3md/d378OB3EE/QkFGxtK0srX2aS2GJSbIwQV2wIzC9f05EQwxrfmIN7Ppcrfwmq9lJqV82ZFjPxYb6qGNFUKMu/nKDHLyCb2xyST4GWlJ+Uvhp1wLVROAkQGxaBpDBP7gmR4nQt++duVeyx8uRVyRSGZBF/MErp/sV+jRk5meO02wTqONDZHQPTNaTiqDWI/SuiCljScOJ+WTp/eBtCQy4yUKPus8801D8WGrwIBm9grgT8GurK9xjzIO43R4BSiMZKKG8fj0jAa2IfXpOFChQIfMqHx2x0s1VDEfRRb9RcMksilRfwW8/ASzNI30HKNJOOGqy/Z20T86iEbyUZIE+A6foP9XT5pzF+HPxAyr9Sq2MdvNL8oXzfFI88ZVE7SUE2ow3S7GSrbzbT6Gm7iLaBAckS72xzIG5zN1idLlYYkkgBJkqU1RBGz23kRoB2cXW4WLI0Q77IQ94CcZcC00ZnZzCIzYHm5AFeDgsvUfGOMRJBsZO7KE6YuIXPLhim28zpX33NXYBy1bScpHabpBEbZqBVx9a79apc7w5S8aSgUd3N1PiYgetdePjrP0BjFrp0A6XZhRFINY7x9Mci4P+UOpZPU5pCjE1CuIFZ+cfT8FwFnZlE4HfNhPM5eUa3fEpBaym7e1y8PJCsJy1N7KDAekdPm6Jmbd7bz90l1AAmL0lL5H1NtGYjpeo7whNzQfUhsEJc+nSY7q8xI+wOqc8K1QxHb4RbaFoEyEjfZd8FXSECnkLxz4reRsJCkYfVupAddY8n3ab7Beih2v7/V713GfnS/AidwWe+tJqqXZyhuvb615I1uARSsEHmV1k1oKD3w+r/jPIY3m3e2t7fpm3wDdfZ/5oUXXnj5Lh41m3fh+Pd/Eo/snAJi02co9jrPjfQO+kf90dEZELsfxK77/noYG6hUuB/f81aW6ENDtWvpw676kUDN5qffpI+X/gGFvdL6SvNd97/mlWbr2yiUvkDre5977rmfpnNA7haiYvtq1MUQjTiA/+tLNLCBhzfM4OXRKh4u1IfgPkc3v3LZsPhWPUXEOGr9Cfz9zuOjVvMLrU83j15pvuf27dZ/H5PiSez/bP08fgg35HYmKvYWB6CM8I/F7ucwucLghHz44G9Z0Wa2iJaxdOQmkFG6ixS5MbPJks95wsjbvl/3MbeK2EtL3pBfrUIu9v0DjFP310ndFTg98KpL4wt8pyIUlo5M35uIkZeI/b4MYq5vhWJ3DMuqHxv5W+TIR0yBOaRydOeYjWPxven9ovktYHtDRHLB1VfNmUznpuCOkXAu7gx45y9ekHu6irTSDRe4akKY1ZOLWFgeXcUy0PgWfPFCtIjpHtJnFSligmnesU1llnw7YdWOrqG06pIt9EqdrYEJQUM+tjVj+ACBvdW5U+q7BfomjIn+KW4qiXW2yORaM8aDnDrZRNYgN8spMTXmGl9TNH3nxqbGMvgtzgp9U1LIBqye3luckbGol5HpYvd/p6jlFWI4m5KPxXRNaaQ6u3pOXH+aRWZHf28wuy2DLjVkwhw3coaqCeL9JA6dhYFeKp8Vq6ipOr4Loi+MdXpD6TRUxRdIKcYCwc9ADg+lzjBgOBBczk+NoE6erXNZdXcWN7alLQKpM79nEv9U9a2UF792TRTV8pDTU0Dl63y2WJlLOe098vx8Ha/hbySnvUbK8/zlnvxKp2O/pdDOPj4lRPR9GuWlGJH2anVS2MtZL+EHt1vgccGDd5+buLa8urGxutwTV4bMsZGz/PDtkVHFe12enMNPcdRCRuY3N9fc65XpaFUZm66MgWa4mRu1BeH4o7ThAVq9MULX2m+cvJwEmMslyHDhsowAs8dWchIxdKf95h7gY49Qw3n8+thXc/Rw6F883NuJtp670QzilOVEER1Xt2mveCAxGUzimmG7pwzpC/dCsaIsZccu+KAjcYkp56hILc8XrXBOVU6EjOPOIebk5v7+WsJCEFrukZCCoDQtM5I29DJK/KiesMUsAYXgGgXW1lDAeCNJT0DkvAhcCaaswRKH3B1FSuEi5abkrCJBxMhN7FwQ1d7L03JKhMtlq/IgUuRH7ndAjymuyOQ3XU4UIkQbSAIO6DmFVcu52iYnCpGhDSLLIofQg4rK3s60RIZ2kBQcSCuomNYbJWXXdZzrFoVsJgxNT1C31MflrDMoJbvgDRbLE0z1Q5koRy4kCRf0rE5Ky4lrhuc94g8WERSm+pN/jITJCdKakLOc9Bm9xoTdBJGyHcTD35wFXUNhoQhfLEGjp9aYHoGcMjg9uN+YL0GhuhnUvZLG7nKdsJ3qt+51DzDNthTtWFg39tfWvOsgds0rXwf5y43aPq1D502vQePHK11vjGC1qzQZTmvhRNzw4+QkO8aE0RCzma0eTwqsXS9Pgthl1DnIWd7HaUL0H5SMUfGX2MSr6oWQVJxwRTZn+9KpacQQW5kJaL7MNxZnd6dHQDRo2YxA1oCcO4sy4kysEVycj8Wel6tyWwL8PDnJhvEWrl7iSt8E5jddbK32t+jVoEW5iDOzwjl8IzyJDP7B18Ejr1EL5pMBya1lfricZEFTtXMdDAW+eYQ3C7mZpimjRsEqeqDVxfIutSHKHs7qQ2nRcvBVJnkeC+fS7CV82HeeMhRCng7sU+belR//+jzmHjjBqW98JJCJmVemRJKJg0TIXKEKMkhqU1SeHscmajmBtIX6WAo5SUNJnWHQiTw+jvmUecKSSiwsiZykQFGhWM3SNySPb5OECe9MzJhyF6LrbM5reX57pM/JYcsgJ4mImyXjqCQRoC2SbTahvJx7yynuWCkZszptAwOYn3RdAywNYy76YCBfL7OruS1nA5FtMhGLExBnC/lqxhyCiBB5SfeCMyyPhrNCyFkkV0tI5MhMbXcxx2Q+ksfEoVO+ICfZyDpZksg9NY7GAc5dM0e8ybUAvpqz/yfHghkdzZkM3Zq23BSWvzmR1Zx0PNMz8CQbJaHTC5KJ+bCqFEst46zlREhCQK8sUUAHjjen1hc9XAa75l6ROT+q1z6Um0Oy1EQG1PS4m+bgfpFUp+NpyxFISi1TcM6RkwTOGxMRdcEdC5HIlSIhMUNB6SR9qIUxgRm4KuFIJIsXlDVMSFBVunAe4eMEotNwtuUKYsndFamV3NxYczqBI9i6RvQ5TXq7IEMVrz10hxVl7bRyXU2fNJGLzKT4IDLV8NqEVUwelPAoAZHTwpww3gtIWFI3HaQ07vWV0HUu3ti+Y06R7DLcvYPS0gEHOjj/TIb5109J5B5A0qIXmQ44LILrRXTRs+nistAOHKjPKO730EnvVhYgcSGX0KeEGWScd8jIPd2HxIVGGn1KmE4OXQMJ6q7UfX/LmIXcCcqFIh8RRJ6syF02Q1WaBwwEy/F3Bhc5sWLHrdkeh9xmMIpzlw/WZwyxK7JZwVJ9qL96YM4TJypqWfyKcwqxyEsfUbst0mTHYb9BZvkMxF7CqesoKq4vUN/qV6v/h1TXK+u4okDFx1UQcC2EYMMAguTt449Is1itXp+HyKRVWuOAPpXYl4ONoqsLLL4TvMCLCUSjkLy4WwUQ6QYUSZpfxSUc/rd5bxvA86PjL8Pfl1/ANRzwvNm8j8dXfwMP5d6AqNi+/P5Do9WlUVzGAbelwLnwntdf94P1GuBU8lSM2GMxLUmSqNn8EkoNvJ3+/miz+eQHWs3mP8Hx8V/fpV0s/u3jP3H79hebz1N0uVkREbuipKhXDlYqFb9SAblGOdCfqVR5bYxx/zKc9i+tQwaKFdu5suJ5kkKWaWh+d+vJ10DR7201b/75vZfuvU67VzRJ7Put5wDVWLNK+YjYwboGvldF0eiozouB0OIfeLSCUnsQv98fwlutDTpJXFXeWP5hVXd6i/7eAbGPj49b/9d89u7dbzn+Cu0rymK/0XrxxRd/ls4RuV2I1/aSJjaH+X69XleX4RMP+U0YN3YFYXGh5Uuflrpvihjf9K/w5+i9HwRt/2Hr1eY3/v2d27d/4EdaH8Rrd5/Dv63vx78KuV1w5G02LZUhXWwyJsESIAhkcrymsg/9VShpudwxa9wiRbP5XU9/5NaVO80fhkzyufc3fxCDjt75Gmb0i/c/cevWrV+8j8dvo7iA3C5Exd7y0ZqhOKHYnHOW9GVIQMtL8PJuBXYnJKhLOdStsnZu5H7Bp1yqi43LpAAgUii2V/Vx2ZK6D58YUF2pY1xc96Pf25oZrxuZO/Qz0IHp2xYpciO3C+PyQBKVxYYMshBXP+GSp7IiES6jPYQbzWVsSFbyd0sfKoUK8Xu9JCO3hxyA0nixIyV2Z7CfgQt1OjSMSdw2SSnovhNFhYT214upA+q+KGnI6xWT/KuTIHKzjbl4TiewpMo5LJ5YOSNEkFx0fwky7s8L9EtnRs2kjWyids3uHjIuU86Ct7ITue/0YNUSllLr9pBeEqMmKPKkAe2xixd6skSddFTLGcEhptzaXl33rKblBXXeuza7Uq3piecw87tAcwErezdJlywmQ5bu/FO9WwYQkI5qe1AAhyb4A0Oj2FNxBbF2kQZNILelcA2qGB710HcWoga7yKmOXGlv7GBXCUbSO7uYtEkwOTtXu0o48CymY0zrco1Z5KD3yKuIxHfnSYSA1ble7O4Sg7kBWvRt1NAVfqZImwF1JgXPMvLszAl+mHWSXHT89umRsq2AxbD2Dp8eq1kVrdFHw2hOiYmxXFo+NfqGp+Y2dvZUOc4c7u1s9GZq+SPB8KUNU7/xHK7mHPr/mIAxc15PZh6rPB/Dbeo5ZOexxrMwZg4A7YDHCk+kLy1HH26sXrt2aWpsbHhsYmpqbm55dUPa6zHstFFfeRRwTGRU7FxLXY90Yi6yiIxw+DiDW8Ro+nBjKl/F9JLbCD3Wd8gll/XYaLsBMOEwLTun5xE5S/Q53v/EaZiZuBRV+Bnxn50i0YWAD2WKbucEDlhFMYsnPKics/PfYebpatmwi4KdB8M30QWGLVV3xVHeZxWZj2butlW90bUiTJuTj7SzlOWDjV0s5l04NR9qwpbwiNUErT6IbizvZ3LOqF1mmqD/kKCtbY50X9WIuSx/wQXx2cXM1ss9y2XGPjGFLRF3tjGqB72tixmPfgQ6eE73bQ6WukdWvb6xudiOINyV6gE37cP6dzuNJkacczCe1bkH1K9imM0s1b0yLeAUspa6j34akUZ8Jg7NJYcfBHRdJ6w0I5RNPYdEl1oplWcXd2v7+/u7a/NpqyJZbZw8PEi+LEPXKSYEVzNMINR3ycr7xG7SCyBD5tujew3dYtHbcXvJulZLtidAa6iVFuMjJiw1pNfzD1fnpsaGNXHODU9Mza3GlZtId5u7haDXQ5J1PZhhvRigtpYSL37RIdT23pyuYjfmVpUaZ92gaJ7rZBuSsr5eHmKtSaqaNcacGj/T3lq9FpBYNl4XRRXDbMmu0ECNpo31W1wjSs9ss0g32IlNmTaXns/LWuya77HYTmHgjLpYtJZy4oKl9irX3STran0akTbRWXTX6rW+xMpTB4tKtkHudfui1fTMA8R7h5axEytOuZY4LIJathU0DazsfdZ62vTs0KuaSFbs7ZeyYHVsni3TrVWekrsKelQ8mrSRuS11n6nMrZXjyfWlXpaPIe14t8zupsOz04rXrEjihLROVi/uiLZ8iYYL8+yYEk2stIEE5u52EXYXE6orNVyotr0itr0lbo3hXKdWCewbnrh07dryxs7O3iEi8gBpTpyUrA1tv1ht10re9Vo2t0qU9hYFNRryvdb2mDGH1UWaRM7qSG1tdnKaGt1OZe9uQthmGa6lvBcJ0D4Z+eGFfISeaTvrfKNE01Yy/CKbI6A+VL4skIqZnpVdm6SMSD/MWqk8DdWJMq9pXJ6cDlqGqHm+daTW2C15EHEawjapoV62frN2V0Q2ejV7UEr2zUWdBrEkVEZKvHWJAEZhcX+2PBJsgjSN9UJSNmgQLfM+LRA8XVJ+JkiCIo/QrwBXIdK8bKsDt3BC0IjBq7THjkF+Xwlj9IhIWJfom8qWoQPilW3V+kDZQUbf5JpwWZQNh6WR8iAEYgTKvKBA0B8VjtAEp1wLl/dB2VxggirpE2OX4SeEi6ayE3Y9S0G3JJn3qcnPcHJXNW4ku7q6bM4xilW2ozlDagSzMEJLXO+iHUFlwxuv72ML7E+CTiE22RW4TJkY9FsDZXPUsrLnkNWdPtw2bTaiTy3vktl2zRhADlcnnA3yvrGJubnljThlR3Rdo0oeZVPQ8OzuGumLcjYoBvNrDSPskupqg7OoXLbD1/GVwGogXFLKJo9TabA0iNFQ7ZbJ7mh7Ay03dcOQOCfRHc617wDjl92AOm0HSZeLaFBLZVDSYolyLxeBJczweK1U3kUXR2CIFkfAznBOXlMWndKYBB3v4oH967bjIAnQffWF95c5vOidzoJxvtp5qA3m2VzEpsMdMDRDUnDWHrMz9V4Bv6b9VueDdDXbbnsGbEpnujYGRxTp3ran0RU0jqJ9RRVAG10IFlpTrrhxDlZFb6cw78tpKruN3jEbrTu4KG+rNbmryEHsXJqdBpsdmhBCa0funDtXwMtu1vUKnhLuqI30hEJUbRrtkMPVdlf5Mby36aMi83IaWbvWlhvbSVI7Ov8IWGMFrm60kzqu/OVkM3UP0DykOTvzrH5izHru0oQjR3u9O9Q259nXUiCpykaWM+Vww7PVtXESpc4q24nU1qbRYds1MikbSF8dQtd1vvX/cqJ2Cy+YWgGVu9xMXIoZdpxcEdcHfXR9aHLxppt6Jk+Nc47FOBKq4rque9LxMxn0FxTAbuHmuQ0iQ2D3YmxxV11aSZTL5ZGRcj7Nm2aoRp6+s0FkYSZn5Vl7Cwq0IQMXrtzcvnPn3tG9mzeuJm8xYHUUxKM3ULpZGLaLtZCNY0aANoa9IF0PuDc7tHap1cg4cOc0SsG8mPMC7U40zYgUsi78xcRdJeP2SrCmDrjYPYt52YFule1Ba9r4wc7dKwNq/6l49L11NdJcJ9L78kBglJZ6Kaj1HHdsRDKoGolRdym+oKzNPiC5WqHbbs2UhI6+jrt7su87GrsriKsvZvNB0zSi25LAOmuew04dItmyNZO8ncnk5PTsPDA78gDZDhutjqe0rZmXDvtk8uj6dHa86TFa54AM7A1D2l14ZuD8+YEBb0BtbNkGN09l257uozVyuDgMM3vecVXnr+bd+DeJnm6O3ivsil7otsqzGF5Mq6Ujer+PftfRCkSqfcgxkL18vFC8pomHz45rnmusbsshkLWW/ZSopgvENudT6K8sLFyWHaXPFmF9G7O2HALZzMj59vYVzcZNeUgOxpfqvKsqUV+qRLZIP1XMrB3a7EyOEW2ryG6Qp1rSP1PV9azItQHvkNphv2uE+oUKiFZgyuUksrcR22Q7myXBDeeB+vrCKGlrnc8RQ9njVYhUPfCXVH4fgt+nvj7kLUHMqufN+NW0NwFjGsmOQpq+b+5WHk84ZAHsiDZ+IX2giLXtaZd4Rp6WAGmAd8gn3Mpe8eu8wzdo6IA3vK7yxtfjvrHZeAbWcVdwYKhenVFvw4p/sEXgZucxaB7XPt2opFe0c9vro+dfl6NcHKXlb1I27/BOuJQ9Wjey3wz9NlXeYN1Wdv/CVrWq9tLuH3XsUN3v0x7n43Xt2koGm6X5+YaNgT5pIxisesibX8Ld7hVfbQ68413MO94u5ubKR1ut/6KjL/6eRGv90st3Wy9QGPLqZ1+R8Ff+4MrxJyQ0tajMoOz+uh4BWJoZkigKvA8z+mW/vjA6NFTBDNpPRgJsjWlexg/qlJ8P9Ey8wj9AIpqywXJo+Twta5sZ+19ab/3Pn/7dXyC/++OfbLU++2Try/eJnwEdvwExLnz8by4+2/q5ZvP+X7aO3//8514GIPhu6zYlAPxz6wPPyKHFkTzTTQZlg1k33+5+NARWziZls8aZGf+AjUTVV9qewWJY7NFlv1LFMsAnNa/446NcZsSj+Z4gL+sDBpN71s+LHoSPvCUHyNHTrZeebD1/Ebjwtrcft1pfbh597Sufhyz6ZOtDzTdbn9SK1lDZr0uuBp62fSt35KlOMih7xme9BoxCgehS9iiWlIoD9QuNGz9VpVKl+5b8LVbuAT5ntALMrOiFRwTNP4Itdn2IX2JXjWVFbrz0H3IEXPnA8Y892Xqt+RlW3Vdfa955d+vXnuSzT73Ran2dRARCZd9vtd4ph1GSNhvPYkbg2LC9VIw5lD2uKRtuWllizF8KsjE+ruKP8xkkECa+UpcDB6HvibsLNMdrYv+BXTxufwco8q2/Aj767NPffnSEygYF/k6r9eFm8+qzZEmQpz7Z+i3U+fEryNcffQEMNPO3fxyGv9vO2klmO0sBCVlby51DdYruMiMHWkoH1usQsn6Afw+kzK34gZnBJ8XWH7U+BG406oYkwWw7fajbupvk9fty4OTzt4Ff+BU5C3mDwn894m9JckxlUTaXdSuYFUcX6hLuUjbEq2Oscfhp+g/8Kprj/ooofYGr6KPr/MP1+1WI2g8FQljTGa1rdshC82lLd4E+gTV+3FS+zoHOSc7ZdaPt51Q2UNniwLrynCxskR0YEisxTpqFgm/r4GBLWj6X8Teqr/MNaIyIJfU4fGGgjg9xg2vGIw20jB0YDX0oT2wfwoAooVekNN0r0KRYX1kYJw3FKbvLLFTD2rkTrX0e+vn0zuDYhT276O5zkFgbUYyTPTHopbLT0KrVeh42JtPEtdt7qe2jAXloBi6TsaguzSRlslNAHz5i6NQYNRXnAOyyz0/jTg5dn1X0otDqLNCHw8f3tHfQrZuDo+RxmA8GevaNVPLMTTjipnqc71KXmEZGN+sZR18V0FWhNqaLxc+sKbwOeHSk2ktHN596COwHoJuQmMaLmbnj1f3EDVFOTo6iVujoysOhXQNznnRsT7rxiwDxExEu2Ao/2n4C9ZbQmcM15ytK4w9NNrYxZyAkefdMWwI1k+RxxANPPPHEedPIutV9lKED5mHAWn4oZZsN64cBss2k1LH1/VAaCxf2Si0ZpijZuRvMdxuTyC4+dfXqjatPkXF5JIjMYMq4XaCxQZiwk+FnemTpmzIKRSTHZiD2NsTCTmHbeD889I05plrnnSc97EhDOFy+NPagb+9XAH0TMSvTXmtHNwn6Ntl7lNDXVHbQyaJakZnCj0mggEW1His8E6sd5GmTYcfqA49RHHZjt9SJS+5qyiPMRgeLpmajb8pslz5yHO6szk3k0LLn/T8hXBTwntY+iQAAAABJRU5ErkJggg==" parent="1" vertex="1">
          <mxGeometry x="740" y="440.79" width="205.61" height="119.19" as="geometry" />
        </mxCell>
        <mxCell id="NfwQ1fAhElnoeN3uriOs-29" value="" style="shape=image;verticalLabelPosition=bottom;verticalAlign=top;imageAspect=0;aspect=fixed;image=data:image/png,iVBORw0KGgoAAAANSUhEUgAAAlUAAAGGCAMAAAESnbQKAAAAAXNSR0IArs4c6QAAAARnQU1BAACxjwv8YQUAAAAzUExURQAAAEBAQEBAQEBAQEBAQEBAQEBAQEBAQEBAQEBAQEBAQEBAQEBAQEBAQEBAQEBAQEBAQCvpchgAAAAQdFJOUwAQIDBAUGBwgI+fr7/P3+8jGoKKAAAACXBIWXMAABcRAAAXEQHKJvM/AAAefklEQVR4Xu2d24KkKgxFj133rqp2/v9rj+hWkVtAERGyHmY0KNIUhhAC/kfR4P9t3P5JQLYO5DHzREIwuH8J0gLBzePdb5yuyO3PcKNJ5oHlLovYyct6jzXBirihxbFCaGbO60XaC8c0X1dWQ2Y4pCEuFsm+mfXvDY6NBORFXioumPmFVAcX4MwCLpqAeAla9r87zi3gKgkkSCCBrA1xyWU+FKitcZB+cOZg+azhtoWs6SUeOen0d8qZqechPJY3L8+CkW+Xj1eh5IXDdcwv8easpCwi5DXmESOrqHn9dJn8RMoLuXT/3CDYQJ/Xpc9wM31eogvD+Rb6vJ4R8xL/4nwLU15vCDYw5RWhYBHzEp1F95/Iq2uy2xgLNP6/gV7HiwPx/ypVPzNmFaFgIgMpry2ZtfL92zJbZLUts/5e2UjpBWtyG3rppRXQi4JzG+xkTf8NUoHfYOXSd2Q9kMggJRRL00RqCK5Gjkv8CNVVccaieHgPYXi6wa8tgYRghhaogsQwcO9Utzhdk9lw4/LXHmR/OPNmuA0nMxaxE+stfUKQAu7vwLGCI8nI1XV9YGbuq4My6wdYODYRkhd1rUi3DOxViNF2h7hgBkIDVLpguEYC8iVII/LS3/kvUmb6Tk5AafvuElSYzWNklppY6EZh1qu3GUSeCDN8cWd/rv/dfvQ341g9C2Zxuzje0kVImYkjz7ZsYZnXcLSaMYsIWUXNC5mIBrJ9zDfkNfy7lZh5CdUeKy+RzSViXq+IeT0j5hWrvn4j5oVcun+3vdmCOa/NBRO6WhQoRl5THtsz63uk/kgcbMtMykAcbqn+xf3iZH3JlncPnTZOQlHv7c9XZWa4EyaH/1zGwHCXVgiIOxvez4kyuI57IJFAQjC4XWGcDQgBt5r44BI/cNNmNAPRPo+SBPPQcgJXJUW4Tz3YNDYPZbLZvcBNO3PH04DRtFV+3giedwK5oojB9uJ9hmwfpEJ5abVhRDMAUXyknwYSD3BDx2YftxnkHtwL464OCKKCrNdkjhv3KBcyXhdiMnWcOI8Gsl2dL26PXC5kuiFXZPBP7bdXB/hIXfGGlwm+FBthZhluGoF0FcjCBa50oxsISFgJMnGDa63gspHVTWBGZIO4jyX9A2YgNbCoqAeE+4KH9UCkglQBJEnAIwWQyCCl4wpJOvDgDghG5k4fgsTg4YoygiyF6WZhbtcQdEBwVFUNoAhzIXB6bKm0YkzDmeH0OEZ7e9BNODm8VMuS4DCDUi3KgqNMizXIj2YqzGjZQn4wKMxjMvcgPxgU5jWFvkN+MChM19ngCPKDmQuDoyzKhaKIsuTUuFCUfuSB4wzKhYKgJDg5vFwoxliOyaWG84NAIWbrOItyoQgLmx2i4wqGx6sFgDDGXN4KZs8mBBPO6ZJ9wWM7TONcJAnWRm6sYA5ktMaMIXkAsj1ZDOOdHmxcMxIhstqM6vCC2I4yMZAC37gaXJ6C4Dcf9+0IHrSOW9iEJck7ge+laeLE5Mbhos3iGT1+KbHOKyL9ACSdbCAogDYaeLgLXJkOPJcCV6fBf5o6nV2kTyC4wE17o8WSLDXBYj26IEl14VnA/KYpbyekO4IHDTi0Oa4YgGw38JgeiGzgqh6IdgIPEdD9SpIQgw48QgCJG1wrgGQH8IAO33kyaa4Wkugg+44AmwV3dEAQmdnmg8AP3LOX3kLmwX807tqnspD1isxx3x7FEgHKPeHTd/2SIUH83xAZr/qDcWf8yppsF5yHgXujFwu5rl04grsjl2rDBjI9uDtysZDn+kxxf6alUiN32/VBQ1PMEM7XgByM4JIgcKsAkjUgBxu4ypNJAwq2uNfIyHH/WOJFmTZVFVlZHZ7lwtUTEK8DeTjBpS70oSgS1oE8CHCxFVw2027zT40NaxHlpw0e3cWSpgR6InjMulyM7nTlUY7Wtfz1IhSpw/EG4zkDVnsH6QOQ7ctCcUCmgMQeiPYHz+uBaAGSBCnXl8iuHogkpMqEJBV4aoc2tyW9rJCkA8/tUP0FEHdAkBLb7iIQdkCQFnOxVg6Q44GnLw0UiA4rlLEEEBxYKFMZcH5cfGvHpLdwnkVV6aXA2bGFUosxafXh9DDGcgzWA06OLpRSEBznVSocHl+oqSjiJ8RhRqUSRcFRnqWKY6VvBGWZfVSQHwvK8s7pB5R+QvzPpbKDskylCt5ibBdGm3Qs1W4xYEGMkw5jqQ7eYgCopTomkkRlUlP4f58Js1BQmKlUrBnsoCx5lqrNa30HyjIv70izTtWNtF4IRzlUFkqSb6nGKN/jf8LxB+yH8Dg+vrJQjqEgOD68VEtPg+Z3OAiUYhxB4OyAxdkyk2cW59PkBc6PAWWY6wbnhxYLJZDKMIWXHedWm34vaVwKyYGVhecvSwDRYcXC05XnzwEHEKQFz9aaEKQdEKQET+6AYALijp12RrIihXJCIoGEjrQjC2KyDUkCSFKAJwogUUBiD0R7I890Q6SB5J4UP6PHtLMAFwAI9wJPARAawSUTey2ykUOoBcQvo0Tu9Pxe4zlNm5saISag88eFKcGT3eDaVOCpJKafcS+CGgfu2Rs8zZ8pBHk3Vm6/tecvuVXnPBcqeDPfRzw9E5VOaZnW+/29k+6umjUX/3W37726uvy5+i89XFBZO9uu8+qoMJMptY7QfdHPRfw+NPXoORHxGtSSHCZQoqLEiJv5Pi+KQXN9enWTBVUXsa7942ML3EzGlwQuOzmOEUgbajHpiytm8ogo2ILViFr/p01rBTVwwTnB36Cy3TuHjDSQfD7MbSrWu2JRYEg9F8YeLO5uaMh0SR4xRyGortee+Jaj8TEnGwCh1DJ7/d7IfgGSzoBhLLPnm4FHyJzGOjVoXaTsBZ4ig5TMQWEl9nfFGoYGSMkaFHUmTTiz3u1m70bVf+Bk/n08bybz/lCrqpTWDh45k3dloZATaZcTaCPFnCsLRZyI8AmgIDQ3Wb5+UxRwInVVGTYkHsSXx+9XGZ1+fu9HVqT66ckjJg9Wzdd/ksbqNgb785gFWRum6fdXrtY5UaSnBk9fzV5vpmvK4ShtQHj3vYjdfxrdITMJ9+1XQAG2Eu23pif7cOEBxGhYAxGal8+s6JHeSRRhSft+XMfpx+Zy85t43FhdxFc+u5fvcGNZMrLaJz0cpX56XBaMfb6pI73paUEUxmuGVsL1XfI10ym41UA21bQNu3GGCzyxqsxC6mkEf5UGkn3AHSr5Dk43YNE0SKUw2+ZFVtSA8W306dyNA9Li4p4UjDqHcgcYb0rmGT4S09uEJDOmlxdJ5WNwnzi8EbhCBil1YGhbSFExvH9VvH0y+LslkLBEj6PLY5egtOghB4b18rrdj4TawF8/oxkBWlXlsU3XEWgdnDJY0aqqsMFMEJp7ZeFN0fyex25McjRaLycPWiCaqHdFGkA9TEDcAcFE3a1KoLUsyLUZmrIXVfmhTmqPnSFOR450n+eD6nwYpGofOUirB7UxMgwNcTLCb+CA+hbaZEwH6mNEGFk4HEkbcZYz6vxYJ8LRyHAd04EaGTFKmAHUyIjuhMB1jOb6u6qj5vOv+IyHEgbxVDVYjf49G8qU1kutK+4GZ7S6Usyrel18Osow5645tnAdo/WDP2wz2EGNjOgS9l2NGKwpNYBhuJBRG1FvIeB4pL+OMdcLjkfY1TegTtj3QtW3XP3ERI86DY+pHJxNDNLKQV2MTG8bzicgrhnUxATEumuUVZaqrKQAEHXSovbKUutjMUqGbAbyOlFbldJ0IJ2BvEZQAzOQT0A8U3CQthN9ERISJJAwU6d7RouwNepupElUFy5qiJm1ONUNywCQUgv4qyWsi/4Mkcg1WQ+GtSZIMYJLZGqpLUNNEeu4jUtRkVYy+EsX0OrauDi47FBb4zpVv/VauFihVHvLvJ+C/zYKuEHl8JXg0bHsMh+mo3GTRkGavjFo857wrTks++oKzu85dXwsZF1co6WBgrOqe6Min9gwVHE0LnCW7/801A76HZuXKiOf4okUTUX/Imcn6uJ3YlenM9Pu4U4psL7+dnU7eX3R5QwEfyxkLe6ON3PaqNrJm4fnNlxZ8Mn1e4yeNB04ZAxcHh/TEOPz5Dg5Cdp2fh+jS/LiYR+tqtRcXU1wB1BnlH14PQ1UV1ubrLDynLBWTLtxh1FJ02r8FbmDCmYm41RUD3IslIgV1VFyy4ruFCxVZ6kRulEosTeM++5JIP9y8NnlfSWFRVL4NKlW+0TNz+3Xqy3i8hJwT7h2uLegp13SxSwPcu6H371APn48YiRUyC4IzncowLPibly46MwYgksngs0i4+7eAJecF8dcoWGjVxpH0zq5wrIq9PWTbvY+4tReeGsb2NQC9P2YwYlNd1tNbfaS75bxUVj+oCgduyUm8aR1ZRkeRwpRtvQXp3wHzX9LRFvR7NI5oW4321NR/xBzX3i+wHoUfEF0tyXyXYK002AazezwhUbjoAlpJ8E0H7rL9ramofipfO6mzm+nvsnkcjjRDoImlb5qxOeDSbmfR7UbNMhuNWWuKyRlj8GPvmNNGevqJKv5Da/fzja0YQR1DksUhZXYfWt3Qz+IlKzRf+IEX7zWR89neAVRVAkk7AoeJZF/L6gbn2kCq/EwCSRki67Td+38ZvRuMNGDV6MpjQSKakD3ySAhU/RGhYQE4IEzebv5tEaVcMbJZ+epfNAaVdIuW/udcm5WWvcHeSLw0BnIcwQlnEj8BSZt8JmvbaX5jiBPBh47ka+TDwWcSB5Pp7kUIc8OrQuCPCF48MTgD21ur4+i8//ehy40VI3AA4I0NRXw1AfSC97H2PR4+gTEScGjw0j9/T9tEeQh8ferVxEks8FM8yaHLNU2zYD4kqC2LFtAITUxePg62n0NMVvw/kGR91vXEuymtxyrIHFFcvD49eyiY62b1AlwTXLw+C3E97E5e5vDVr5EWc0Tt7KINQ64Kj1b+kCJeDrLHAYmgesOAAXYTBw7nl7cd+CYHiWIADLcgoc6OHCRnmt1SSBbA5a91oseuKuSeQXA9/W4jIX6ud1/iWH0CO5YB6mlOt6HrndBIUa+9u28HnSFbXDVEB1f13UcviwIBRF86MLciOpaHT7ufvk8SpaAsYwvby3g3soHF4XhtFnyqKcO0eu0gf3KJfLAw6WmMlrd0rSrTCJHvx7cCGzrpXZ3XqTC/gcGurKs9souW9keg3WHkaD32VZTBVWUwNayAsaENiPhhCulCCwK3ruuLG2qkP0NlliWGnp2XJZmWda7N2O2s7x0u1nbFdmkBswNy8NmMH5YqkAtJYM/cgnSHODCJUgrFuNLiDQrpnFfsmjY4zDu2IM0C6bqLVhNzZgUlvMPN3nKUsdDHITJO+BS7bhE5kBvcFpMdYUkAwZFddrtRMIx1JV1gsVge1by9g0Y7CSbhwfJEidaQx0Dg48OKQr661fdh6v10a/xFfSu0pLRQzNMjkwkSSChKvCnSyBBQrdXyx732cAfP6P7GJAwU8nu+Sq6FY6ECb1RIaE6NMeoaoRDPFOqJ48GFTADOdAaVaWvn0DzbS5HLBDOQF4lqIIZyHs0XZZsvUCOaINB2cMA0QzklaJpdsg7nNVYI6iGCYg7tClSyKtFbVaz2wCCidoblf6aQa77lSGvGFTExDhoVofTVXd/A6qXb3RH4XQC4qpBVUwMUvXFrGIyi0J18g3jPFVaRlTeVlAZI0MfiJOJXlg9qIwJk7DigbKMGlgrZKqpwO9fj6rBRbWYqo/RXjbh4FPmtE611fSeKIMbUS84HKlqPtmF6u3sRDgaYVUFVGXViXA0MlzHGCpGnVTGdYxaVVfVVmetPqH0d081pLGy2BcXihX1VZsZO2AmlLmZljtAK6rPijtAO6iSEa4qO6iSEa4qO6iSEa4qO6iSEa4qO6iSEa4qO6iSEa4qO6iSEa4qO6iSEa4qO6iSEa4qO6iSEfW8+siOGXV+RnU1VLRSi0KNCVVjO3gWcELx5H1Urwy79iaUKZuXFjGL6xhVi990Pc8AVMiIUcII6Mkt7gKBujy5E/FEvBlFq4sQRw7vMIPqGBHhHYZ3ktGrpY9wxPEIzwT2qGGfvRDHE72welAZE72QlZUJVMbIsNRUfSv5DexQlx1BjLMJiKsGVTEBsbpwhCfjtVCq0eGivoHcrLRNX6ZF7zifgLhe7I1HtSGqH9yoSyelrRYgmYC4VlwaCZKJypuVqqnk6tDWmVbdCWq7oy1qA7IZyKsEVTAD+QCxuUdVaFsOKrtTQToDeYWgAmYgH9H2z6lWs6s6Xd/yDPKZSl9BfcdPJMzQu4FVgWZSmaI4kCKBhKrAnz5jUkR6fVaortQRjWV3OP2y6mI9VIewdSUpUiWO+f78YRg2cUaKimG/2aoi0wzb01s3Z9RfwZrqylBTjmkGXCFTTV2ZPrWCJBOmyyupK0Obsr9+AtPXtqrYy9igp6lODVctUHemLRDdSvAwlXDdguI/ZGP6Jo2HAY4rlyCtUDRnggBpLkyqvWiFZVJThEofMd9a7Euof+NA4FVTRvteUKTVYG4X/tMw+j71PQV6GgzjE0FAq7DUVWk7NplMBEHQ+2N5B4va3cP6NwZOglre4Y5CDFLbi+Ot0WfMNkNPAWF9tlevA1cEgVuNnNrMuhpNzoGVXZcjx3//Pie1HS5mOwqs3pTY0Ux7TjdV+HD++psc5CYnjsLrJK3r8iSqqXv5ghX6AjL/gffzfs0x0KhpLrfXx++P2LwjuPnj3gUS45e2GP9lEWnK00NjnZyNWkrGOgYog7hWohqvXRDxTR7TZE4B7GMbFtiy9jOiy9JZ7c7WczGmwyder2dFD4U8H+kG+zfn8Dx3kjtFzqm3vkd5vG9n6hTbDJwgP/df06R/LrTf1/0knqKsEF6Zx+P1+/l+/9qlc6b9+77fv89M3UlMXnTt6PlZ12X/vV/3KiLxGE+a68PTU+zF+8nNq2aa62u/wUT74sZVGc39G1E7uXjz935q4PpK1J5kXmzWF8shDWqGm1ZpNM88XP2HOQyZyDTHqigd/rbwycmuRY1wyzort7wnuLk3PB3ZKqklrLLOw/VMkRJfHhqegFM1qQFuWHnjXm4VTNt+3+/X6/G4325Xwe12vz+ez9/PJ7LNxg0rV5oYYeBdO3qGRbjcHnGmE/mLi/mx1Txv38+tYWjXx9ZmXelutLlyWd8htZ9H3KjGn8eGKM4vR1jmgn3XCDffzerJjscSaAsV7C2XP+usqb9HgpUz//2sa+/fFGVj7FxWaITES2fWrDPae1kd4+Ae2qbag3aouYYrVJ7POQZqjxuVz7Exv/fQEQWPCNMTtiKzTWJHUTSByyK5XaUlSE+1Of06YQY894PpCLHR2/x+mCA1W9nHXA7jx99AyaPjM0Bt5CjB48EEBPinUuzmsprG3+Hwh1uYvfDuPdr8uw7/TS8L2A06Y358Daqs1dSMv8LildC74WuNnGkqzfdv2rwdMGPEU1GdoOtb4tsR8mhwB/wcPadrUwL7t0gWsLqKjZ8Fcso2JfBsV+xkiIrXdqynbVMCvw1nOQw5Il4m7dkX13lNElb4Pf6daHxCdk/iS3DiFZrMvWAUfMZ+hUxrOD6LN8MzzhHwMWTLWVnu09ezp30zHlbsXwGd30TjMXfOLoaNeMz7lbYFhoe64vnmTdCuzwIDRTysKx4KboBuVCUM/XRoly83q9XQjarUJZkeOhpXMoHQhnq5E670yJeb1SrIRlV07G2DP9LOF1cyAZA2a8SPIOcI7WJgv1UwZKUW5aUyQTcrXi8YCrXoofhG1UE2K7MJ0PxcLv2ugI/Hs+fxuN9v1+ul+g39qEFQ4d3fAKmteou9udyfn+DPPf29X49rDZUoccHfbqOKRtU1GPy5O1PJNw3Jl7SWcBCvIIZoFNu6Lk+fUOJ6Fgb4rxmMR0kfNWxu3rZBTZsc+q7sis7p21Zz918e3lFXIAg5ENyTszata/CntNu6BsiJLHYH5/peZqCKGqnHqBo4rA+UOccXwprV31mrb/HSoX2gROYta9MXjOpzEPstFUzDJ8/q3/ppkBqnVHNRViC36cfL1i+91Kiq8lJWA7/Z/AxRvtxX55LwzJRVTw4fn4v1Mcg6dwejA45NtG37N7DN6LBybMOK0PGBSlfC+fisxJcN7xefWfef2/0Z7CW0cJSZ28Twt3zfkb+3djLsddh+nl5NyUxz85p3dXKA8X7d9k6073tlMUBmDMoqatVctnzU8N9f0jc+9AsbMt0riFyYDvlH3++7huvbVrIJ/7UfGG1/uT1p9M6F9pPiqwS3dbogieke+kWsnqO+tHYCNhhPa3isUQl7D9BXWOjZfh2kWlZM1e5ouYebU9yiciVYZ+1kYAV/CDnTCUsGhCqJHXZ+CiwCK6lzEPaNz9jtKsieOvVO1tUR1LBiRmKFPJib1PkI+X1jjQcDvjCa1TdrmQD8DZwoywu8NkUfKHN/vFrwd25vDwXwVo7c850fb+t522/t/TXIL6upIvD8mtOmzZZ92+6L21Qx+FrRay1oX0VV0zr2GvD8vO86deVpUfGorzw821W4deU59GM9VSb0LpOC0MGgX+9X2jdBmBlq/7qeMN+VV+/H476y8VqtGNAL+oz9it4UnenxiVLxtoF8TCru/GrAZ6NJv/XBPoZaDdtXMwKPbsvHxdB42OnsTagHj4Ww9Jd3PAZ/lexezQDauqKalUejYouqNujBoLtZeXR/HJpQH3Qv6GpWdKNif0KdkFM4jmZFjv547FcrZKyodSRI+qn4y/j1Qm61ZdmbiLyvzv3wmAHyGylGfxNp6XOjqhuyWRmWdZHOef5ua+2QzUqPYKCMKtZUDGUjad8hD76BqRBqJKiYVvyNUcYHyve07AOpuR52fjICysu+sJOo8R8HKTAD1IJBeRxIKDa21JkRIuBKmrkhwtTZqGJmCA00d2vEhaf4MCGTCMJampQVcR07FRgZwr0w6iBiAMgRVYwMMQ6EEU74qjhQgVlCKKvBZ0XY6qyqmCXElPGwQtBtq7NVxai4I0N7e53oAHl/DkaFCF4QXSDRAQbtz8BUAWGvC5eVewTIHSCj4w6bEqNAt1nFq/8YHXfcVGdYEQY9jwAZHWKOuaEuYLOK0SEMqythz2/ZAZkpF/dy5DsxBGRjnTHhNtcfhOHFkVWMCbfj4ElEYXGrYky4pwJfRKviRYCMCW5VTHyoVsV2FROO2656EWNADq5iTFBjQHd4sWOzK6Zi3NN8NyoQhpfXMDrENN+Vdr4zjAo9zedWZhy0x+i4jXExzeceJLK5zui4h4DCHUWEi7JhxagQVpNYEegRLsowMj5B6R4rJhhGwmdVFrHNHm9dxSzxWpVFdIE8acMsIXZQQPgwsdEsBxkzMoSqGrUQsScMKytGhlBV0/oZt/XF+1cxEt77UvludMUwlAqSlvoRV3LsHjNCeAzk5TOEsuI+kAFUS1lEIxAbXfF+s0wP9V3SZa9G+Kx4tSnTQzihVO1DfU+JTSuGdCrou3JQN3CgFUNY6gbPJtUHcvBC9VCNymQmUV8o4YFg5VCNyjy1R0TNsLaqG7JRWbY6I9wLvPFezZCNymp4Ey52nmiuF1LjOJoG2azYb1UljTteuMOlbxqyWbUcbVUfP4RHnVqKRTcrm1HGFAs5jCPX93k0K14iWBeUf9zL3KabFS+QqIgL2fv5jeFIy4zHgvVAfGZZ4OlvolUeq6s68FBU/r5x2jxj66oCGh/1ErBpEDknKOB5wbLx0S1h4ZweQ8EO3tyqXHw6v3D72kf7/WvZvCoTrza1JtzAqxfkdlUiP1491d+6xQweLoYObleFcfFqU+sDWKhlOoDbVUH49X3bfnM/dcUBfaXw8GtTWyPt/KyrDvZfnZ6GDKICKy0qGa/BoKBlR8OZuXqqqX9tlKgVOmRr4sNrnM+Jlxt9IFqYObEP1gKObT8dzctXTf37942pN7zNKwEvSD0RIU3q3zd2JLDPrNAMa6xTENSk9vEgkWt3lkRv10xcLv62lGA3r2Rgu2KVlS1hSqrjb08dEWRf9fxxwExmNA+/KRmJ3fsdT4/+khf3hnkQrKMEvyn8RQ2xNZaFLyutQ2nu/n5HiTbdZFywgTXyx1rrAC7PVQ2qI/GQ62dtOQV/L57cSUJzXd2eOhKqqZkwD5aB9vfBMTS70Fwev1tee8HnsF7FY7WYF9/f553V10aay+35/q4ZTOn8HbvvgXf0RDgtQ4CKik2bw7hqx4bFJCeLJgVidYXMoXyz2/DnHuyxZbLiOPPcDfeFZ+Uv84UHgTPhzOG0j3NE8F5ZZ52Es7SokZ/VszpMGj4na1ETN1ZaWfJ31gY1c10TfcHsxGk1lBFWW0fzeZY669o8eIiYnO/rWpJ+snN9vLbOqTME7aeW1qTzc3v+ftgtH4n27/N6XDkyUqP5uVxvtzvjw+16vfw0mWmk//77HyfRzv3A5L6BAAAAAElFTkSuQmCC;labelBorderColor=#000000;" parent="1" vertex="1">
          <mxGeometry x="469.96" y="317.38" width="153.08" height="100" as="geometry" />
        </mxCell>
        <mxCell id="NfwQ1fAhElnoeN3uriOs-30" value="" style="shape=image;verticalLabelPosition=bottom;verticalAlign=top;imageAspect=0;aspect=fixed;image=data:image/png,iVBORw0KGgoAAAANSUhEUgAAAlUAAAGGCAMAAAESnbQKAAAAAXNSR0IArs4c6QAAAARnQU1BAACxjwv8YQUAAAAzUExURQAAAEBAQEBAQEBAQEBAQEBAQEBAQEBAQEBAQEBAQEBAQEBAQEBAQEBAQEBAQEBAQEBAQCvpchgAAAAQdFJOUwAQIDBAUGBwgI+fr7/P3+8jGoKKAAAACXBIWXMAABcRAAAXEQHKJvM/AAAefklEQVR4Xu2d24KkKgxFj133rqp2/v9rj+hWkVtAERGyHmY0KNIUhhAC/kfR4P9t3P5JQLYO5DHzREIwuH8J0gLBzePdb5yuyO3PcKNJ5oHlLovYyct6jzXBirihxbFCaGbO60XaC8c0X1dWQ2Y4pCEuFsm+mfXvDY6NBORFXioumPmFVAcX4MwCLpqAeAla9r87zi3gKgkkSCCBrA1xyWU+FKitcZB+cOZg+azhtoWs6SUeOen0d8qZqechPJY3L8+CkW+Xj1eh5IXDdcwv8easpCwi5DXmESOrqHn9dJn8RMoLuXT/3CDYQJ/Xpc9wM31eogvD+Rb6vJ4R8xL/4nwLU15vCDYw5RWhYBHzEp1F95/Iq2uy2xgLNP6/gV7HiwPx/ypVPzNmFaFgIgMpry2ZtfL92zJbZLUts/5e2UjpBWtyG3rppRXQi4JzG+xkTf8NUoHfYOXSd2Q9kMggJRRL00RqCK5Gjkv8CNVVccaieHgPYXi6wa8tgYRghhaogsQwcO9Utzhdk9lw4/LXHmR/OPNmuA0nMxaxE+stfUKQAu7vwLGCI8nI1XV9YGbuq4My6wdYODYRkhd1rUi3DOxViNF2h7hgBkIDVLpguEYC8iVII/LS3/kvUmb6Tk5AafvuElSYzWNklppY6EZh1qu3GUSeCDN8cWd/rv/dfvQ341g9C2Zxuzje0kVImYkjz7ZsYZnXcLSaMYsIWUXNC5mIBrJ9zDfkNfy7lZh5CdUeKy+RzSViXq+IeT0j5hWrvn4j5oVcun+3vdmCOa/NBRO6WhQoRl5THtsz63uk/kgcbMtMykAcbqn+xf3iZH3JlncPnTZOQlHv7c9XZWa4EyaH/1zGwHCXVgiIOxvez4kyuI57IJFAQjC4XWGcDQgBt5r44BI/cNNmNAPRPo+SBPPQcgJXJUW4Tz3YNDYPZbLZvcBNO3PH04DRtFV+3giedwK5oojB9uJ9hmwfpEJ5abVhRDMAUXyknwYSD3BDx2YftxnkHtwL464OCKKCrNdkjhv3KBcyXhdiMnWcOI8Gsl2dL26PXC5kuiFXZPBP7bdXB/hIXfGGlwm+FBthZhluGoF0FcjCBa50oxsISFgJMnGDa63gspHVTWBGZIO4jyX9A2YgNbCoqAeE+4KH9UCkglQBJEnAIwWQyCCl4wpJOvDgDghG5k4fgsTg4YoygiyF6WZhbtcQdEBwVFUNoAhzIXB6bKm0YkzDmeH0OEZ7e9BNODm8VMuS4DCDUi3KgqNMizXIj2YqzGjZQn4wKMxjMvcgPxgU5jWFvkN+MChM19ngCPKDmQuDoyzKhaKIsuTUuFCUfuSB4wzKhYKgJDg5vFwoxliOyaWG84NAIWbrOItyoQgLmx2i4wqGx6sFgDDGXN4KZs8mBBPO6ZJ9wWM7TONcJAnWRm6sYA5ktMaMIXkAsj1ZDOOdHmxcMxIhstqM6vCC2I4yMZAC37gaXJ6C4Dcf9+0IHrSOW9iEJck7ge+laeLE5Mbhos3iGT1+KbHOKyL9ACSdbCAogDYaeLgLXJkOPJcCV6fBf5o6nV2kTyC4wE17o8WSLDXBYj26IEl14VnA/KYpbyekO4IHDTi0Oa4YgGw38JgeiGzgqh6IdgIPEdD9SpIQgw48QgCJG1wrgGQH8IAO33kyaa4Wkugg+44AmwV3dEAQmdnmg8AP3LOX3kLmwX807tqnspD1isxx3x7FEgHKPeHTd/2SIUH83xAZr/qDcWf8yppsF5yHgXujFwu5rl04grsjl2rDBjI9uDtysZDn+kxxf6alUiN32/VBQ1PMEM7XgByM4JIgcKsAkjUgBxu4ypNJAwq2uNfIyHH/WOJFmTZVFVlZHZ7lwtUTEK8DeTjBpS70oSgS1oE8CHCxFVw2027zT40NaxHlpw0e3cWSpgR6InjMulyM7nTlUY7Wtfz1IhSpw/EG4zkDVnsH6QOQ7ctCcUCmgMQeiPYHz+uBaAGSBCnXl8iuHogkpMqEJBV4aoc2tyW9rJCkA8/tUP0FEHdAkBLb7iIQdkCQFnOxVg6Q44GnLw0UiA4rlLEEEBxYKFMZcH5cfGvHpLdwnkVV6aXA2bGFUosxafXh9DDGcgzWA06OLpRSEBznVSocHl+oqSjiJ8RhRqUSRcFRnqWKY6VvBGWZfVSQHwvK8s7pB5R+QvzPpbKDskylCt5ibBdGm3Qs1W4xYEGMkw5jqQ7eYgCopTomkkRlUlP4f58Js1BQmKlUrBnsoCx5lqrNa30HyjIv70izTtWNtF4IRzlUFkqSb6nGKN/jf8LxB+yH8Dg+vrJQjqEgOD68VEtPg+Z3OAiUYhxB4OyAxdkyk2cW59PkBc6PAWWY6wbnhxYLJZDKMIWXHedWm34vaVwKyYGVhecvSwDRYcXC05XnzwEHEKQFz9aaEKQdEKQET+6AYALijp12RrIihXJCIoGEjrQjC2KyDUkCSFKAJwogUUBiD0R7I890Q6SB5J4UP6PHtLMAFwAI9wJPARAawSUTey2ykUOoBcQvo0Tu9Pxe4zlNm5saISag88eFKcGT3eDaVOCpJKafcS+CGgfu2Rs8zZ8pBHk3Vm6/tecvuVXnPBcqeDPfRzw9E5VOaZnW+/29k+6umjUX/3W37726uvy5+i89XFBZO9uu8+qoMJMptY7QfdHPRfw+NPXoORHxGtSSHCZQoqLEiJv5Pi+KQXN9enWTBVUXsa7942ML3EzGlwQuOzmOEUgbajHpiytm8ogo2ILViFr/p01rBTVwwTnB36Cy3TuHjDSQfD7MbSrWu2JRYEg9F8YeLO5uaMh0SR4xRyGortee+Jaj8TEnGwCh1DJ7/d7IfgGSzoBhLLPnm4FHyJzGOjVoXaTsBZ4ig5TMQWEl9nfFGoYGSMkaFHUmTTiz3u1m70bVf+Bk/n08bybz/lCrqpTWDh45k3dloZATaZcTaCPFnCsLRZyI8AmgIDQ3Wb5+UxRwInVVGTYkHsSXx+9XGZ1+fu9HVqT66ckjJg9Wzdd/ksbqNgb785gFWRum6fdXrtY5UaSnBk9fzV5vpmvK4ShtQHj3vYjdfxrdITMJ9+1XQAG2Eu23pif7cOEBxGhYAxGal8+s6JHeSRRhSft+XMfpx+Zy85t43FhdxFc+u5fvcGNZMrLaJz0cpX56XBaMfb6pI73paUEUxmuGVsL1XfI10ym41UA21bQNu3GGCzyxqsxC6mkEf5UGkn3AHSr5Dk43YNE0SKUw2+ZFVtSA8W306dyNA9Li4p4UjDqHcgcYb0rmGT4S09uEJDOmlxdJ5WNwnzi8EbhCBil1YGhbSFExvH9VvH0y+LslkLBEj6PLY5egtOghB4b18rrdj4TawF8/oxkBWlXlsU3XEWgdnDJY0aqqsMFMEJp7ZeFN0fyex25McjRaLycPWiCaqHdFGkA9TEDcAcFE3a1KoLUsyLUZmrIXVfmhTmqPnSFOR450n+eD6nwYpGofOUirB7UxMgwNcTLCb+CA+hbaZEwH6mNEGFk4HEkbcZYz6vxYJ8LRyHAd04EaGTFKmAHUyIjuhMB1jOb6u6qj5vOv+IyHEgbxVDVYjf49G8qU1kutK+4GZ7S6Usyrel18Osow5645tnAdo/WDP2wz2EGNjOgS9l2NGKwpNYBhuJBRG1FvIeB4pL+OMdcLjkfY1TegTtj3QtW3XP3ERI86DY+pHJxNDNLKQV2MTG8bzicgrhnUxATEumuUVZaqrKQAEHXSovbKUutjMUqGbAbyOlFbldJ0IJ2BvEZQAzOQT0A8U3CQthN9ERISJJAwU6d7RouwNepupElUFy5qiJm1ONUNywCQUgv4qyWsi/4Mkcg1WQ+GtSZIMYJLZGqpLUNNEeu4jUtRkVYy+EsX0OrauDi47FBb4zpVv/VauFihVHvLvJ+C/zYKuEHl8JXg0bHsMh+mo3GTRkGavjFo857wrTks++oKzu85dXwsZF1co6WBgrOqe6Min9gwVHE0LnCW7/801A76HZuXKiOf4okUTUX/Imcn6uJ3YlenM9Pu4U4psL7+dnU7eX3R5QwEfyxkLe6ON3PaqNrJm4fnNlxZ8Mn1e4yeNB04ZAxcHh/TEOPz5Dg5Cdp2fh+jS/LiYR+tqtRcXU1wB1BnlH14PQ1UV1ubrLDynLBWTLtxh1FJ02r8FbmDCmYm41RUD3IslIgV1VFyy4ruFCxVZ6kRulEosTeM++5JIP9y8NnlfSWFRVL4NKlW+0TNz+3Xqy3i8hJwT7h2uLegp13SxSwPcu6H371APn48YiRUyC4IzncowLPibly46MwYgksngs0i4+7eAJecF8dcoWGjVxpH0zq5wrIq9PWTbvY+4tReeGsb2NQC9P2YwYlNd1tNbfaS75bxUVj+oCgduyUm8aR1ZRkeRwpRtvQXp3wHzX9LRFvR7NI5oW4321NR/xBzX3i+wHoUfEF0tyXyXYK002AazezwhUbjoAlpJ8E0H7rL9ramofipfO6mzm+nvsnkcjjRDoImlb5qxOeDSbmfR7UbNMhuNWWuKyRlj8GPvmNNGevqJKv5Da/fzja0YQR1DksUhZXYfWt3Qz+IlKzRf+IEX7zWR89neAVRVAkk7AoeJZF/L6gbn2kCq/EwCSRki67Td+38ZvRuMNGDV6MpjQSKakD3ySAhU/RGhYQE4IEzebv5tEaVcMbJZ+epfNAaVdIuW/udcm5WWvcHeSLw0BnIcwQlnEj8BSZt8JmvbaX5jiBPBh47ka+TDwWcSB5Pp7kUIc8OrQuCPCF48MTgD21ur4+i8//ehy40VI3AA4I0NRXw1AfSC97H2PR4+gTEScGjw0j9/T9tEeQh8ferVxEks8FM8yaHLNU2zYD4kqC2LFtAITUxePg62n0NMVvw/kGR91vXEuymtxyrIHFFcvD49eyiY62b1AlwTXLw+C3E97E5e5vDVr5EWc0Tt7KINQ64Kj1b+kCJeDrLHAYmgesOAAXYTBw7nl7cd+CYHiWIADLcgoc6OHCRnmt1SSBbA5a91oseuKuSeQXA9/W4jIX6ud1/iWH0CO5YB6mlOt6HrndBIUa+9u28HnSFbXDVEB1f13UcviwIBRF86MLciOpaHT7ufvk8SpaAsYwvby3g3soHF4XhtFnyqKcO0eu0gf3KJfLAw6WmMlrd0rSrTCJHvx7cCGzrpXZ3XqTC/gcGurKs9souW9keg3WHkaD32VZTBVWUwNayAsaENiPhhCulCCwK3ruuLG2qkP0NlliWGnp2XJZmWda7N2O2s7x0u1nbFdmkBswNy8NmMH5YqkAtJYM/cgnSHODCJUgrFuNLiDQrpnFfsmjY4zDu2IM0C6bqLVhNzZgUlvMPN3nKUsdDHITJO+BS7bhE5kBvcFpMdYUkAwZFddrtRMIx1JV1gsVge1by9g0Y7CSbhwfJEidaQx0Dg48OKQr661fdh6v10a/xFfSu0pLRQzNMjkwkSSChKvCnSyBBQrdXyx732cAfP6P7GJAwU8nu+Sq6FY6ECb1RIaE6NMeoaoRDPFOqJ48GFTADOdAaVaWvn0DzbS5HLBDOQF4lqIIZyHs0XZZsvUCOaINB2cMA0QzklaJpdsg7nNVYI6iGCYg7tClSyKtFbVaz2wCCidoblf6aQa77lSGvGFTExDhoVofTVXd/A6qXb3RH4XQC4qpBVUwMUvXFrGIyi0J18g3jPFVaRlTeVlAZI0MfiJOJXlg9qIwJk7DigbKMGlgrZKqpwO9fj6rBRbWYqo/RXjbh4FPmtE611fSeKIMbUS84HKlqPtmF6u3sRDgaYVUFVGXViXA0MlzHGCpGnVTGdYxaVVfVVmetPqH0d081pLGy2BcXihX1VZsZO2AmlLmZljtAK6rPijtAO6iSEa4qO6iSEa4qO6iSEa4qO6iSEa4qO6iSEa4qO6iSEa4qO6iSEa4qO6iSEa4qO6iSEa4qO6iSEfW8+siOGXV+RnU1VLRSi0KNCVVjO3gWcELx5H1Urwy79iaUKZuXFjGL6xhVi990Pc8AVMiIUcII6Mkt7gKBujy5E/FEvBlFq4sQRw7vMIPqGBHhHYZ3ktGrpY9wxPEIzwT2qGGfvRDHE72welAZE72QlZUJVMbIsNRUfSv5DexQlx1BjLMJiKsGVTEBsbpwhCfjtVCq0eGivoHcrLRNX6ZF7zifgLhe7I1HtSGqH9yoSyelrRYgmYC4VlwaCZKJypuVqqnk6tDWmVbdCWq7oy1qA7IZyKsEVTAD+QCxuUdVaFsOKrtTQToDeYWgAmYgH9H2z6lWs6s6Xd/yDPKZSl9BfcdPJMzQu4FVgWZSmaI4kCKBhKrAnz5jUkR6fVaortQRjWV3OP2y6mI9VIewdSUpUiWO+f78YRg2cUaKimG/2aoi0wzb01s3Z9RfwZrqylBTjmkGXCFTTV2ZPrWCJBOmyyupK0Obsr9+AtPXtqrYy9igp6lODVctUHemLRDdSvAwlXDdguI/ZGP6Jo2HAY4rlyCtUDRnggBpLkyqvWiFZVJThEofMd9a7Euof+NA4FVTRvteUKTVYG4X/tMw+j71PQV6GgzjE0FAq7DUVWk7NplMBEHQ+2N5B4va3cP6NwZOglre4Y5CDFLbi+Ot0WfMNkNPAWF9tlevA1cEgVuNnNrMuhpNzoGVXZcjx3//Pie1HS5mOwqs3pTY0Ux7TjdV+HD++psc5CYnjsLrJK3r8iSqqXv5ghX6AjL/gffzfs0x0KhpLrfXx++P2LwjuPnj3gUS45e2GP9lEWnK00NjnZyNWkrGOgYog7hWohqvXRDxTR7TZE4B7GMbFtiy9jOiy9JZ7c7WczGmwyder2dFD4U8H+kG+zfn8Dx3kjtFzqm3vkd5vG9n6hTbDJwgP/df06R/LrTf1/0knqKsEF6Zx+P1+/l+/9qlc6b9+77fv89M3UlMXnTt6PlZ12X/vV/3KiLxGE+a68PTU+zF+8nNq2aa62u/wUT74sZVGc39G1E7uXjz935q4PpK1J5kXmzWF8shDWqGm1ZpNM88XP2HOQyZyDTHqigd/rbwycmuRY1wyzort7wnuLk3PB3ZKqklrLLOw/VMkRJfHhqegFM1qQFuWHnjXm4VTNt+3+/X6/G4325Xwe12vz+ez9/PJ7LNxg0rV5oYYeBdO3qGRbjcHnGmE/mLi/mx1Txv38+tYWjXx9ZmXelutLlyWd8htZ9H3KjGn8eGKM4vR1jmgn3XCDffzerJjscSaAsV7C2XP+usqb9HgpUz//2sa+/fFGVj7FxWaITES2fWrDPae1kd4+Ae2qbag3aouYYrVJ7POQZqjxuVz7Exv/fQEQWPCNMTtiKzTWJHUTSByyK5XaUlSE+1Of06YQY894PpCLHR2/x+mCA1W9nHXA7jx99AyaPjM0Bt5CjB48EEBPinUuzmsprG3+Hwh1uYvfDuPdr8uw7/TS8L2A06Y358Daqs1dSMv8LildC74WuNnGkqzfdv2rwdMGPEU1GdoOtb4tsR8mhwB/wcPadrUwL7t0gWsLqKjZ8Fcso2JfBsV+xkiIrXdqynbVMCvw1nOQw5Il4m7dkX13lNElb4Pf6daHxCdk/iS3DiFZrMvWAUfMZ+hUxrOD6LN8MzzhHwMWTLWVnu09ezp30zHlbsXwGd30TjMXfOLoaNeMz7lbYFhoe64vnmTdCuzwIDRTysKx4KboBuVCUM/XRoly83q9XQjarUJZkeOhpXMoHQhnq5E670yJeb1SrIRlV07G2DP9LOF1cyAZA2a8SPIOcI7WJgv1UwZKUW5aUyQTcrXi8YCrXoofhG1UE2K7MJ0PxcLv2ugI/Hs+fxuN9v1+ul+g39qEFQ4d3fAKmteou9udyfn+DPPf29X49rDZUoccHfbqOKRtU1GPy5O1PJNw3Jl7SWcBCvIIZoFNu6Lk+fUOJ6Fgb4rxmMR0kfNWxu3rZBTZsc+q7sis7p21Zz918e3lFXIAg5ENyTszata/CntNu6BsiJLHYH5/peZqCKGqnHqBo4rA+UOccXwprV31mrb/HSoX2gROYta9MXjOpzEPstFUzDJ8/q3/ppkBqnVHNRViC36cfL1i+91Kiq8lJWA7/Z/AxRvtxX55LwzJRVTw4fn4v1Mcg6dwejA45NtG37N7DN6LBybMOK0PGBSlfC+fisxJcN7xefWfef2/0Z7CW0cJSZ28Twt3zfkb+3djLsddh+nl5NyUxz85p3dXKA8X7d9k6073tlMUBmDMoqatVctnzU8N9f0jc+9AsbMt0riFyYDvlH3++7huvbVrIJ/7UfGG1/uT1p9M6F9pPiqwS3dbogieke+kWsnqO+tHYCNhhPa3isUQl7D9BXWOjZfh2kWlZM1e5ouYebU9yiciVYZ+1kYAV/CDnTCUsGhCqJHXZ+CiwCK6lzEPaNz9jtKsieOvVO1tUR1LBiRmKFPJib1PkI+X1jjQcDvjCa1TdrmQD8DZwoywu8NkUfKHN/vFrwd25vDwXwVo7c850fb+t522/t/TXIL6upIvD8mtOmzZZ92+6L21Qx+FrRay1oX0VV0zr2GvD8vO86deVpUfGorzw821W4deU59GM9VSb0LpOC0MGgX+9X2jdBmBlq/7qeMN+VV+/H476y8VqtGNAL+oz9it4UnenxiVLxtoF8TCru/GrAZ6NJv/XBPoZaDdtXMwKPbsvHxdB42OnsTagHj4Ww9Jd3PAZ/lexezQDauqKalUejYouqNujBoLtZeXR/HJpQH3Qv6GpWdKNif0KdkFM4jmZFjv547FcrZKyodSRI+qn4y/j1Qm61ZdmbiLyvzv3wmAHyGylGfxNp6XOjqhuyWRmWdZHOef5ua+2QzUqPYKCMKtZUDGUjad8hD76BqRBqJKiYVvyNUcYHyve07AOpuR52fjICysu+sJOo8R8HKTAD1IJBeRxIKDa21JkRIuBKmrkhwtTZqGJmCA00d2vEhaf4MCGTCMJampQVcR07FRgZwr0w6iBiAMgRVYwMMQ6EEU74qjhQgVlCKKvBZ0XY6qyqmCXElPGwQtBtq7NVxai4I0N7e53oAHl/DkaFCF4QXSDRAQbtz8BUAWGvC5eVewTIHSCj4w6bEqNAt1nFq/8YHXfcVGdYEQY9jwAZHWKOuaEuYLOK0SEMqythz2/ZAZkpF/dy5DsxBGRjnTHhNtcfhOHFkVWMCbfj4ElEYXGrYky4pwJfRKviRYCMCW5VTHyoVsV2FROO2656EWNADq5iTFBjQHd4sWOzK6Zi3NN8NyoQhpfXMDrENN+Vdr4zjAo9zedWZhy0x+i4jXExzeceJLK5zui4h4DCHUWEi7JhxagQVpNYEegRLsowMj5B6R4rJhhGwmdVFrHNHm9dxSzxWpVFdIE8acMsIXZQQPgwsdEsBxkzMoSqGrUQsScMKytGhlBV0/oZt/XF+1cxEt77UvludMUwlAqSlvoRV3LsHjNCeAzk5TOEsuI+kAFUS1lEIxAbXfF+s0wP9V3SZa9G+Kx4tSnTQzihVO1DfU+JTSuGdCrou3JQN3CgFUNY6gbPJtUHcvBC9VCNymQmUV8o4YFg5VCNyjy1R0TNsLaqG7JRWbY6I9wLvPFezZCNymp4Ey52nmiuF1LjOJoG2azYb1UljTteuMOlbxqyWbUcbVUfP4RHnVqKRTcrm1HGFAs5jCPX93k0K14iWBeUf9zL3KabFS+QqIgL2fv5jeFIy4zHgvVAfGZZ4OlvolUeq6s68FBU/r5x2jxj66oCGh/1ErBpEDknKOB5wbLx0S1h4ZweQ8EO3tyqXHw6v3D72kf7/WvZvCoTrza1JtzAqxfkdlUiP1491d+6xQweLoYObleFcfFqU+sDWKhlOoDbVUH49X3bfnM/dcUBfaXw8GtTWyPt/KyrDvZfnZ6GDKICKy0qGa/BoKBlR8OZuXqqqX9tlKgVOmRr4sNrnM+Jlxt9IFqYObEP1gKObT8dzctXTf37942pN7zNKwEvSD0RIU3q3zd2JLDPrNAMa6xTENSk9vEgkWt3lkRv10xcLv62lGA3r2Rgu2KVlS1hSqrjb08dEWRf9fxxwExmNA+/KRmJ3fsdT4/+khf3hnkQrKMEvyn8RQ2xNZaFLyutQ2nu/n5HiTbdZFywgTXyx1rrAC7PVQ2qI/GQ62dtOQV/L57cSUJzXd2eOhKqqZkwD5aB9vfBMTS70Fwev1tee8HnsF7FY7WYF9/f553V10aay+35/q4ZTOn8HbvvgXf0RDgtQ4CKik2bw7hqx4bFJCeLJgVidYXMoXyz2/DnHuyxZbLiOPPcDfeFZ+Uv84UHgTPhzOG0j3NE8F5ZZ52Es7SokZ/VszpMGj4na1ETN1ZaWfJ31gY1c10TfcHsxGk1lBFWW0fzeZY669o8eIiYnO/rWpJ+snN9vLbOqTME7aeW1qTzc3v+ftgtH4n27/N6XDkyUqP5uVxvtzvjw+16vfw0mWmk//77HyfRzv3A5L6BAAAAAElFTkSuQmCC" parent="1" vertex="1">
          <mxGeometry x="473.88" y="450.38" width="153.08" height="100" as="geometry" />
        </mxCell>
        <mxCell id="NfwQ1fAhElnoeN3uriOs-31" value="" style="pointerEvents=1;shadow=0;dashed=0;html=1;strokeColor=none;fillColor=#505050;labelPosition=center;verticalLabelPosition=bottom;verticalAlign=top;outlineConnect=0;align=center;shape=mxgraph.office.concepts.firewall;" parent="1" vertex="1">
          <mxGeometry x="270" y="336.13" width="47" height="43" as="geometry" />
        </mxCell>
        <mxCell id="NfwQ1fAhElnoeN3uriOs-36" value="" style="pointerEvents=1;shadow=0;dashed=0;html=1;strokeColor=none;fillColor=#505050;labelPosition=center;verticalLabelPosition=bottom;verticalAlign=top;outlineConnect=0;align=center;shape=mxgraph.office.concepts.firewall;" parent="1" vertex="1">
          <mxGeometry x="270" y="484.13" width="47" height="43" as="geometry" />
        </mxCell>
        <mxCell id="NfwQ1fAhElnoeN3uriOs-37" value="" style="pointerEvents=1;shadow=0;dashed=0;html=1;strokeColor=none;fillColor=#505050;labelPosition=center;verticalLabelPosition=bottom;verticalAlign=top;outlineConnect=0;align=center;shape=mxgraph.office.concepts.firewall;" parent="1" vertex="1">
          <mxGeometry x="270" y="637.63" width="47" height="43" as="geometry" />
        </mxCell>
        <mxCell id="GsIWdPKWRebKrd8d-r1N-1" value="&lt;p style=&quot;text-align: justify&quot;&gt;&lt;font style=&quot;font-size: 33px&quot; face=&quot;Tahoma&quot; color=&quot;#b85450&quot;&gt;MPLS&lt;/font&gt;&lt;/p&gt;" style="text;html=1;resizable=0;autosize=1;align=center;verticalAlign=middle;points=[];fillColor=none;strokeColor=none;rounded=0;" parent="1" vertex="1">
          <mxGeometry x="504.64" y="484.13" width="90" height="50" as="geometry" />
        </mxCell>
        <mxCell id="GsIWdPKWRebKrd8d-r1N-2" value="&lt;p style=&quot;text-align: justify&quot;&gt;&lt;font style=&quot;font-size: 33px&quot; face=&quot;Tahoma&quot; color=&quot;#ffd966&quot;&gt;IP-SEC&lt;/font&gt;&lt;/p&gt;" style="text;html=1;resizable=0;autosize=1;align=center;verticalAlign=middle;points=[];fillColor=none;strokeColor=none;rounded=0;" parent="1" vertex="1">
          <mxGeometry x="489.04999999999995" y="351.13" width="110" height="50" as="geometry" />
        </mxCell>
        <mxCell id="GsIWdPKWRebKrd8d-r1N-7" value="" style="shape=image;verticalLabelPosition=bottom;verticalAlign=top;imageAspect=0;aspect=fixed;image=data:image/png,iVBORw0KGgoAAAANSUhEUgAAAPwAAAD8CAMAAAETcgnDAAAAAXNSR0IArs4c6QAAAARnQU1BAACxjwv8YQUAAACTUExURQAAACAQECAYGCUVFSQYFCMWFiMYFSIXFCIYFCQXFSMYFSMXFCMYFSIXFSMYFSMXFQQAABQQECMYFSMgIDEmJDMwMD41MkNAQExDQVJQUFpSUGJgYGhgXnJwcHZvbYGAgIN9e5GLipGPj5+amaGfn62op7Gvr7q3tsC/v8jFxdDPz9bU0+Df3+Pi4u/v7/Hx8P///4t5IxcAAAAQdFJOUwAQIDBAUGBwgI+fr7/P3+8jGoKKAAAACXBIWXMAAA7DAAAOwwHHb6hkAAAaaElEQVR4XtWdh3rkrA6GN9vSM8n2elK2pG3K/V/dQdJnW4CEwfZM8r/Ps1kPCDSYJuq8iHm1f7SNx5zX7wbgpDmEVwece8T19pGQ55fwEcjlG/sKLAI/gj7CqyOSCM8f4D4QHI9K/iwh/vT94UYcB+Spk+j9T8iL/I+Pf9JnCLx59+4H+9+Ln8AuItFHAC9ALpEA3HvILUi8JYFL+P/7F/7c0P9/IUFRhCyCf/B4DF/ykf4nBwjsDwLBrUsF/ycC4S10Ao+P7ykY/5PPJLCtYxDw6UQEwpcMAr/FTYBAcIYAScRxEOSoBcAJe4AP5J8ISEjAEXQSPxmK+0oeHx+vB4Fr/R3whfsIUiU9wRlFKrwKQyI4IgKOIpPQ/iIRidD3U/6Q6EVC+gPw6mA3RVfkFfAR4JbwtujLbB/t4SkHoQm4aODTsQVnsBJXTuEveYYPww7sKfBn+AUSX0ILGN5aYMvyVgKxN9VtrvQkQN5HfbNCpYfLEMqjCPTB4SWQw5g/C8CbmhzN39ifnLglOLlA00Ax9P6fxf/x8fRn+IrUMnQC4k8fCXqiD6Y/q5F/V6Y//w1QgxRQ/uyV+L9/fPzR+/d+PRcc/B3lzgMJAEk4IP8uAnD8HQ+BUJN2On+p/fS9f8vjPYJDQJSehn940/+4psFfa+iBtyfQe5sCVMtX8DYEyKEPHuDPZ/AU37ifZicN3AfgLsAtAZ6v8LGEtgUYuFeQ2gmK1xBxobo6AiQtIEHgTSrgQUA8AZ6mEQEgYcUAD7MkaSCWxID2UZtHLiIaRQAnCIwCcQTugsMTnJ5ITZPawvBnhvuwPgL5AC8GATJu4N99hcbgAUgggoMQPFhlAbgKkLWAxOPjGQdL1EeGnY0IBiQcwosTRDqh7kE7EPLhnAOyjYHw8O4IDuI2hOsfCA5I3VOAHeAbOAl8D5/p3/FV+EMOPx+53yBYnAO+2OP/2AGeAfV4+pH+PqLNByzOAVFj2WEIpcILcXgWfuCAeH+/2OnxKwTKiCyH68LjCxBX37/6UK8DOBiNUPhBRaAJ2lSHo5FQVH7RZsE9xg0vYSj4ixc78oHdOYGAeivia2Rrh14+Dt5VAY4AQkwXvjN9hRD+VuQRmhAH5yWkQBhBBbhVxADBXQTsgfvQC1qIdRxAoAh4BSAdg0YrMHTMCa8gIJwj4EOwYxSQ9YCUA4RGkEqdEGydRt7uHq72d97gUxNpJ96kHL1ZQpbjNiUTACIlIOkBKQ/7m2vCIN0HMkw21dEB2Rxpihm0h4r/wScA8ZThuyNICnydCOAXm+MxaDdMO67TXrCeAhBKh4dDib+DoAcGj2kSuooLqRKQREAAR4iUgSxCMnCCwBgiTLYLEBugNvjjnYgjcEA+Ow0n998BfCREvo8AWQdP4f7jex6J8dwKYA9GAiA41MNLkAA3ybAWngEJIsGlqZGZNQD5Y62dgHccXp7hwUA65wQCUQT8FFnekDaAgA4vT3AWIGxwCglYP7b5UbJCIaK+AP9Ps4bEqAELuSG8sj9LX7xDpkYCkfmG8JA5/kdIuTtlw++GHN6zAw/8CQ4Xhf8uAv2X7PILNk8X/2f5wOH2Jbw0OuIdYP0yrxg+hXivxEF8ET0H5PkJNLfpuws2K4cYwnV2VBb+mhyQvp4QjEPKbEygT2AWnh3gGSBrPSSdBMOnkI7eQbgncUwU8l9usoe6Rp9Emv4P6ZL3x37Eb/rEAfX3H0x0JfqVjcg+CQJJR+HFUoJvFF4YC5+8gInhe6GR8CLM4Xb1+CkLZgNZDteZK3DLyoABJKUj6+rv/+Aa+I2hiokxgJYHuKYM+lIkWAgvrT9cU9zwMnrlbpyfnAjc8BKIgk8KL12g2PGY1mZ3mfsDPItJMeCzwHIShINHXwAhhK5CxK4kBmMM4XflU0N4CYDg3RegCCAjuOEhj9AB+cy1uAIMohCWEIeC5af5IsLR/KQ4OZkY0w2mEBLAcTwJ3QgQ4To6A7BsfvavLg3e22DlNEinF0AgDUrBu3dfIJwDAcP8JYbBZ2QL9fRjX0s7A28CYXqGwa8fPIogpKPLjMtBc8AdPBPxANoCgi4Qc/BXpwbMwTPjL33HvIR8DDwriUeSytifzZuDOO6Oo/YJgiYwTTXGgVm457BVWFFwiHceTGfLftU1FCcKauiWaydziIgm0DdmFh9+/Lq8vXt4fLi7/HP+DY42iK4Jpw358AfNkU03MZBQOenUYzUe3+r6xQACRCDiGvLCVrUgFBG11UzNcl8A0gP5HFQdaqZKqPgCacq7qddpwELpgRKPfYiBMROigt5OAFBkAhHgGw9tIDrgTgHHSV9KOYEoAdQlwFNY4LVr4iyw+iR4CWPzjgk3nzHafs9jaYto0SDrDKJZ7pak36c7RQL2d0DkTLJhKNLut6vdAOr4+KM4GLqFK/GPQPRM1BVF2r22NZ2NueonMk2MV6DboX2oJuDEQDSDN9Q0gYCKP9BBDJYnHBgIZtQtg8ZgikwhK9wClEc2HMRyEGMbCKvQ7x/q8YlwW/jRKUwbhFZAESHZr/p2o8ZduIW7Bp6Si4EqgtXjmYBER7FkV6HWtTvU66chm2rpo2a+3xMwk/eIrwfKCD/xCDwAdwZO/buVT7qgiwtAGwWUDcD7anvgTyCgAh6gd/l7yt+BPsf1jFx6dCao7melLXk10YdQNjRNdcra0QifpDWDJOL1EZktF6CO0OuK3TrBaBsT0hvawCCHz9TC4wkEiWhfwfHxV4mZgDpCLyUPvSyCeIQelv+q1StyGKC04rGHI2agjtCmJXwDCBEBL0beDj19D7pCUll7lPcsoRn6wE/QF3hxgIeAbI0nrO4lOH8nOsuCQK+GbA7qb1jEbC+GLwd1hB7IqX4eQTS2qyYoGJYIMiRiAuqIbmcKoYYyRpsTXPHkUVSvdo1CHeHV+7yLCY548iipV9aP6vSDzYMnAv5Cu3lRAHEyquS9jkbxSYc3WHbz0E1OAMqIpMfLzbx+tW8q/Vpqhxr6coevJzEgskbyGVZ8INpGVpI+Z+OZAxQRmPPQ8yhDu1/BBPVQw4j2eCplaPrGaVcPJQyUB+DANAzvmtXrGRc90IYTo6xdid9AlsoHTtP+VWE29skmLTgyQ/VHBDmp+vcV6qNBdjr9DGcBAerVD6vtOVAfjbDzyW94CKMTafdYYe2Asw8iFqwprnhupaUGjBPP8kFhQrKRDiEXIN4OaZxFAslcauMUi0Myt1dabEhewOQJzYFkcnVsgj07RFE9kWyQTqsW1+GAsvzBtEzIpnSL712h7L8ONQKq4Taf0K5JeUdaBpgvdW9B9jgk+MXdIZld7vnhrnU/nOdpFqYtayFwCWU3etQunlrk5bCNyiWMEoipmQUXVRvfwmr2CqLBm5q11P3Fl3Az3mbV4nB3gVyuZ+vN9u7eweHq6GB/b+ft6MG05djadbJgf9JG/Ra2xpbw99f3Hl5VLuLPaWY8ttQkzDgLv4PMCBilZpNLJf2upib0askMKjeMGMzYudDR/to1rdsGEmZsGwFz2sLi5o1KWmysCNPg6vly/uf6NljBd9eXf86KRse0zs8t7x/OTdv7Nh7LKKYUQWfn2VnR7L90dtAgzmrsF1+zd+USsjFtGWBu2qndkGpu3mlpBa3K3jTgNr5AfQEwCl3zaD//ArUDjdyqnDTOTffMVBbALO1Tt3GkW2aqWqBsi1zTPGdM+/g6K/NzhvfD4TowtmU03aTavlUsAfF0jBgBkOoob86rIimBRWs46V9nZPtAUgCgySIZuywzsZVON0BXTlLsZhU6jV7AKDQ/8AeLaU+bQCf744xfdFI1zn/oi4n7mUVK3UBU/s3WB35C8Zz8FBCvYNifUalvbeYvujVrf2IdMQvQORCbNwhSR38PgoDzgyk4VStkjV9U7loq/AW0KrKtMkxkiUJrR5T4UsZffX5//HVYGLU2CwbMN4DYmaTyR4mHuMGwLUEWxOMdG4pk1ZiJ+n/oFaLEuzU+es+0FcjVHpAgEbr2RaafNuo/QTgj3U0zsosNoTTQwEAzAycGohlZGRvZyma8f71ZURV+XeftU0kBxFpPvFOLgQ4GugNwYCCYMWHzHEIqdN/bz/9oC2u5xJuvH1qIvuXXE2YQy/B3xBQYFo87dNcH7frdVxf7KsrJx/yfXjhy63zFaVsDBFbo5RZRrycMIZSD+BrJ3762/EU9PhBuwZuo3uh/oYmQso8PRG7f3U+ocArEolDTQFz29aAOIj3phRDNIB6F7nhIvWrvk107C2yaQkwa6CJIPR6J2L6cvV8qcJLv04cugqoeHgkICNOqWk66T1+1PNTt4JGAAJO2M3yfBHGlbbvPV//+9jvrIBBLBBAjiDNfNTo667PuVVfhbpdKt2EI6vCJiIN3m5kFaCOimRxt4yHgQNSCSKEc9j+K2YMPTFxs4ShAGxEVfFXy8q2KcQNGBYPP1N+ccuHirKKHnrjowJGBNsLLeoRS8F0eRC8Q/oqhS4WL/oeASMSWmDZ9o82SeCDgHTCMdwVJSIM6OOAJiISGXMAZ1AW2bfUI40BWFOd8Z+mGjjVuH9VXA6rvVbO+O1PUh6QE6yO8476CZe8rj0MiJtRsAy5xEeAdQBCHkJLQIoYi15tAaTMh7ydiaP7UaO/AVD9yLiLEFP7SSE4+025UPIGbfAgy9L2q3Tky1Vt9Dd8CQ3wMcbNAEJRXHt4Gl3MInHymsp+NAjhmBuoCK6V+GNRbqdf1XioVVSZ6ooMPrIz9QN5fwSMAfUR13iv13csZBrqS8/hAGEYKfAJQF7BfvqM+23yPcUw3yg6PLKF38A+IbEAVvcMW9Zat//1iqPF2QDDMOShr0y75lqXhqNeEgHgy6K+N0s3Onq3eGDrPVS8RE2qS0Wn1jGiWU68med5q9crMzpM/U70yuaCNeKnHl3rFKCu8M9VLrAy0EdHuAPPut4556rW5BW1EPLiHv4CAi6AvM4/VO2UvgKALMFS6gCr4NLuHRwICHQg8myjt2taihV08EulBUKvna+Z9bGbHBT9eM4XEwFhpG+VjojwbYuoZTYhE/Pt7il3orfy8CtUlRU9ukXr99hdYtxsDmghZ08cHom0ZAWMtfKpDv3vZPjv5WBC6WnyqQ8/qs/Yo85tW6qeohx6im1fERwZSVUxQr1cUu1lV/fZblu8mqIcWBtonJ79dvZ7VGxYU4MA0LCO1q9dzmsO28Wg/PiQraFYfLaZBNwEXRu0OwtV8Bml3VJTtgQYGE8pMtF8EsgHEbZCrx4MBIksWsqFZgBsz7NdAeINJ6hE/E+9ejzZkQnpp9dEqNvR2wFWA/LLqo0006db9aF9k9/oR3iD1uhlXj7gFaB2Au4DSj/AGqRf9jIOHxBWdGsm37zWuoP+ESQFSmyYjWr+2ti/EuyMRainiPYzm+QX4CVO3qdnEe7fsnVPxXjV3SW0C2sQJQF9K/Ppn7xbrSbS7R0fgD5bSn2j3T+vEpX+h9x91c4U9U4Fko+QS5S8udW7GC+nxC8QxnXTH6siZIUj1zNy6le4dHz20AbmeOQUwKXQjexUFSA4grnbUuoFQdVgBsgON5zBBlvTafdqQVkwoAfkm5eqDGpDXNO7bzN5702El60RIwxcwlNeUugHz+FXdNYsP+WsPNJ5FdQ4DjR4RsBIe7IvmE4pJ+z/gv4NrM92BSbf5xv1vxI90Fub23FMdmHhMsOIo2Cfv3PFA+4vvKbyAWiYmXbBvda5n9h3OFTngMuO9D0z9Aqtp585zpnyBRVLeYdxHUGT5y6zrX8FqTeeha44HHq3j7HnPS+9OBGK14In7Am920h5xtb+9eG4vytarN9u7h5YhoTja39t5vVR9fXq23njH5cc42F34IPcGeb0zls2V7O/8l4rC1vbEvC6xv9ambBFe7y6T2w6Hz7UQbL1eQ35b7D+zF7C1s4Ax3MLBLMt5ObbWW9J9Djd6uYzB1hK3Mszg6VrBTVXyMjNv9JjE20UK+/igvIbDjTaBtbf9xHz6cfbrujwpdvnn/EdhbsRnU/m/1XrX2Zez6/ZD1Ne/yr+7k7OB+r/dUNw/fLuce3T87lfxApmY9Rb/rdKANuLD+cyFj4hL9/qalLUNql9VWjLfqi+DaSJdhXJY8vfXeuqa929LZnhOVSU4XHpio+Zqry8L34/gkN7bYrDoTFqFHbfmLI+pqAFLTYSMz13+b8H7QCq5HasAi+T+q7G6/q1xNXExxvJ/9l16Y0n/sJl67jFS/2e1/GO/PGlfKrdRRor/dLO3XNmfONMHinbwxKpfzvZPT1XTLezlcTByhZdJMdu/PH15j9HXlqQ0Z34x259d0on4yq6YtswvZfuzKvCaQtPfkvkFi+7ZNHMWhaavdrRfKvIbOBo0B3tXElO3Je2lb9fU/+LvVO5v/l5c/Pz5/fT04nd+KUcF9qWtRM3FoYV9EOss8VenzuUxX0+Nc2sF/Mwf36vij13Xlu33P80j4RHGTzi6+Jk/MtTz076mbL+qvi3oo/ETrjYPrslbbPbctH+Yku33V9/jPP15Ax9w33g51sfaGuDO+RXW+Ny0+9dLuXhZOpy/uhkv7TmV5d+1+NzUu6ZN3e5XxT3OwdlwMz4p6YR/L6Ym3fLf45g72QXJHc3VvZh04mbabXCgqg/MN58DM/VuH9c6Ez05T6uhXxgdx2v2jB7P/QGC1rTPPgxfQ03L7zX6xkkzbzGmNe3+D9AtSvY7lgZeyc8sXa+hb027c3Ps8tT80KKX+qS7N3+DINDc1i1x1V4dc1IfVfstZxmuuY9b7Ka/CmosHqe/j6q9U+jbfnSVwRfbBCdQWcSZ4VDnjpxzLR/a52yMe5fWR5W15zT5w2Kms9eissLfX/29+Pn988f3BL7XRqjKeqfa9wv5znGW8Wvh771B+IZIxkk25m8vDlnvdPHlQn//e6O5bFI3yLW3fKGzd7q5YsZfbKo7LxJdSOXitPjS3Tlztf4IvnUYvlZOxt+A3eZJrbf7eDfjZ97UvA7o5soCdtZzX++Uei/jk1t/c2zb4yY3/U4u1OAsqUdmJKUpr6K9Z9d6GtvaUxjOEfZ/43XdNbyioe5J3ljpy9m8SAo/vGBc/N9hL2SSoWO39fbqRM3lcQWrcxjx2e30MBr2IyncGez88og3n3vodvJmP1c1VC8kvkt9PxnRFeTvcOgNxKo3mOMEcwydLWfyyrTqSz/2UeRrn9Fc87u0R7NdcpOh/3q/9lcd5pdlDzg9v72It+1UebOtn9PD4atztuEbJs2XNFmllGHurtjk2va+3d7vOAM6q8rPmp+CHc5xSOHMii+Xh1LKEEep3Dt5b1f6PWdQY41pSpkyDqdYkia9cjbFy4WjOBki1aV8Tbo52rEnsvejH94YsPZTIvZpyGy7DAekaKajX+mqSgMGzNiPjCms2T27xTt07DvDxJnc3AVOJL1dtkq5j+/7lgtMC6W+swzGFgXMrEeyYlbmBSnmLTm1Vd7tpe6HegOZoQDDQO3TXhOJh2Xr2jZefeJrJ2mc7x2PhoY1p39/r9DzPd4PBboqEof4+l/BTPzKvprGtOwrx+/G974ffhmkJ1tyu9HxW5FcVba4RuLtOn/kWLdWgze6AifI966pJJ/7bunmNHmz9ZHkdAVJYbf2B85o3urqKsv9nO/dMyMSa4Bjb9Lbc4wc80rgsnXR8dSJt6q8beHtOra9vRuhyr594sSbEzv27P2289v0zpWANYtRT5v49LJ1wZ7IemPfhOYuUFak/kkTbw/pnW0aL7z5S2+Vbnw64ykT72xZsQ+k0HZke0eGfxXmWOb/viKK485xJkVi/JCaYJd6Wqh2Fur8hflnOH3LuHPYTqnniXt7XFfcfTYzX9eAMSHaY+/Kk9NHzk6k8p4MYyr6CeEflPJwMh6r1PaodvwC3GewWheIpv8t7Izv9ic4G/Dq9tb/rdg2vC4+n1as0zr7kPt9OVOz/j+B3dQPxy2dWj/t3t1nhr1ao/fgOvuR1nioJBof12ysmohT6PU5W2/r6foOUm0o8XfOZTTR5mtnjX591X5DiXfOnCRHbJ2CP2EzWh2bSbxz6CA9XO7dsrzczw3EbCTx3oGLbN+1t9t+wiGLGjaReO+IpXGfjHfx0Xo6vA0k3ku7ebLWqfaL5v1997NwkWX8Ho4V9lo9Tgf/7si+ScZLvf0zG/jiLZyOTE/QolbdLGmMMax58M7VOml3917b/T0UtzCWeCr+yyTe698Lt3C7F+tb8/hQ3MJY4mkGbpHEu4cqSzeQ+6nPt2pAcQtjiacF1iUS72y3DWk3DhcN+KnPzlRCcQtjiaeVpvmJn36U2K/36SoOFLcwmvjQ3M9OvH93kNfWKfw77+LMx6/ztfB3LPG/Hx9vINuCSnzh+oCqmzPcE7WNv+r5FBSujKq8J9BewRJaj5ptlFuvgwsUzk/H+M1eKPubvPutiTvnOA3RdFeOX/HXOMydxYN7Zj7QeEtSqeivbZw7nYfCJTnvVtVFvqeU+c/skqRirrdmu1DM/GdU90duhWvPdqGY+c+k5b8utPCBGb/o4x6qB+u/NahMsaoHjkbs2RG849U9T2j3/Cpn+pSGLsW9TqLjaWr/dbmmB9Rh4RmMX2v+acMXhrk/zzew3KXvNbe6t5+1n8bDWGkndqe3cwaF0c7A2fqWt8DdWUXKa8cwDZS7/Z4fa3sB11UJf7eqvfevjdo73t/9WNwCuC7acIoFWniP+tv9wxtYphF8uP5SleHMwbx+fZTq7Gc+nU0vBA/XpR8+zVljpiuKV+La/DhveAm3v77VZzZYbfC3ChuKf8KnH2fnfy6vr+/uYBo/3N3eXl/++XX2raF8J6y7uKc0/6LL2th0ysGE8r8wmyztOW+a2r9lWS1jvc/iSX66bLX7NIXdZHuDJWC185Rl3WETL+BpK/kY2/YO9gU42H5GJb3A62WbgdX+q+ec3yZbb+f+fuVq/23LUstz5PX23kHTW1gd7O389/J6nJdv3m7v7OztHRwcHlH7uFodHR7s7+/t7mxvv95sgl+8+D/soODcL6rJngAAAABJRU5ErkJggg==;rounded=1;shadow=1;glass=1;sketch=0;gradientColor=none;" parent="1" vertex="1">
          <mxGeometry x="460" y="629.63" width="25.37" height="25.37" as="geometry" />
        </mxCell>
        <mxCell id="GsIWdPKWRebKrd8d-r1N-22" style="edgeStyle=orthogonalEdgeStyle;rounded=0;orthogonalLoop=1;jettySize=auto;html=1;exitX=1;exitY=0.5;exitDx=0;exitDy=0;entryX=0.25;entryY=1;entryDx=0;entryDy=0;endArrow=none;endFill=0;strokeWidth=2;" parent="1" source="GsIWdPKWRebKrd8d-r1N-8" target="NfwQ1fAhElnoeN3uriOs-27" edge="1">
          <mxGeometry relative="1" as="geometry" />
        </mxCell>
        <mxCell id="GsIWdPKWRebKrd8d-r1N-8" value="" style="shape=image;verticalLabelPosition=bottom;verticalAlign=top;imageAspect=0;aspect=fixed;image=data:image/png,iVBORw0KGgoAAAANSUhEUgAAAPwAAAD8CAMAAAETcgnDAAAAAXNSR0IArs4c6QAAAARnQU1BAACxjwv8YQUAAACTUExURQAAACAQECAYGCUVFSQYFCMWFiMYFSIXFCIYFCQXFSMYFSMXFCMYFSIXFSMYFSMXFQQAABQQECMYFSMgIDEmJDMwMD41MkNAQExDQVJQUFpSUGJgYGhgXnJwcHZvbYGAgIN9e5GLipGPj5+amaGfn62op7Gvr7q3tsC/v8jFxdDPz9bU0+Df3+Pi4u/v7/Hx8P///4t5IxcAAAAQdFJOUwAQIDBAUGBwgI+fr7/P3+8jGoKKAAAACXBIWXMAAA7DAAAOwwHHb6hkAAAaaElEQVR4XtWdh3rkrA6GN9vSM8n2elK2pG3K/V/dQdJnW4CEwfZM8r/Ps1kPCDSYJuq8iHm1f7SNx5zX7wbgpDmEVwece8T19pGQ55fwEcjlG/sKLAI/gj7CqyOSCM8f4D4QHI9K/iwh/vT94UYcB+Spk+j9T8iL/I+Pf9JnCLx59+4H+9+Ln8AuItFHAC9ALpEA3HvILUi8JYFL+P/7F/7c0P9/IUFRhCyCf/B4DF/ykf4nBwjsDwLBrUsF/ycC4S10Ao+P7ykY/5PPJLCtYxDw6UQEwpcMAr/FTYBAcIYAScRxEOSoBcAJe4AP5J8ISEjAEXQSPxmK+0oeHx+vB4Fr/R3whfsIUiU9wRlFKrwKQyI4IgKOIpPQ/iIRidD3U/6Q6EVC+gPw6mA3RVfkFfAR4JbwtujLbB/t4SkHoQm4aODTsQVnsBJXTuEveYYPww7sKfBn+AUSX0ILGN5aYMvyVgKxN9VtrvQkQN5HfbNCpYfLEMqjCPTB4SWQw5g/C8CbmhzN39ifnLglOLlA00Ax9P6fxf/x8fRn+IrUMnQC4k8fCXqiD6Y/q5F/V6Y//w1QgxRQ/uyV+L9/fPzR+/d+PRcc/B3lzgMJAEk4IP8uAnD8HQ+BUJN2On+p/fS9f8vjPYJDQJSehn940/+4psFfa+iBtyfQe5sCVMtX8DYEyKEPHuDPZ/AU37ifZicN3AfgLsAtAZ6v8LGEtgUYuFeQ2gmK1xBxobo6AiQtIEHgTSrgQUA8AZ6mEQEgYcUAD7MkaSCWxID2UZtHLiIaRQAnCIwCcQTugsMTnJ5ITZPawvBnhvuwPgL5AC8GATJu4N99hcbgAUgggoMQPFhlAbgKkLWAxOPjGQdL1EeGnY0IBiQcwosTRDqh7kE7EPLhnAOyjYHw8O4IDuI2hOsfCA5I3VOAHeAbOAl8D5/p3/FV+EMOPx+53yBYnAO+2OP/2AGeAfV4+pH+PqLNByzOAVFj2WEIpcILcXgWfuCAeH+/2OnxKwTKiCyH68LjCxBX37/6UK8DOBiNUPhBRaAJ2lSHo5FQVH7RZsE9xg0vYSj4ixc78oHdOYGAeivia2Rrh14+Dt5VAY4AQkwXvjN9hRD+VuQRmhAH5yWkQBhBBbhVxADBXQTsgfvQC1qIdRxAoAh4BSAdg0YrMHTMCa8gIJwj4EOwYxSQ9YCUA4RGkEqdEGydRt7uHq72d97gUxNpJ96kHL1ZQpbjNiUTACIlIOkBKQ/7m2vCIN0HMkw21dEB2Rxpihm0h4r/wScA8ZThuyNICnydCOAXm+MxaDdMO67TXrCeAhBKh4dDib+DoAcGj2kSuooLqRKQREAAR4iUgSxCMnCCwBgiTLYLEBugNvjjnYgjcEA+Ow0n998BfCREvo8AWQdP4f7jex6J8dwKYA9GAiA41MNLkAA3ybAWngEJIsGlqZGZNQD5Y62dgHccXp7hwUA65wQCUQT8FFnekDaAgA4vT3AWIGxwCglYP7b5UbJCIaK+AP9Ps4bEqAELuSG8sj9LX7xDpkYCkfmG8JA5/kdIuTtlw++GHN6zAw/8CQ4Xhf8uAv2X7PILNk8X/2f5wOH2Jbw0OuIdYP0yrxg+hXivxEF8ET0H5PkJNLfpuws2K4cYwnV2VBb+mhyQvp4QjEPKbEygT2AWnh3gGSBrPSSdBMOnkI7eQbgncUwU8l9usoe6Rp9Emv4P6ZL3x37Eb/rEAfX3H0x0JfqVjcg+CQJJR+HFUoJvFF4YC5+8gInhe6GR8CLM4Xb1+CkLZgNZDteZK3DLyoABJKUj6+rv/+Aa+I2hiokxgJYHuKYM+lIkWAgvrT9cU9zwMnrlbpyfnAjc8BKIgk8KL12g2PGY1mZ3mfsDPItJMeCzwHIShINHXwAhhK5CxK4kBmMM4XflU0N4CYDg3RegCCAjuOEhj9AB+cy1uAIMohCWEIeC5af5IsLR/KQ4OZkY0w2mEBLAcTwJ3QgQ4To6A7BsfvavLg3e22DlNEinF0AgDUrBu3dfIJwDAcP8JYbBZ2QL9fRjX0s7A28CYXqGwa8fPIogpKPLjMtBc8AdPBPxANoCgi4Qc/BXpwbMwTPjL33HvIR8DDwriUeSytifzZuDOO6Oo/YJgiYwTTXGgVm457BVWFFwiHceTGfLftU1FCcKauiWaydziIgm0DdmFh9+/Lq8vXt4fLi7/HP+DY42iK4Jpw358AfNkU03MZBQOenUYzUe3+r6xQACRCDiGvLCVrUgFBG11UzNcl8A0gP5HFQdaqZKqPgCacq7qddpwELpgRKPfYiBMROigt5OAFBkAhHgGw9tIDrgTgHHSV9KOYEoAdQlwFNY4LVr4iyw+iR4CWPzjgk3nzHafs9jaYto0SDrDKJZ7pak36c7RQL2d0DkTLJhKNLut6vdAOr4+KM4GLqFK/GPQPRM1BVF2r22NZ2NueonMk2MV6DboX2oJuDEQDSDN9Q0gYCKP9BBDJYnHBgIZtQtg8ZgikwhK9wClEc2HMRyEGMbCKvQ7x/q8YlwW/jRKUwbhFZAESHZr/p2o8ZduIW7Bp6Si4EqgtXjmYBER7FkV6HWtTvU66chm2rpo2a+3xMwk/eIrwfKCD/xCDwAdwZO/buVT7qgiwtAGwWUDcD7anvgTyCgAh6gd/l7yt+BPsf1jFx6dCao7melLXk10YdQNjRNdcra0QifpDWDJOL1EZktF6CO0OuK3TrBaBsT0hvawCCHz9TC4wkEiWhfwfHxV4mZgDpCLyUPvSyCeIQelv+q1StyGKC04rGHI2agjtCmJXwDCBEBL0beDj19D7pCUll7lPcsoRn6wE/QF3hxgIeAbI0nrO4lOH8nOsuCQK+GbA7qb1jEbC+GLwd1hB7IqX4eQTS2qyYoGJYIMiRiAuqIbmcKoYYyRpsTXPHkUVSvdo1CHeHV+7yLCY548iipV9aP6vSDzYMnAv5Cu3lRAHEyquS9jkbxSYc3WHbz0E1OAMqIpMfLzbx+tW8q/Vpqhxr6coevJzEgskbyGVZ8INpGVpI+Z+OZAxQRmPPQ8yhDu1/BBPVQw4j2eCplaPrGaVcPJQyUB+DANAzvmtXrGRc90IYTo6xdid9AlsoHTtP+VWE29skmLTgyQ/VHBDmp+vcV6qNBdjr9DGcBAerVD6vtOVAfjbDzyW94CKMTafdYYe2Asw8iFqwprnhupaUGjBPP8kFhQrKRDiEXIN4OaZxFAslcauMUi0Myt1dabEhewOQJzYFkcnVsgj07RFE9kWyQTqsW1+GAsvzBtEzIpnSL712h7L8ONQKq4Taf0K5JeUdaBpgvdW9B9jgk+MXdIZld7vnhrnU/nOdpFqYtayFwCWU3etQunlrk5bCNyiWMEoipmQUXVRvfwmr2CqLBm5q11P3Fl3Az3mbV4nB3gVyuZ+vN9u7eweHq6GB/b+ft6MG05djadbJgf9JG/Ra2xpbw99f3Hl5VLuLPaWY8ttQkzDgLv4PMCBilZpNLJf2upib0askMKjeMGMzYudDR/to1rdsGEmZsGwFz2sLi5o1KWmysCNPg6vly/uf6NljBd9eXf86KRse0zs8t7x/OTdv7Nh7LKKYUQWfn2VnR7L90dtAgzmrsF1+zd+USsjFtGWBu2qndkGpu3mlpBa3K3jTgNr5AfQEwCl3zaD//ArUDjdyqnDTOTffMVBbALO1Tt3GkW2aqWqBsi1zTPGdM+/g6K/NzhvfD4TowtmU03aTavlUsAfF0jBgBkOoob86rIimBRWs46V9nZPtAUgCgySIZuywzsZVON0BXTlLsZhU6jV7AKDQ/8AeLaU+bQCf744xfdFI1zn/oi4n7mUVK3UBU/s3WB35C8Zz8FBCvYNifUalvbeYvujVrf2IdMQvQORCbNwhSR38PgoDzgyk4VStkjV9U7loq/AW0KrKtMkxkiUJrR5T4UsZffX5//HVYGLU2CwbMN4DYmaTyR4mHuMGwLUEWxOMdG4pk1ZiJ+n/oFaLEuzU+es+0FcjVHpAgEbr2RaafNuo/QTgj3U0zsosNoTTQwEAzAycGohlZGRvZyma8f71ZURV+XeftU0kBxFpPvFOLgQ4GugNwYCCYMWHzHEIqdN/bz/9oC2u5xJuvH1qIvuXXE2YQy/B3xBQYFo87dNcH7frdVxf7KsrJx/yfXjhy63zFaVsDBFbo5RZRrycMIZSD+BrJ3762/EU9PhBuwZuo3uh/oYmQso8PRG7f3U+ocArEolDTQFz29aAOIj3phRDNIB6F7nhIvWrvk107C2yaQkwa6CJIPR6J2L6cvV8qcJLv04cugqoeHgkICNOqWk66T1+1PNTt4JGAAJO2M3yfBHGlbbvPV//+9jvrIBBLBBAjiDNfNTo667PuVVfhbpdKt2EI6vCJiIN3m5kFaCOimRxt4yHgQNSCSKEc9j+K2YMPTFxs4ShAGxEVfFXy8q2KcQNGBYPP1N+ccuHirKKHnrjowJGBNsLLeoRS8F0eRC8Q/oqhS4WL/oeASMSWmDZ9o82SeCDgHTCMdwVJSIM6OOAJiISGXMAZ1AW2bfUI40BWFOd8Z+mGjjVuH9VXA6rvVbO+O1PUh6QE6yO8476CZe8rj0MiJtRsAy5xEeAdQBCHkJLQIoYi15tAaTMh7ydiaP7UaO/AVD9yLiLEFP7SSE4+025UPIGbfAgy9L2q3Tky1Vt9Dd8CQ3wMcbNAEJRXHt4Gl3MInHymsp+NAjhmBuoCK6V+GNRbqdf1XioVVSZ6ooMPrIz9QN5fwSMAfUR13iv13csZBrqS8/hAGEYKfAJQF7BfvqM+23yPcUw3yg6PLKF38A+IbEAVvcMW9Zat//1iqPF2QDDMOShr0y75lqXhqNeEgHgy6K+N0s3Onq3eGDrPVS8RE2qS0Wn1jGiWU68med5q9crMzpM/U70yuaCNeKnHl3rFKCu8M9VLrAy0EdHuAPPut4556rW5BW1EPLiHv4CAi6AvM4/VO2UvgKALMFS6gCr4NLuHRwICHQg8myjt2taihV08EulBUKvna+Z9bGbHBT9eM4XEwFhpG+VjojwbYuoZTYhE/Pt7il3orfy8CtUlRU9ukXr99hdYtxsDmghZ08cHom0ZAWMtfKpDv3vZPjv5WBC6WnyqQ8/qs/Yo85tW6qeohx6im1fERwZSVUxQr1cUu1lV/fZblu8mqIcWBtonJ79dvZ7VGxYU4MA0LCO1q9dzmsO28Wg/PiQraFYfLaZBNwEXRu0OwtV8Bml3VJTtgQYGE8pMtF8EsgHEbZCrx4MBIksWsqFZgBsz7NdAeINJ6hE/E+9ejzZkQnpp9dEqNvR2wFWA/LLqo0006db9aF9k9/oR3iD1uhlXj7gFaB2Au4DSj/AGqRf9jIOHxBWdGsm37zWuoP+ESQFSmyYjWr+2ti/EuyMRainiPYzm+QX4CVO3qdnEe7fsnVPxXjV3SW0C2sQJQF9K/Ppn7xbrSbS7R0fgD5bSn2j3T+vEpX+h9x91c4U9U4Fko+QS5S8udW7GC+nxC8QxnXTH6siZIUj1zNy6le4dHz20AbmeOQUwKXQjexUFSA4grnbUuoFQdVgBsgON5zBBlvTafdqQVkwoAfkm5eqDGpDXNO7bzN5702El60RIwxcwlNeUugHz+FXdNYsP+WsPNJ5FdQ4DjR4RsBIe7IvmE4pJ+z/gv4NrM92BSbf5xv1vxI90Fub23FMdmHhMsOIo2Cfv3PFA+4vvKbyAWiYmXbBvda5n9h3OFTngMuO9D0z9Aqtp585zpnyBRVLeYdxHUGT5y6zrX8FqTeeha44HHq3j7HnPS+9OBGK14In7Am920h5xtb+9eG4vytarN9u7h5YhoTja39t5vVR9fXq23njH5cc42F34IPcGeb0zls2V7O/8l4rC1vbEvC6xv9ambBFe7y6T2w6Hz7UQbL1eQ35b7D+zF7C1s4Ax3MLBLMt5ObbWW9J9Djd6uYzB1hK3Mszg6VrBTVXyMjNv9JjE20UK+/igvIbDjTaBtbf9xHz6cfbrujwpdvnn/EdhbsRnU/m/1XrX2Zez6/ZD1Ne/yr+7k7OB+r/dUNw/fLuce3T87lfxApmY9Rb/rdKANuLD+cyFj4hL9/qalLUNql9VWjLfqi+DaSJdhXJY8vfXeuqa929LZnhOVSU4XHpio+Zqry8L34/gkN7bYrDoTFqFHbfmLI+pqAFLTYSMz13+b8H7QCq5HasAi+T+q7G6/q1xNXExxvJ/9l16Y0n/sJl67jFS/2e1/GO/PGlfKrdRRor/dLO3XNmfONMHinbwxKpfzvZPT1XTLezlcTByhZdJMdu/PH15j9HXlqQ0Z34x259d0on4yq6YtswvZfuzKvCaQtPfkvkFi+7ZNHMWhaavdrRfKvIbOBo0B3tXElO3Je2lb9fU/+LvVO5v/l5c/Pz5/fT04nd+KUcF9qWtRM3FoYV9EOss8VenzuUxX0+Nc2sF/Mwf36vij13Xlu33P80j4RHGTzi6+Jk/MtTz076mbL+qvi3oo/ETrjYPrslbbPbctH+Yku33V9/jPP15Ax9w33g51sfaGuDO+RXW+Ny0+9dLuXhZOpy/uhkv7TmV5d+1+NzUu6ZN3e5XxT3OwdlwMz4p6YR/L6Ym3fLf45g72QXJHc3VvZh04mbabXCgqg/MN58DM/VuH9c6Ez05T6uhXxgdx2v2jB7P/QGC1rTPPgxfQ03L7zX6xkkzbzGmNe3+D9AtSvY7lgZeyc8sXa+hb027c3Ps8tT80KKX+qS7N3+DINDc1i1x1V4dc1IfVfstZxmuuY9b7Ka/CmosHqe/j6q9U+jbfnSVwRfbBCdQWcSZ4VDnjpxzLR/a52yMe5fWR5W15zT5w2Kms9eissLfX/29+Pn988f3BL7XRqjKeqfa9wv5znGW8Wvh771B+IZIxkk25m8vDlnvdPHlQn//e6O5bFI3yLW3fKGzd7q5YsZfbKo7LxJdSOXitPjS3Tlztf4IvnUYvlZOxt+A3eZJrbf7eDfjZ97UvA7o5soCdtZzX++Uei/jk1t/c2zb4yY3/U4u1OAsqUdmJKUpr6K9Z9d6GtvaUxjOEfZ/43XdNbyioe5J3ljpy9m8SAo/vGBc/N9hL2SSoWO39fbqRM3lcQWrcxjx2e30MBr2IyncGez88og3n3vodvJmP1c1VC8kvkt9PxnRFeTvcOgNxKo3mOMEcwydLWfyyrTqSz/2UeRrn9Fc87u0R7NdcpOh/3q/9lcd5pdlDzg9v72It+1UebOtn9PD4atztuEbJs2XNFmllGHurtjk2va+3d7vOAM6q8rPmp+CHc5xSOHMii+Xh1LKEEep3Dt5b1f6PWdQY41pSpkyDqdYkia9cjbFy4WjOBki1aV8Tbo52rEnsvejH94YsPZTIvZpyGy7DAekaKajX+mqSgMGzNiPjCms2T27xTt07DvDxJnc3AVOJL1dtkq5j+/7lgtMC6W+swzGFgXMrEeyYlbmBSnmLTm1Vd7tpe6HegOZoQDDQO3TXhOJh2Xr2jZefeJrJ2mc7x2PhoY1p39/r9DzPd4PBboqEof4+l/BTPzKvprGtOwrx+/G974ffhmkJ1tyu9HxW5FcVba4RuLtOn/kWLdWgze6AifI966pJJ/7bunmNHmz9ZHkdAVJYbf2B85o3urqKsv9nO/dMyMSa4Bjb9Lbc4wc80rgsnXR8dSJt6q8beHtOra9vRuhyr594sSbEzv27P2289v0zpWANYtRT5v49LJ1wZ7IemPfhOYuUFak/kkTbw/pnW0aL7z5S2+Vbnw64ykT72xZsQ+k0HZke0eGfxXmWOb/viKK485xJkVi/JCaYJd6Wqh2Fur8hflnOH3LuHPYTqnniXt7XFfcfTYzX9eAMSHaY+/Kk9NHzk6k8p4MYyr6CeEflPJwMh6r1PaodvwC3GewWheIpv8t7Izv9ic4G/Dq9tb/rdg2vC4+n1as0zr7kPt9OVOz/j+B3dQPxy2dWj/t3t1nhr1ao/fgOvuR1nioJBof12ysmohT6PU5W2/r6foOUm0o8XfOZTTR5mtnjX591X5DiXfOnCRHbJ2CP2EzWh2bSbxz6CA9XO7dsrzczw3EbCTx3oGLbN+1t9t+wiGLGjaReO+IpXGfjHfx0Xo6vA0k3ku7ebLWqfaL5v1997NwkWX8Ho4V9lo9Tgf/7si+ScZLvf0zG/jiLZyOTE/QolbdLGmMMax58M7VOml3917b/T0UtzCWeCr+yyTe698Lt3C7F+tb8/hQ3MJY4mkGbpHEu4cqSzeQ+6nPt2pAcQtjiacF1iUS72y3DWk3DhcN+KnPzlRCcQtjiaeVpvmJn36U2K/36SoOFLcwmvjQ3M9OvH93kNfWKfw77+LMx6/ztfB3LPG/Hx9vINuCSnzh+oCqmzPcE7WNv+r5FBSujKq8J9BewRJaj5ptlFuvgwsUzk/H+M1eKPubvPutiTvnOA3RdFeOX/HXOMydxYN7Zj7QeEtSqeivbZw7nYfCJTnvVtVFvqeU+c/skqRirrdmu1DM/GdU90duhWvPdqGY+c+k5b8utPCBGb/o4x6qB+u/NahMsaoHjkbs2RG849U9T2j3/Cpn+pSGLsW9TqLjaWr/dbmmB9Rh4RmMX2v+acMXhrk/zzew3KXvNbe6t5+1n8bDWGkndqe3cwaF0c7A2fqWt8DdWUXKa8cwDZS7/Z4fa3sB11UJf7eqvfevjdo73t/9WNwCuC7acIoFWniP+tv9wxtYphF8uP5SleHMwbx+fZTq7Gc+nU0vBA/XpR8+zVljpiuKV+La/DhveAm3v77VZzZYbfC3ChuKf8KnH2fnfy6vr+/uYBo/3N3eXl/++XX2raF8J6y7uKc0/6LL2th0ysGE8r8wmyztOW+a2r9lWS1jvc/iSX66bLX7NIXdZHuDJWC185Rl3WETL+BpK/kY2/YO9gU42H5GJb3A62WbgdX+q+ec3yZbb+f+fuVq/23LUstz5PX23kHTW1gd7O389/J6nJdv3m7v7OztHRwcHlH7uFodHR7s7+/t7mxvv95sgl+8+D/soODcL6rJngAAAABJRU5ErkJggg==;rounded=1;shadow=1;glass=1;sketch=0;gradientColor=none;" parent="1" vertex="1">
          <mxGeometry x="610" y="629.63" width="25.37" height="25.37" as="geometry" />
        </mxCell>
        <mxCell id="GsIWdPKWRebKrd8d-r1N-13" value="" style="endArrow=none;html=1;strokeWidth=2;strokeColor=#B85450;" parent="1" edge="1">
          <mxGeometry width="50" height="50" relative="1" as="geometry">
            <mxPoint x="313.9200000000001" y="505.65999999999997" as="sourcePoint" />
            <mxPoint x="445.4200000000001" y="505.2099999999999" as="targetPoint" />
          </mxGeometry>
        </mxCell>
        <mxCell id="GsIWdPKWRebKrd8d-r1N-14" value="" style="endArrow=none;html=1;strokeWidth=2;strokeColor=#B85450;" parent="1" edge="1">
          <mxGeometry width="50" height="50" relative="1" as="geometry">
            <mxPoint x="313.9200000000001" y="659.1600000000001" as="sourcePoint" />
            <mxPoint x="445.4200000000001" y="658.7099999999999" as="targetPoint" />
          </mxGeometry>
        </mxCell>
        <mxCell id="GsIWdPKWRebKrd8d-r1N-15" value="" style="endArrow=none;html=1;strokeWidth=2;dashed=1;fillColor=#f8cecc;strokeColor=#FFD966;" parent="1" edge="1">
          <mxGeometry width="50" height="50" relative="1" as="geometry">
            <mxPoint x="314.00000000000006" y="493.4500000000001" as="sourcePoint" />
            <mxPoint x="445.50000000000006" y="492.99999999999994" as="targetPoint" />
          </mxGeometry>
        </mxCell>
        <mxCell id="GsIWdPKWRebKrd8d-r1N-16" value="" style="endArrow=none;html=1;strokeWidth=2;dashed=1;fillColor=#f8cecc;strokeColor=#FFD966;" parent="1" edge="1">
          <mxGeometry width="50" height="50" relative="1" as="geometry">
            <mxPoint x="314.00000000000006" y="646.95" as="sourcePoint" />
            <mxPoint x="445.50000000000006" y="646.5" as="targetPoint" />
          </mxGeometry>
        </mxCell>
        <mxCell id="GsIWdPKWRebKrd8d-r1N-17" value="" style="endArrow=none;html=1;strokeWidth=2;dashed=1;fillColor=#f8cecc;strokeColor=#FFD966;" parent="1" edge="1">
          <mxGeometry width="50" height="50" relative="1" as="geometry">
            <mxPoint x="314.00000000000006" y="345.45" as="sourcePoint" />
            <mxPoint x="445.50000000000006" y="344.99999999999994" as="targetPoint" />
          </mxGeometry>
        </mxCell>
        <mxCell id="GsIWdPKWRebKrd8d-r1N-18" value="" style="endArrow=none;html=1;strokeWidth=2;strokeColor=#007FFF;" parent="1" edge="1">
          <mxGeometry width="50" height="50" relative="1" as="geometry">
            <mxPoint x="313.9200000000001" y="519.45" as="sourcePoint" />
            <mxPoint x="445.4200000000001" y="518.9999999999999" as="targetPoint" />
          </mxGeometry>
        </mxCell>
        <mxCell id="GsIWdPKWRebKrd8d-r1N-19" value="" style="endArrow=none;html=1;strokeWidth=2;strokeColor=#007FFF;" parent="1" edge="1">
          <mxGeometry width="50" height="50" relative="1" as="geometry">
            <mxPoint x="313.9200000000001" y="672.95" as="sourcePoint" />
            <mxPoint x="445.4200000000001" y="672.5" as="targetPoint" />
          </mxGeometry>
        </mxCell>
        <mxCell id="GsIWdPKWRebKrd8d-r1N-20" value="" style="endArrow=none;html=1;strokeWidth=2;strokeColor=#007FFF;" parent="1" edge="1">
          <mxGeometry width="50" height="50" relative="1" as="geometry">
            <mxPoint x="313.9200000000001" y="371.45" as="sourcePoint" />
            <mxPoint x="445.4200000000001" y="371.00000000000006" as="targetPoint" />
          </mxGeometry>
        </mxCell>
        <mxCell id="GsIWdPKWRebKrd8d-r1N-21" value="" style="endArrow=none;html=1;strokeWidth=2;strokeColor=#B85450;" parent="1" edge="1">
          <mxGeometry width="50" height="50" relative="1" as="geometry">
            <mxPoint x="313.9200000000001" y="357.65999999999997" as="sourcePoint" />
            <mxPoint x="445.4200000000001" y="357.2099999999999" as="targetPoint" />
          </mxGeometry>
        </mxCell>
        <mxCell id="pmPGEmAbYdkGIdwM05D3-1" style="rounded=0;orthogonalLoop=1;jettySize=auto;html=1;endArrow=none;endFill=0;strokeColor=#007FFF;strokeWidth=2;" edge="1" parent="1">
          <mxGeometry relative="1" as="geometry">
            <mxPoint x="220" y="984.5" as="sourcePoint" />
            <mxPoint x="377" y="984.5999999999999" as="targetPoint" />
          </mxGeometry>
        </mxCell>
        <mxCell id="pmPGEmAbYdkGIdwM05D3-2" value="" style="endArrow=none;html=1;strokeWidth=2;" edge="1" parent="1">
          <mxGeometry width="50" height="50" relative="1" as="geometry">
            <mxPoint x="570" y="953.95" as="sourcePoint" />
            <mxPoint x="727" y="953.5" as="targetPoint" />
          </mxGeometry>
        </mxCell>
        <mxCell id="pmPGEmAbYdkGIdwM05D3-3" value="" style="endArrow=none;html=1;strokeColor=#b85450;strokeWidth=2;dashed=1;fillColor=#f8cecc;" edge="1" parent="1">
          <mxGeometry width="50" height="50" relative="1" as="geometry">
            <mxPoint x="220" y="954.95" as="sourcePoint" />
            <mxPoint x="377" y="954.5" as="targetPoint" />
          </mxGeometry>
        </mxCell>
        <mxCell id="pmPGEmAbYdkGIdwM05D3-4" value="" style="shape=image;verticalLabelPosition=bottom;verticalAlign=top;imageAspect=0;aspect=fixed;image=data:image/png,iVBORw0KGgoAAAANSUhEUgAAAPwAAAD8CAMAAAETcgnDAAAAAXNSR0IArs4c6QAAAARnQU1BAACxjwv8YQUAAACTUExURQAAACAQECAYGCUVFSQYFCMWFiMYFSIXFCIYFCQXFSMYFSMXFCMYFSIXFSMYFSMXFQQAABQQECMYFSMgIDEmJDMwMD41MkNAQExDQVJQUFpSUGJgYGhgXnJwcHZvbYGAgIN9e5GLipGPj5+amaGfn62op7Gvr7q3tsC/v8jFxdDPz9bU0+Df3+Pi4u/v7/Hx8P///4t5IxcAAAAQdFJOUwAQIDBAUGBwgI+fr7/P3+8jGoKKAAAACXBIWXMAAA7DAAAOwwHHb6hkAAAaaElEQVR4XtWdh3rkrA6GN9vSM8n2elK2pG3K/V/dQdJnW4CEwfZM8r/Ps1kPCDSYJuq8iHm1f7SNx5zX7wbgpDmEVwece8T19pGQ55fwEcjlG/sKLAI/gj7CqyOSCM8f4D4QHI9K/iwh/vT94UYcB+Spk+j9T8iL/I+Pf9JnCLx59+4H+9+Ln8AuItFHAC9ALpEA3HvILUi8JYFL+P/7F/7c0P9/IUFRhCyCf/B4DF/ykf4nBwjsDwLBrUsF/ycC4S10Ao+P7ykY/5PPJLCtYxDw6UQEwpcMAr/FTYBAcIYAScRxEOSoBcAJe4AP5J8ISEjAEXQSPxmK+0oeHx+vB4Fr/R3whfsIUiU9wRlFKrwKQyI4IgKOIpPQ/iIRidD3U/6Q6EVC+gPw6mA3RVfkFfAR4JbwtujLbB/t4SkHoQm4aODTsQVnsBJXTuEveYYPww7sKfBn+AUSX0ILGN5aYMvyVgKxN9VtrvQkQN5HfbNCpYfLEMqjCPTB4SWQw5g/C8CbmhzN39ifnLglOLlA00Ax9P6fxf/x8fRn+IrUMnQC4k8fCXqiD6Y/q5F/V6Y//w1QgxRQ/uyV+L9/fPzR+/d+PRcc/B3lzgMJAEk4IP8uAnD8HQ+BUJN2On+p/fS9f8vjPYJDQJSehn940/+4psFfa+iBtyfQe5sCVMtX8DYEyKEPHuDPZ/AU37ifZicN3AfgLsAtAZ6v8LGEtgUYuFeQ2gmK1xBxobo6AiQtIEHgTSrgQUA8AZ6mEQEgYcUAD7MkaSCWxID2UZtHLiIaRQAnCIwCcQTugsMTnJ5ITZPawvBnhvuwPgL5AC8GATJu4N99hcbgAUgggoMQPFhlAbgKkLWAxOPjGQdL1EeGnY0IBiQcwosTRDqh7kE7EPLhnAOyjYHw8O4IDuI2hOsfCA5I3VOAHeAbOAl8D5/p3/FV+EMOPx+53yBYnAO+2OP/2AGeAfV4+pH+PqLNByzOAVFj2WEIpcILcXgWfuCAeH+/2OnxKwTKiCyH68LjCxBX37/6UK8DOBiNUPhBRaAJ2lSHo5FQVH7RZsE9xg0vYSj4ixc78oHdOYGAeivia2Rrh14+Dt5VAY4AQkwXvjN9hRD+VuQRmhAH5yWkQBhBBbhVxADBXQTsgfvQC1qIdRxAoAh4BSAdg0YrMHTMCa8gIJwj4EOwYxSQ9YCUA4RGkEqdEGydRt7uHq72d97gUxNpJ96kHL1ZQpbjNiUTACIlIOkBKQ/7m2vCIN0HMkw21dEB2Rxpihm0h4r/wScA8ZThuyNICnydCOAXm+MxaDdMO67TXrCeAhBKh4dDib+DoAcGj2kSuooLqRKQREAAR4iUgSxCMnCCwBgiTLYLEBugNvjjnYgjcEA+Ow0n998BfCREvo8AWQdP4f7jex6J8dwKYA9GAiA41MNLkAA3ybAWngEJIsGlqZGZNQD5Y62dgHccXp7hwUA65wQCUQT8FFnekDaAgA4vT3AWIGxwCglYP7b5UbJCIaK+AP9Ps4bEqAELuSG8sj9LX7xDpkYCkfmG8JA5/kdIuTtlw++GHN6zAw/8CQ4Xhf8uAv2X7PILNk8X/2f5wOH2Jbw0OuIdYP0yrxg+hXivxEF8ET0H5PkJNLfpuws2K4cYwnV2VBb+mhyQvp4QjEPKbEygT2AWnh3gGSBrPSSdBMOnkI7eQbgncUwU8l9usoe6Rp9Emv4P6ZL3x37Eb/rEAfX3H0x0JfqVjcg+CQJJR+HFUoJvFF4YC5+8gInhe6GR8CLM4Xb1+CkLZgNZDteZK3DLyoABJKUj6+rv/+Aa+I2hiokxgJYHuKYM+lIkWAgvrT9cU9zwMnrlbpyfnAjc8BKIgk8KL12g2PGY1mZ3mfsDPItJMeCzwHIShINHXwAhhK5CxK4kBmMM4XflU0N4CYDg3RegCCAjuOEhj9AB+cy1uAIMohCWEIeC5af5IsLR/KQ4OZkY0w2mEBLAcTwJ3QgQ4To6A7BsfvavLg3e22DlNEinF0AgDUrBu3dfIJwDAcP8JYbBZ2QL9fRjX0s7A28CYXqGwa8fPIogpKPLjMtBc8AdPBPxANoCgi4Qc/BXpwbMwTPjL33HvIR8DDwriUeSytifzZuDOO6Oo/YJgiYwTTXGgVm457BVWFFwiHceTGfLftU1FCcKauiWaydziIgm0DdmFh9+/Lq8vXt4fLi7/HP+DY42iK4Jpw358AfNkU03MZBQOenUYzUe3+r6xQACRCDiGvLCVrUgFBG11UzNcl8A0gP5HFQdaqZKqPgCacq7qddpwELpgRKPfYiBMROigt5OAFBkAhHgGw9tIDrgTgHHSV9KOYEoAdQlwFNY4LVr4iyw+iR4CWPzjgk3nzHafs9jaYto0SDrDKJZ7pak36c7RQL2d0DkTLJhKNLut6vdAOr4+KM4GLqFK/GPQPRM1BVF2r22NZ2NueonMk2MV6DboX2oJuDEQDSDN9Q0gYCKP9BBDJYnHBgIZtQtg8ZgikwhK9wClEc2HMRyEGMbCKvQ7x/q8YlwW/jRKUwbhFZAESHZr/p2o8ZduIW7Bp6Si4EqgtXjmYBER7FkV6HWtTvU66chm2rpo2a+3xMwk/eIrwfKCD/xCDwAdwZO/buVT7qgiwtAGwWUDcD7anvgTyCgAh6gd/l7yt+BPsf1jFx6dCao7melLXk10YdQNjRNdcra0QifpDWDJOL1EZktF6CO0OuK3TrBaBsT0hvawCCHz9TC4wkEiWhfwfHxV4mZgDpCLyUPvSyCeIQelv+q1StyGKC04rGHI2agjtCmJXwDCBEBL0beDj19D7pCUll7lPcsoRn6wE/QF3hxgIeAbI0nrO4lOH8nOsuCQK+GbA7qb1jEbC+GLwd1hB7IqX4eQTS2qyYoGJYIMiRiAuqIbmcKoYYyRpsTXPHkUVSvdo1CHeHV+7yLCY548iipV9aP6vSDzYMnAv5Cu3lRAHEyquS9jkbxSYc3WHbz0E1OAMqIpMfLzbx+tW8q/Vpqhxr6coevJzEgskbyGVZ8INpGVpI+Z+OZAxQRmPPQ8yhDu1/BBPVQw4j2eCplaPrGaVcPJQyUB+DANAzvmtXrGRc90IYTo6xdid9AlsoHTtP+VWE29skmLTgyQ/VHBDmp+vcV6qNBdjr9DGcBAerVD6vtOVAfjbDzyW94CKMTafdYYe2Asw8iFqwprnhupaUGjBPP8kFhQrKRDiEXIN4OaZxFAslcauMUi0Myt1dabEhewOQJzYFkcnVsgj07RFE9kWyQTqsW1+GAsvzBtEzIpnSL712h7L8ONQKq4Taf0K5JeUdaBpgvdW9B9jgk+MXdIZld7vnhrnU/nOdpFqYtayFwCWU3etQunlrk5bCNyiWMEoipmQUXVRvfwmr2CqLBm5q11P3Fl3Az3mbV4nB3gVyuZ+vN9u7eweHq6GB/b+ft6MG05djadbJgf9JG/Ra2xpbw99f3Hl5VLuLPaWY8ttQkzDgLv4PMCBilZpNLJf2upib0askMKjeMGMzYudDR/to1rdsGEmZsGwFz2sLi5o1KWmysCNPg6vly/uf6NljBd9eXf86KRse0zs8t7x/OTdv7Nh7LKKYUQWfn2VnR7L90dtAgzmrsF1+zd+USsjFtGWBu2qndkGpu3mlpBa3K3jTgNr5AfQEwCl3zaD//ArUDjdyqnDTOTffMVBbALO1Tt3GkW2aqWqBsi1zTPGdM+/g6K/NzhvfD4TowtmU03aTavlUsAfF0jBgBkOoob86rIimBRWs46V9nZPtAUgCgySIZuywzsZVON0BXTlLsZhU6jV7AKDQ/8AeLaU+bQCf744xfdFI1zn/oi4n7mUVK3UBU/s3WB35C8Zz8FBCvYNifUalvbeYvujVrf2IdMQvQORCbNwhSR38PgoDzgyk4VStkjV9U7loq/AW0KrKtMkxkiUJrR5T4UsZffX5//HVYGLU2CwbMN4DYmaTyR4mHuMGwLUEWxOMdG4pk1ZiJ+n/oFaLEuzU+es+0FcjVHpAgEbr2RaafNuo/QTgj3U0zsosNoTTQwEAzAycGohlZGRvZyma8f71ZURV+XeftU0kBxFpPvFOLgQ4GugNwYCCYMWHzHEIqdN/bz/9oC2u5xJuvH1qIvuXXE2YQy/B3xBQYFo87dNcH7frdVxf7KsrJx/yfXjhy63zFaVsDBFbo5RZRrycMIZSD+BrJ3762/EU9PhBuwZuo3uh/oYmQso8PRG7f3U+ocArEolDTQFz29aAOIj3phRDNIB6F7nhIvWrvk107C2yaQkwa6CJIPR6J2L6cvV8qcJLv04cugqoeHgkICNOqWk66T1+1PNTt4JGAAJO2M3yfBHGlbbvPV//+9jvrIBBLBBAjiDNfNTo667PuVVfhbpdKt2EI6vCJiIN3m5kFaCOimRxt4yHgQNSCSKEc9j+K2YMPTFxs4ShAGxEVfFXy8q2KcQNGBYPP1N+ccuHirKKHnrjowJGBNsLLeoRS8F0eRC8Q/oqhS4WL/oeASMSWmDZ9o82SeCDgHTCMdwVJSIM6OOAJiISGXMAZ1AW2bfUI40BWFOd8Z+mGjjVuH9VXA6rvVbO+O1PUh6QE6yO8476CZe8rj0MiJtRsAy5xEeAdQBCHkJLQIoYi15tAaTMh7ydiaP7UaO/AVD9yLiLEFP7SSE4+025UPIGbfAgy9L2q3Tky1Vt9Dd8CQ3wMcbNAEJRXHt4Gl3MInHymsp+NAjhmBuoCK6V+GNRbqdf1XioVVSZ6ooMPrIz9QN5fwSMAfUR13iv13csZBrqS8/hAGEYKfAJQF7BfvqM+23yPcUw3yg6PLKF38A+IbEAVvcMW9Zat//1iqPF2QDDMOShr0y75lqXhqNeEgHgy6K+N0s3Onq3eGDrPVS8RE2qS0Wn1jGiWU68med5q9crMzpM/U70yuaCNeKnHl3rFKCu8M9VLrAy0EdHuAPPut4556rW5BW1EPLiHv4CAi6AvM4/VO2UvgKALMFS6gCr4NLuHRwICHQg8myjt2taihV08EulBUKvna+Z9bGbHBT9eM4XEwFhpG+VjojwbYuoZTYhE/Pt7il3orfy8CtUlRU9ukXr99hdYtxsDmghZ08cHom0ZAWMtfKpDv3vZPjv5WBC6WnyqQ8/qs/Yo85tW6qeohx6im1fERwZSVUxQr1cUu1lV/fZblu8mqIcWBtonJ79dvZ7VGxYU4MA0LCO1q9dzmsO28Wg/PiQraFYfLaZBNwEXRu0OwtV8Bml3VJTtgQYGE8pMtF8EsgHEbZCrx4MBIksWsqFZgBsz7NdAeINJ6hE/E+9ejzZkQnpp9dEqNvR2wFWA/LLqo0006db9aF9k9/oR3iD1uhlXj7gFaB2Au4DSj/AGqRf9jIOHxBWdGsm37zWuoP+ESQFSmyYjWr+2ti/EuyMRainiPYzm+QX4CVO3qdnEe7fsnVPxXjV3SW0C2sQJQF9K/Ppn7xbrSbS7R0fgD5bSn2j3T+vEpX+h9x91c4U9U4Fko+QS5S8udW7GC+nxC8QxnXTH6siZIUj1zNy6le4dHz20AbmeOQUwKXQjexUFSA4grnbUuoFQdVgBsgON5zBBlvTafdqQVkwoAfkm5eqDGpDXNO7bzN5702El60RIwxcwlNeUugHz+FXdNYsP+WsPNJ5FdQ4DjR4RsBIe7IvmE4pJ+z/gv4NrM92BSbf5xv1vxI90Fub23FMdmHhMsOIo2Cfv3PFA+4vvKbyAWiYmXbBvda5n9h3OFTngMuO9D0z9Aqtp585zpnyBRVLeYdxHUGT5y6zrX8FqTeeha44HHq3j7HnPS+9OBGK14In7Am920h5xtb+9eG4vytarN9u7h5YhoTja39t5vVR9fXq23njH5cc42F34IPcGeb0zls2V7O/8l4rC1vbEvC6xv9ambBFe7y6T2w6Hz7UQbL1eQ35b7D+zF7C1s4Ax3MLBLMt5ObbWW9J9Djd6uYzB1hK3Mszg6VrBTVXyMjNv9JjE20UK+/igvIbDjTaBtbf9xHz6cfbrujwpdvnn/EdhbsRnU/m/1XrX2Zez6/ZD1Ne/yr+7k7OB+r/dUNw/fLuce3T87lfxApmY9Rb/rdKANuLD+cyFj4hL9/qalLUNql9VWjLfqi+DaSJdhXJY8vfXeuqa929LZnhOVSU4XHpio+Zqry8L34/gkN7bYrDoTFqFHbfmLI+pqAFLTYSMz13+b8H7QCq5HasAi+T+q7G6/q1xNXExxvJ/9l16Y0n/sJl67jFS/2e1/GO/PGlfKrdRRor/dLO3XNmfONMHinbwxKpfzvZPT1XTLezlcTByhZdJMdu/PH15j9HXlqQ0Z34x259d0on4yq6YtswvZfuzKvCaQtPfkvkFi+7ZNHMWhaavdrRfKvIbOBo0B3tXElO3Je2lb9fU/+LvVO5v/l5c/Pz5/fT04nd+KUcF9qWtRM3FoYV9EOss8VenzuUxX0+Nc2sF/Mwf36vij13Xlu33P80j4RHGTzi6+Jk/MtTz076mbL+qvi3oo/ETrjYPrslbbPbctH+Yku33V9/jPP15Ax9w33g51sfaGuDO+RXW+Ny0+9dLuXhZOpy/uhkv7TmV5d+1+NzUu6ZN3e5XxT3OwdlwMz4p6YR/L6Ym3fLf45g72QXJHc3VvZh04mbabXCgqg/MN58DM/VuH9c6Ez05T6uhXxgdx2v2jB7P/QGC1rTPPgxfQ03L7zX6xkkzbzGmNe3+D9AtSvY7lgZeyc8sXa+hb027c3Ps8tT80KKX+qS7N3+DINDc1i1x1V4dc1IfVfstZxmuuY9b7Ka/CmosHqe/j6q9U+jbfnSVwRfbBCdQWcSZ4VDnjpxzLR/a52yMe5fWR5W15zT5w2Kms9eissLfX/29+Pn988f3BL7XRqjKeqfa9wv5znGW8Wvh771B+IZIxkk25m8vDlnvdPHlQn//e6O5bFI3yLW3fKGzd7q5YsZfbKo7LxJdSOXitPjS3Tlztf4IvnUYvlZOxt+A3eZJrbf7eDfjZ97UvA7o5soCdtZzX++Uei/jk1t/c2zb4yY3/U4u1OAsqUdmJKUpr6K9Z9d6GtvaUxjOEfZ/43XdNbyioe5J3ljpy9m8SAo/vGBc/N9hL2SSoWO39fbqRM3lcQWrcxjx2e30MBr2IyncGez88og3n3vodvJmP1c1VC8kvkt9PxnRFeTvcOgNxKo3mOMEcwydLWfyyrTqSz/2UeRrn9Fc87u0R7NdcpOh/3q/9lcd5pdlDzg9v72It+1UebOtn9PD4atztuEbJs2XNFmllGHurtjk2va+3d7vOAM6q8rPmp+CHc5xSOHMii+Xh1LKEEep3Dt5b1f6PWdQY41pSpkyDqdYkia9cjbFy4WjOBki1aV8Tbo52rEnsvejH94YsPZTIvZpyGy7DAekaKajX+mqSgMGzNiPjCms2T27xTt07DvDxJnc3AVOJL1dtkq5j+/7lgtMC6W+swzGFgXMrEeyYlbmBSnmLTm1Vd7tpe6HegOZoQDDQO3TXhOJh2Xr2jZefeJrJ2mc7x2PhoY1p39/r9DzPd4PBboqEof4+l/BTPzKvprGtOwrx+/G974ffhmkJ1tyu9HxW5FcVba4RuLtOn/kWLdWgze6AifI966pJJ/7bunmNHmz9ZHkdAVJYbf2B85o3urqKsv9nO/dMyMSa4Bjb9Lbc4wc80rgsnXR8dSJt6q8beHtOra9vRuhyr594sSbEzv27P2289v0zpWANYtRT5v49LJ1wZ7IemPfhOYuUFak/kkTbw/pnW0aL7z5S2+Vbnw64ykT72xZsQ+k0HZke0eGfxXmWOb/viKK485xJkVi/JCaYJd6Wqh2Fur8hflnOH3LuHPYTqnniXt7XFfcfTYzX9eAMSHaY+/Kk9NHzk6k8p4MYyr6CeEflPJwMh6r1PaodvwC3GewWheIpv8t7Izv9ic4G/Dq9tb/rdg2vC4+n1as0zr7kPt9OVOz/j+B3dQPxy2dWj/t3t1nhr1ao/fgOvuR1nioJBof12ysmohT6PU5W2/r6foOUm0o8XfOZTTR5mtnjX591X5DiXfOnCRHbJ2CP2EzWh2bSbxz6CA9XO7dsrzczw3EbCTx3oGLbN+1t9t+wiGLGjaReO+IpXGfjHfx0Xo6vA0k3ku7ebLWqfaL5v1997NwkWX8Ho4V9lo9Tgf/7si+ScZLvf0zG/jiLZyOTE/QolbdLGmMMax58M7VOml3917b/T0UtzCWeCr+yyTe698Lt3C7F+tb8/hQ3MJY4mkGbpHEu4cqSzeQ+6nPt2pAcQtjiacF1iUS72y3DWk3DhcN+KnPzlRCcQtjiaeVpvmJn36U2K/36SoOFLcwmvjQ3M9OvH93kNfWKfw77+LMx6/ztfB3LPG/Hx9vINuCSnzh+oCqmzPcE7WNv+r5FBSujKq8J9BewRJaj5ptlFuvgwsUzk/H+M1eKPubvPutiTvnOA3RdFeOX/HXOMydxYN7Zj7QeEtSqeivbZw7nYfCJTnvVtVFvqeU+c/skqRirrdmu1DM/GdU90duhWvPdqGY+c+k5b8utPCBGb/o4x6qB+u/NahMsaoHjkbs2RG849U9T2j3/Cpn+pSGLsW9TqLjaWr/dbmmB9Rh4RmMX2v+acMXhrk/zzew3KXvNbe6t5+1n8bDWGkndqe3cwaF0c7A2fqWt8DdWUXKa8cwDZS7/Z4fa3sB11UJf7eqvfevjdo73t/9WNwCuC7acIoFWniP+tv9wxtYphF8uP5SleHMwbx+fZTq7Gc+nU0vBA/XpR8+zVljpiuKV+La/DhveAm3v77VZzZYbfC3ChuKf8KnH2fnfy6vr+/uYBo/3N3eXl/++XX2raF8J6y7uKc0/6LL2th0ysGE8r8wmyztOW+a2r9lWS1jvc/iSX66bLX7NIXdZHuDJWC185Rl3WETL+BpK/kY2/YO9gU42H5GJb3A62WbgdX+q+ec3yZbb+f+fuVq/23LUstz5PX23kHTW1gd7O389/J6nJdv3m7v7OztHRwcHlH7uFodHR7s7+/t7mxvv95sgl+8+D/soODcL6rJngAAAABJRU5ErkJggg==;rounded=1;shadow=1;glass=1;sketch=0;gradientColor=none;" vertex="1" parent="1">
          <mxGeometry x="537.74" y="670" width="25.37" height="25.37" as="geometry" />
        </mxCell>
        <mxCell id="pmPGEmAbYdkGIdwM05D3-5" style="rounded=0;orthogonalLoop=1;jettySize=auto;html=1;dashed=1;strokeWidth=2;strokeColor=#99CCFF;" edge="1" parent="1">
          <mxGeometry relative="1" as="geometry">
            <mxPoint x="730" y="984" as="targetPoint" />
            <mxPoint x="570" y="984" as="sourcePoint" />
          </mxGeometry>
        </mxCell>
        <mxCell id="pmPGEmAbYdkGIdwM05D3-7" value="&lt;span style=&quot;font-size: 15px&quot;&gt;&lt;b&gt;IP-SEC线路&lt;/b&gt;&lt;/span&gt;" style="text;html=1;resizable=0;autosize=1;align=left;verticalAlign=middle;points=[];fillColor=none;strokeColor=none;rounded=0;" vertex="1" parent="1">
          <mxGeometry x="384" y="945" width="100" height="20" as="geometry" />
        </mxCell>
        <mxCell id="pmPGEmAbYdkGIdwM05D3-8" value="&lt;span style=&quot;font-size: 15px&quot;&gt;&lt;b&gt;SD-WAN线路&lt;/b&gt;&lt;/span&gt;" style="text;html=1;resizable=0;autosize=1;align=left;verticalAlign=middle;points=[];fillColor=none;strokeColor=none;rounded=0;" vertex="1" parent="1">
          <mxGeometry x="384" y="974" width="110" height="20" as="geometry" />
        </mxCell>
        <mxCell id="pmPGEmAbYdkGIdwM05D3-9" value="&lt;b&gt;&lt;font style=&quot;font-size: 15px&quot;&gt;MPLS线路&lt;/font&gt;&lt;/b&gt;" style="text;html=1;resizable=0;autosize=1;align=left;verticalAlign=middle;points=[];fillColor=none;strokeColor=none;rounded=0;" vertex="1" parent="1">
          <mxGeometry x="734" y="944" width="90" height="20" as="geometry" />
        </mxCell>
        <mxCell id="pmPGEmAbYdkGIdwM05D3-10" value="&lt;b&gt;&lt;font style=&quot;font-size: 15px&quot;&gt;CPE控制信道&lt;/font&gt;&lt;/b&gt;" style="text;html=1;resizable=0;autosize=1;align=left;verticalAlign=middle;points=[];fillColor=none;strokeColor=none;rounded=0;" vertex="1" parent="1">
          <mxGeometry x="734" y="974" width="110" height="20" as="geometry" />
        </mxCell>
        <mxCell id="pmPGEmAbYdkGIdwM05D3-11" value="" style="shape=image;verticalLabelPosition=bottom;verticalAlign=top;imageAspect=0;aspect=fixed;image=data:image/png,iVBORw0KGgoAAAANSUhEUgAAAPwAAAD8CAMAAAETcgnDAAAAAXNSR0IArs4c6QAAAARnQU1BAACxjwv8YQUAAACTUExURQAAACAQECAYGCUVFSQYFCMWFiMYFSIXFCIYFCQXFSMYFSMXFCMYFSIXFSMYFSMXFQQAABQQECMYFSMgIDEmJDMwMD41MkNAQExDQVJQUFpSUGJgYGhgXnJwcHZvbYGAgIN9e5GLipGPj5+amaGfn62op7Gvr7q3tsC/v8jFxdDPz9bU0+Df3+Pi4u/v7/Hx8P///4t5IxcAAAAQdFJOUwAQIDBAUGBwgI+fr7/P3+8jGoKKAAAACXBIWXMAAA7DAAAOwwHHb6hkAAAaaElEQVR4XtWdh3rkrA6GN9vSM8n2elK2pG3K/V/dQdJnW4CEwfZM8r/Ps1kPCDSYJuq8iHm1f7SNx5zX7wbgpDmEVwece8T19pGQ55fwEcjlG/sKLAI/gj7CqyOSCM8f4D4QHI9K/iwh/vT94UYcB+Spk+j9T8iL/I+Pf9JnCLx59+4H+9+Ln8AuItFHAC9ALpEA3HvILUi8JYFL+P/7F/7c0P9/IUFRhCyCf/B4DF/ykf4nBwjsDwLBrUsF/ycC4S10Ao+P7ykY/5PPJLCtYxDw6UQEwpcMAr/FTYBAcIYAScRxEOSoBcAJe4AP5J8ISEjAEXQSPxmK+0oeHx+vB4Fr/R3whfsIUiU9wRlFKrwKQyI4IgKOIpPQ/iIRidD3U/6Q6EVC+gPw6mA3RVfkFfAR4JbwtujLbB/t4SkHoQm4aODTsQVnsBJXTuEveYYPww7sKfBn+AUSX0ILGN5aYMvyVgKxN9VtrvQkQN5HfbNCpYfLEMqjCPTB4SWQw5g/C8CbmhzN39ifnLglOLlA00Ax9P6fxf/x8fRn+IrUMnQC4k8fCXqiD6Y/q5F/V6Y//w1QgxRQ/uyV+L9/fPzR+/d+PRcc/B3lzgMJAEk4IP8uAnD8HQ+BUJN2On+p/fS9f8vjPYJDQJSehn940/+4psFfa+iBtyfQe5sCVMtX8DYEyKEPHuDPZ/AU37ifZicN3AfgLsAtAZ6v8LGEtgUYuFeQ2gmK1xBxobo6AiQtIEHgTSrgQUA8AZ6mEQEgYcUAD7MkaSCWxID2UZtHLiIaRQAnCIwCcQTugsMTnJ5ITZPawvBnhvuwPgL5AC8GATJu4N99hcbgAUgggoMQPFhlAbgKkLWAxOPjGQdL1EeGnY0IBiQcwosTRDqh7kE7EPLhnAOyjYHw8O4IDuI2hOsfCA5I3VOAHeAbOAl8D5/p3/FV+EMOPx+53yBYnAO+2OP/2AGeAfV4+pH+PqLNByzOAVFj2WEIpcILcXgWfuCAeH+/2OnxKwTKiCyH68LjCxBX37/6UK8DOBiNUPhBRaAJ2lSHo5FQVH7RZsE9xg0vYSj4ixc78oHdOYGAeivia2Rrh14+Dt5VAY4AQkwXvjN9hRD+VuQRmhAH5yWkQBhBBbhVxADBXQTsgfvQC1qIdRxAoAh4BSAdg0YrMHTMCa8gIJwj4EOwYxSQ9YCUA4RGkEqdEGydRt7uHq72d97gUxNpJ96kHL1ZQpbjNiUTACIlIOkBKQ/7m2vCIN0HMkw21dEB2Rxpihm0h4r/wScA8ZThuyNICnydCOAXm+MxaDdMO67TXrCeAhBKh4dDib+DoAcGj2kSuooLqRKQREAAR4iUgSxCMnCCwBgiTLYLEBugNvjjnYgjcEA+Ow0n998BfCREvo8AWQdP4f7jex6J8dwKYA9GAiA41MNLkAA3ybAWngEJIsGlqZGZNQD5Y62dgHccXp7hwUA65wQCUQT8FFnekDaAgA4vT3AWIGxwCglYP7b5UbJCIaK+AP9Ps4bEqAELuSG8sj9LX7xDpkYCkfmG8JA5/kdIuTtlw++GHN6zAw/8CQ4Xhf8uAv2X7PILNk8X/2f5wOH2Jbw0OuIdYP0yrxg+hXivxEF8ET0H5PkJNLfpuws2K4cYwnV2VBb+mhyQvp4QjEPKbEygT2AWnh3gGSBrPSSdBMOnkI7eQbgncUwU8l9usoe6Rp9Emv4P6ZL3x37Eb/rEAfX3H0x0JfqVjcg+CQJJR+HFUoJvFF4YC5+8gInhe6GR8CLM4Xb1+CkLZgNZDteZK3DLyoABJKUj6+rv/+Aa+I2hiokxgJYHuKYM+lIkWAgvrT9cU9zwMnrlbpyfnAjc8BKIgk8KL12g2PGY1mZ3mfsDPItJMeCzwHIShINHXwAhhK5CxK4kBmMM4XflU0N4CYDg3RegCCAjuOEhj9AB+cy1uAIMohCWEIeC5af5IsLR/KQ4OZkY0w2mEBLAcTwJ3QgQ4To6A7BsfvavLg3e22DlNEinF0AgDUrBu3dfIJwDAcP8JYbBZ2QL9fRjX0s7A28CYXqGwa8fPIogpKPLjMtBc8AdPBPxANoCgi4Qc/BXpwbMwTPjL33HvIR8DDwriUeSytifzZuDOO6Oo/YJgiYwTTXGgVm457BVWFFwiHceTGfLftU1FCcKauiWaydziIgm0DdmFh9+/Lq8vXt4fLi7/HP+DY42iK4Jpw358AfNkU03MZBQOenUYzUe3+r6xQACRCDiGvLCVrUgFBG11UzNcl8A0gP5HFQdaqZKqPgCacq7qddpwELpgRKPfYiBMROigt5OAFBkAhHgGw9tIDrgTgHHSV9KOYEoAdQlwFNY4LVr4iyw+iR4CWPzjgk3nzHafs9jaYto0SDrDKJZ7pak36c7RQL2d0DkTLJhKNLut6vdAOr4+KM4GLqFK/GPQPRM1BVF2r22NZ2NueonMk2MV6DboX2oJuDEQDSDN9Q0gYCKP9BBDJYnHBgIZtQtg8ZgikwhK9wClEc2HMRyEGMbCKvQ7x/q8YlwW/jRKUwbhFZAESHZr/p2o8ZduIW7Bp6Si4EqgtXjmYBER7FkV6HWtTvU66chm2rpo2a+3xMwk/eIrwfKCD/xCDwAdwZO/buVT7qgiwtAGwWUDcD7anvgTyCgAh6gd/l7yt+BPsf1jFx6dCao7melLXk10YdQNjRNdcra0QifpDWDJOL1EZktF6CO0OuK3TrBaBsT0hvawCCHz9TC4wkEiWhfwfHxV4mZgDpCLyUPvSyCeIQelv+q1StyGKC04rGHI2agjtCmJXwDCBEBL0beDj19D7pCUll7lPcsoRn6wE/QF3hxgIeAbI0nrO4lOH8nOsuCQK+GbA7qb1jEbC+GLwd1hB7IqX4eQTS2qyYoGJYIMiRiAuqIbmcKoYYyRpsTXPHkUVSvdo1CHeHV+7yLCY548iipV9aP6vSDzYMnAv5Cu3lRAHEyquS9jkbxSYc3WHbz0E1OAMqIpMfLzbx+tW8q/Vpqhxr6coevJzEgskbyGVZ8INpGVpI+Z+OZAxQRmPPQ8yhDu1/BBPVQw4j2eCplaPrGaVcPJQyUB+DANAzvmtXrGRc90IYTo6xdid9AlsoHTtP+VWE29skmLTgyQ/VHBDmp+vcV6qNBdjr9DGcBAerVD6vtOVAfjbDzyW94CKMTafdYYe2Asw8iFqwprnhupaUGjBPP8kFhQrKRDiEXIN4OaZxFAslcauMUi0Myt1dabEhewOQJzYFkcnVsgj07RFE9kWyQTqsW1+GAsvzBtEzIpnSL712h7L8ONQKq4Taf0K5JeUdaBpgvdW9B9jgk+MXdIZld7vnhrnU/nOdpFqYtayFwCWU3etQunlrk5bCNyiWMEoipmQUXVRvfwmr2CqLBm5q11P3Fl3Az3mbV4nB3gVyuZ+vN9u7eweHq6GB/b+ft6MG05djadbJgf9JG/Ra2xpbw99f3Hl5VLuLPaWY8ttQkzDgLv4PMCBilZpNLJf2upib0askMKjeMGMzYudDR/to1rdsGEmZsGwFz2sLi5o1KWmysCNPg6vly/uf6NljBd9eXf86KRse0zs8t7x/OTdv7Nh7LKKYUQWfn2VnR7L90dtAgzmrsF1+zd+USsjFtGWBu2qndkGpu3mlpBa3K3jTgNr5AfQEwCl3zaD//ArUDjdyqnDTOTffMVBbALO1Tt3GkW2aqWqBsi1zTPGdM+/g6K/NzhvfD4TowtmU03aTavlUsAfF0jBgBkOoob86rIimBRWs46V9nZPtAUgCgySIZuywzsZVON0BXTlLsZhU6jV7AKDQ/8AeLaU+bQCf744xfdFI1zn/oi4n7mUVK3UBU/s3WB35C8Zz8FBCvYNifUalvbeYvujVrf2IdMQvQORCbNwhSR38PgoDzgyk4VStkjV9U7loq/AW0KrKtMkxkiUJrR5T4UsZffX5//HVYGLU2CwbMN4DYmaTyR4mHuMGwLUEWxOMdG4pk1ZiJ+n/oFaLEuzU+es+0FcjVHpAgEbr2RaafNuo/QTgj3U0zsosNoTTQwEAzAycGohlZGRvZyma8f71ZURV+XeftU0kBxFpPvFOLgQ4GugNwYCCYMWHzHEIqdN/bz/9oC2u5xJuvH1qIvuXXE2YQy/B3xBQYFo87dNcH7frdVxf7KsrJx/yfXjhy63zFaVsDBFbo5RZRrycMIZSD+BrJ3762/EU9PhBuwZuo3uh/oYmQso8PRG7f3U+ocArEolDTQFz29aAOIj3phRDNIB6F7nhIvWrvk107C2yaQkwa6CJIPR6J2L6cvV8qcJLv04cugqoeHgkICNOqWk66T1+1PNTt4JGAAJO2M3yfBHGlbbvPV//+9jvrIBBLBBAjiDNfNTo667PuVVfhbpdKt2EI6vCJiIN3m5kFaCOimRxt4yHgQNSCSKEc9j+K2YMPTFxs4ShAGxEVfFXy8q2KcQNGBYPP1N+ccuHirKKHnrjowJGBNsLLeoRS8F0eRC8Q/oqhS4WL/oeASMSWmDZ9o82SeCDgHTCMdwVJSIM6OOAJiISGXMAZ1AW2bfUI40BWFOd8Z+mGjjVuH9VXA6rvVbO+O1PUh6QE6yO8476CZe8rj0MiJtRsAy5xEeAdQBCHkJLQIoYi15tAaTMh7ydiaP7UaO/AVD9yLiLEFP7SSE4+025UPIGbfAgy9L2q3Tky1Vt9Dd8CQ3wMcbNAEJRXHt4Gl3MInHymsp+NAjhmBuoCK6V+GNRbqdf1XioVVSZ6ooMPrIz9QN5fwSMAfUR13iv13csZBrqS8/hAGEYKfAJQF7BfvqM+23yPcUw3yg6PLKF38A+IbEAVvcMW9Zat//1iqPF2QDDMOShr0y75lqXhqNeEgHgy6K+N0s3Onq3eGDrPVS8RE2qS0Wn1jGiWU68med5q9crMzpM/U70yuaCNeKnHl3rFKCu8M9VLrAy0EdHuAPPut4556rW5BW1EPLiHv4CAi6AvM4/VO2UvgKALMFS6gCr4NLuHRwICHQg8myjt2taihV08EulBUKvna+Z9bGbHBT9eM4XEwFhpG+VjojwbYuoZTYhE/Pt7il3orfy8CtUlRU9ukXr99hdYtxsDmghZ08cHom0ZAWMtfKpDv3vZPjv5WBC6WnyqQ8/qs/Yo85tW6qeohx6im1fERwZSVUxQr1cUu1lV/fZblu8mqIcWBtonJ79dvZ7VGxYU4MA0LCO1q9dzmsO28Wg/PiQraFYfLaZBNwEXRu0OwtV8Bml3VJTtgQYGE8pMtF8EsgHEbZCrx4MBIksWsqFZgBsz7NdAeINJ6hE/E+9ejzZkQnpp9dEqNvR2wFWA/LLqo0006db9aF9k9/oR3iD1uhlXj7gFaB2Au4DSj/AGqRf9jIOHxBWdGsm37zWuoP+ESQFSmyYjWr+2ti/EuyMRainiPYzm+QX4CVO3qdnEe7fsnVPxXjV3SW0C2sQJQF9K/Ppn7xbrSbS7R0fgD5bSn2j3T+vEpX+h9x91c4U9U4Fko+QS5S8udW7GC+nxC8QxnXTH6siZIUj1zNy6le4dHz20AbmeOQUwKXQjexUFSA4grnbUuoFQdVgBsgON5zBBlvTafdqQVkwoAfkm5eqDGpDXNO7bzN5702El60RIwxcwlNeUugHz+FXdNYsP+WsPNJ5FdQ4DjR4RsBIe7IvmE4pJ+z/gv4NrM92BSbf5xv1vxI90Fub23FMdmHhMsOIo2Cfv3PFA+4vvKbyAWiYmXbBvda5n9h3OFTngMuO9D0z9Aqtp585zpnyBRVLeYdxHUGT5y6zrX8FqTeeha44HHq3j7HnPS+9OBGK14In7Am920h5xtb+9eG4vytarN9u7h5YhoTja39t5vVR9fXq23njH5cc42F34IPcGeb0zls2V7O/8l4rC1vbEvC6xv9ambBFe7y6T2w6Hz7UQbL1eQ35b7D+zF7C1s4Ax3MLBLMt5ObbWW9J9Djd6uYzB1hK3Mszg6VrBTVXyMjNv9JjE20UK+/igvIbDjTaBtbf9xHz6cfbrujwpdvnn/EdhbsRnU/m/1XrX2Zez6/ZD1Ne/yr+7k7OB+r/dUNw/fLuce3T87lfxApmY9Rb/rdKANuLD+cyFj4hL9/qalLUNql9VWjLfqi+DaSJdhXJY8vfXeuqa929LZnhOVSU4XHpio+Zqry8L34/gkN7bYrDoTFqFHbfmLI+pqAFLTYSMz13+b8H7QCq5HasAi+T+q7G6/q1xNXExxvJ/9l16Y0n/sJl67jFS/2e1/GO/PGlfKrdRRor/dLO3XNmfONMHinbwxKpfzvZPT1XTLezlcTByhZdJMdu/PH15j9HXlqQ0Z34x259d0on4yq6YtswvZfuzKvCaQtPfkvkFi+7ZNHMWhaavdrRfKvIbOBo0B3tXElO3Je2lb9fU/+LvVO5v/l5c/Pz5/fT04nd+KUcF9qWtRM3FoYV9EOss8VenzuUxX0+Nc2sF/Mwf36vij13Xlu33P80j4RHGTzi6+Jk/MtTz076mbL+qvi3oo/ETrjYPrslbbPbctH+Yku33V9/jPP15Ax9w33g51sfaGuDO+RXW+Ny0+9dLuXhZOpy/uhkv7TmV5d+1+NzUu6ZN3e5XxT3OwdlwMz4p6YR/L6Ym3fLf45g72QXJHc3VvZh04mbabXCgqg/MN58DM/VuH9c6Ez05T6uhXxgdx2v2jB7P/QGC1rTPPgxfQ03L7zX6xkkzbzGmNe3+D9AtSvY7lgZeyc8sXa+hb027c3Ps8tT80KKX+qS7N3+DINDc1i1x1V4dc1IfVfstZxmuuY9b7Ka/CmosHqe/j6q9U+jbfnSVwRfbBCdQWcSZ4VDnjpxzLR/a52yMe5fWR5W15zT5w2Kms9eissLfX/29+Pn988f3BL7XRqjKeqfa9wv5znGW8Wvh771B+IZIxkk25m8vDlnvdPHlQn//e6O5bFI3yLW3fKGzd7q5YsZfbKo7LxJdSOXitPjS3Tlztf4IvnUYvlZOxt+A3eZJrbf7eDfjZ97UvA7o5soCdtZzX++Uei/jk1t/c2zb4yY3/U4u1OAsqUdmJKUpr6K9Z9d6GtvaUxjOEfZ/43XdNbyioe5J3ljpy9m8SAo/vGBc/N9hL2SSoWO39fbqRM3lcQWrcxjx2e30MBr2IyncGez88og3n3vodvJmP1c1VC8kvkt9PxnRFeTvcOgNxKo3mOMEcwydLWfyyrTqSz/2UeRrn9Fc87u0R7NdcpOh/3q/9lcd5pdlDzg9v72It+1UebOtn9PD4atztuEbJs2XNFmllGHurtjk2va+3d7vOAM6q8rPmp+CHc5xSOHMii+Xh1LKEEep3Dt5b1f6PWdQY41pSpkyDqdYkia9cjbFy4WjOBki1aV8Tbo52rEnsvejH94YsPZTIvZpyGy7DAekaKajX+mqSgMGzNiPjCms2T27xTt07DvDxJnc3AVOJL1dtkq5j+/7lgtMC6W+swzGFgXMrEeyYlbmBSnmLTm1Vd7tpe6HegOZoQDDQO3TXhOJh2Xr2jZefeJrJ2mc7x2PhoY1p39/r9DzPd4PBboqEof4+l/BTPzKvprGtOwrx+/G974ffhmkJ1tyu9HxW5FcVba4RuLtOn/kWLdWgze6AifI966pJJ/7bunmNHmz9ZHkdAVJYbf2B85o3urqKsv9nO/dMyMSa4Bjb9Lbc4wc80rgsnXR8dSJt6q8beHtOra9vRuhyr594sSbEzv27P2289v0zpWANYtRT5v49LJ1wZ7IemPfhOYuUFak/kkTbw/pnW0aL7z5S2+Vbnw64ykT72xZsQ+k0HZke0eGfxXmWOb/viKK485xJkVi/JCaYJd6Wqh2Fur8hflnOH3LuHPYTqnniXt7XFfcfTYzX9eAMSHaY+/Kk9NHzk6k8p4MYyr6CeEflPJwMh6r1PaodvwC3GewWheIpv8t7Izv9ic4G/Dq9tb/rdg2vC4+n1as0zr7kPt9OVOz/j+B3dQPxy2dWj/t3t1nhr1ao/fgOvuR1nioJBof12ysmohT6PU5W2/r6foOUm0o8XfOZTTR5mtnjX591X5DiXfOnCRHbJ2CP2EzWh2bSbxz6CA9XO7dsrzczw3EbCTx3oGLbN+1t9t+wiGLGjaReO+IpXGfjHfx0Xo6vA0k3ku7ebLWqfaL5v1997NwkWX8Ho4V9lo9Tgf/7si+ScZLvf0zG/jiLZyOTE/QolbdLGmMMax58M7VOml3917b/T0UtzCWeCr+yyTe698Lt3C7F+tb8/hQ3MJY4mkGbpHEu4cqSzeQ+6nPt2pAcQtjiacF1iUS72y3DWk3DhcN+KnPzlRCcQtjiaeVpvmJn36U2K/36SoOFLcwmvjQ3M9OvH93kNfWKfw77+LMx6/ztfB3LPG/Hx9vINuCSnzh+oCqmzPcE7WNv+r5FBSujKq8J9BewRJaj5ptlFuvgwsUzk/H+M1eKPubvPutiTvnOA3RdFeOX/HXOMydxYN7Zj7QeEtSqeivbZw7nYfCJTnvVtVFvqeU+c/skqRirrdmu1DM/GdU90duhWvPdqGY+c+k5b8utPCBGb/o4x6qB+u/NahMsaoHjkbs2RG849U9T2j3/Cpn+pSGLsW9TqLjaWr/dbmmB9Rh4RmMX2v+acMXhrk/zzew3KXvNbe6t5+1n8bDWGkndqe3cwaF0c7A2fqWt8DdWUXKa8cwDZS7/Z4fa3sB11UJf7eqvfevjdo73t/9WNwCuC7acIoFWniP+tv9wxtYphF8uP5SleHMwbx+fZTq7Gc+nU0vBA/XpR8+zVljpiuKV+La/DhveAm3v77VZzZYbfC3ChuKf8KnH2fnfy6vr+/uYBo/3N3eXl/++XX2raF8J6y7uKc0/6LL2th0ysGE8r8wmyztOW+a2r9lWS1jvc/iSX66bLX7NIXdZHuDJWC185Rl3WETL+BpK/kY2/YO9gU42H5GJb3A62WbgdX+q+ec3yZbb+f+fuVq/23LUstz5PX23kHTW1gd7O389/J6nJdv3m7v7OztHRwcHlH7uFodHR7s7+/t7mxvv95sgl+8+D/soODcL6rJngAAAABJRU5ErkJggg==;rounded=1;shadow=1;glass=1;sketch=0;gradientColor=none;" vertex="1" parent="1">
          <mxGeometry x="570" y="890" width="40" height="40" as="geometry" />
        </mxCell>
        <mxCell id="pmPGEmAbYdkGIdwM05D3-12" value="" style="shape=image;verticalLabelPosition=bottom;verticalAlign=top;imageAspect=0;image=data:image/png,iVBORw0KGgoAAAANSUhEUgAAAEYAAAAhCAMAAAEkBh3CAAAAAXNSR0IArs4c6QAAAARnQU1BAACxjwv8YQUAAAAzUExURQAAAACA/wB4/wB6/wB8/wB5/wB6/wB7/wB6/wB7/wB7/wB8/wB7/wB7/wB7/wB7/wB7/1kyc90AAAAQdFJOUwAQIDBAUGBwgI+fr7/P3+8jGoKKAAAACXBIWXMAAA7DAAAOwwHHb6hkAAABdElEQVQ4T82V65KCMAyFUwpUYLV5/6fdk0sFsYAD/vAbJ1vr4bRNaJZoMnpiKjCNjG/2KfwZN4r+hM8DEQZ62Mhhiv4EUZ990km8NDaqUx2HFwZoBl/e0aVfeHfK1ZkWwnvQX3DauuYVzETfiQPF6Md0IHvwASIxx00gEt0uuWg0Zm4kRJkQJk6ICw3SpCHPCRu5R3xqdoDmfqQRk8Ozy9q9167KgGNQ4+pN7rKcHHAbRkJ49eatCTwRS832wGJf1STZvYZu3l/wMrkGR1wGY2Du8KdoOomtBZg5Zlk0e3xT80meefBbUyUyt5KFffScye9alcluAHrFJQZ1mWSYz6JG6FDoplq40yQYJHkTjkpxAHaEWv2sTZtKluZRk6RFrQldeja6lU2jadfWoKNRRtqWFv+xDEmrdAllZWNv4k2G+vA8erPpZTbXbWSrz512sXTeebQktm5SsTnHD9rIvayV9GNuMMDt1Kt5Dauk3M4LjIHoHwdOMKNavHbIAAAAAElFTkSuQmCC" vertex="1" parent="1">
          <mxGeometry x="280" y="897.5" width="53.03" height="25" as="geometry" />
        </mxCell>
        <mxCell id="pmPGEmAbYdkGIdwM05D3-13" value="&lt;span style=&quot;font-size: 15px&quot;&gt;&lt;b&gt;SD-WAN CPE设备&lt;/b&gt;&lt;/span&gt;" style="text;html=1;resizable=0;autosize=1;align=left;verticalAlign=middle;points=[];fillColor=none;strokeColor=none;rounded=0;" vertex="1" parent="1">
          <mxGeometry x="350" y="900" width="140" height="20" as="geometry" />
        </mxCell>
        <mxCell id="pmPGEmAbYdkGIdwM05D3-14" value="&lt;span style=&quot;font-size: 15px&quot;&gt;&lt;b&gt;就近POP点&lt;/b&gt;&lt;/span&gt;" style="text;html=1;resizable=0;autosize=1;align=left;verticalAlign=middle;points=[];fillColor=none;strokeColor=none;rounded=0;" vertex="1" parent="1">
          <mxGeometry x="630.88" y="900" width="90" height="20" as="geometry" />
        </mxCell>
        <mxCell id="pmPGEmAbYdkGIdwM05D3-15" value="&lt;font style=&quot;font-size: 15px&quot;&gt;Internet&lt;/font&gt;" style="text;html=1;resizable=0;autosize=1;align=center;verticalAlign=middle;points=[];fillColor=none;strokeColor=none;rounded=0;" vertex="1" parent="1">
          <mxGeometry x="720.88" y="617.6299999999999" width="70" height="20" as="geometry" />
        </mxCell>
      </root>
    </mxGraphModel>
  </diagram>
</mxfile>
